<?xml version="1.0" standalone="no"?>
<!DOCTYPE svg PUBLIC "-//W3C//DTD SVG 1.1//EN" "http://www.w3.org/Graphics/SVG/1.1/DTD/svg11.dtd" >
<svg>
<metadata>
Created by FontForge 20090914 at Wed Sep  5 19:55:05 2012
 By www-data
Copyright (c) Abdul-Majid Bhurgri, 2004. All rights reserved.
</metadata>
<defs>
<font id="MBLateefi" horiz-adv-x="753" >
  <font-face
    font-family="MB Lateefi"
    font-weight="400"
    font-stretch="normal"
    units-per-em="2048"
    panose-1="2 0 0 0 0 0 0 0 0 0"
    ascent="1638"
    descent="-410"
    x-height="673"
    cap-height="997"
    bbox="-307 -3221 12887 2240.02"
    underline-thickness="100"
    underline-position="-700"
    unicode-range="U+0020-U+FEFC"
  />
<missing-glyph horiz-adv-x="1147"
d="M143 0v1561h861v-1561h-861zM287 143h573v1275h-573v-1275z" />
    <glyph glyph-name="allah" unicode="&#xfedf;&#xfee0;&#xfeea;" horiz-adv-x="1873"
d="M301 417l110.001 88.501l86.5 66.5c25.667 19.333 49.5 35.666 71.5 48.999s43.333 25.666 64 36.999c5.33301 2.66699 11 4 17 4c10 0 15 -7 15 -21c-0.666992 -12.667 -1.83398 -29.834 -3.50098 -51.501s-3.66699 -43.667 -6 -66s-5 -42.666 -8 -60.999
s-6.16699 -30.166 -9.5 -35.499c-17.333 -30 -38.333 -50.333 -63 -61s-50.667 -16.334 -78 -17.001c-11.333 0 -28 2 -50 6s-43.833 9 -65.5 15s-40.667 12.833 -57 20.5s-24.5 14.834 -24.5 21.501c0 1.33301 0.333008 3 1 5zM634.001 309.001
c12 -94 26.499 -159.837 43.499 -197.504s40.667 -68.5 71 -92.5s71.166 -36 122.499 -36c49.333 0 92.5 14.667 129.5 44s68 66.166 93 110.499s47.833 104.5 68.5 180.5c0 -57.333 16.333 -112 49 -164c13.333 -18 30.166 -33.667 50.499 -47
s42.666 -24.666 66.999 -33.999s49.166 -16.666 74.499 -21.999s49 -8 71 -8h17h-1c6 0 14.667 1 26 3s22.833 5.16699 34.5 9.5s22.667 9.66602 33 15.999s18.833 14.833 25.5 25.5c15.333 43.333 29.833 90 43.5 140s20.5 101.667 20.5 155
c-2 2.66699 -3.83301 11.667 -5.5 27s-5.66699 46.333 -12 93s-16.166 114.334 -29.499 203.001s-32.333 207.667 -57 357v-1c-3.33301 28 -6 52.5 -8 73.5s-4.16699 38.5 -6.5 52.5s-6 24.667 -11 32s-12.167 11 -21.5 11c-7.33301 0 -14.166 -4.66699 -20.499 -14
s-10.833 -24 -13.5 -44v1l-38 -195l6 -161c2.66699 -20 6.33398 -44.833 11.001 -74.5l15.5 -94.5l17 -102.5l16 -99.5l14 -85c4.33301 -25.333 7.5 -45.333 9.5 -60c-46.667 0 -86.834 5.5 -120.501 16.5s-62.5 29.167 -86.5 54.5s-43.833 58.833 -59.5 100.5
s-29.167 93 -40.5 154s-21 132.833 -29 215.5s-16 177.667 -24 285c-2 18.667 -7.16699 35 -15.5 49s-17.833 21 -28.5 21c-8 0 -15.5 -5.83301 -22.5 -17.5s-11.833 -31.167 -14.5 -58.5v2l-33 -215c1.33301 -10.667 3.33301 -30.5 6 -59.5s5 -59.833 7 -92.5l5.5 -92.5
c1.66699 -29 2.5 -48.5 2.5 -58.5v-77v-24c0 -81.333 -16.333 -146.5 -49 -195.5s-80 -73.5 -142 -73.5c-28 0 -51.333 5.83301 -70 17.5s-33.5 27.834 -44.5 48.501s-18.833 44.667 -23.5 72s-7 57 -7 89c0 16.667 1 39.167 3 67.5l6.5 94.5l7.5 107.5l7.5 104.5l6.5 88.5
c2 26.333 3 46.166 3 59.499c-23.333 0 -41.333 -4.83301 -54 -14.5s-22 -21.167 -28 -34.5s-9.66699 -26.666 -11 -39.999s-2.66602 -23.666 -3.99902 -30.999c-1.33301 -12.667 -3 -23.834 -5 -33.501s-5.33301 -19.167 -10 -28.5c-21.333 -14 -42 -26.667 -62 -38
l-63 -35v-1l-143 -85c-47.333 -29.333 -94.666 -67 -141.999 -113l-10 -12c-14 -21.333 -27.5 -45.666 -40.5 -72.999l-37.5 -81v1c-4.66699 -8 -7.33398 -15.167 -8.00098 -21.5s-1 -13.166 -1 -20.499c0 -22 5.83301 -41.667 17.5 -59s26.667 -32.833 45 -46.5
s38.833 -25.167 61.5 -34.5s45.334 -17 68.001 -23s43.5 -10.333 62.5 -13s34.5 -4 46.5 -4c30 0 56.5 6.16699 79.5 18.5s43.333 28.833 61 49.5s26.834 50 27.501 88zM994 1600c6 56 7.17188 100.834 3.50488 134.501s-10.834 61 -21.501 82s-21.334 38 -32.001 51
s-19.334 26.5 -26.001 40.5c0 4 1.16699 10.167 3.5 18.5s5.16602 16.666 8.49902 24.999s6.83301 15.833 10.5 22.5s6.83398 10 9.50098 10c6.66699 0.666992 15.834 -5.33301 27.501 -18s23.167 -29.167 34.5 -49.5s20.666 -43 27.999 -68s10.666 -49.167 9.99902 -72.5
c-2 -8 -4.16699 -20.5 -6.5 -37.5s-5.33301 -34.5 -9 -52.5s-8.83398 -35.167 -15.501 -51.5s-15 -27.833 -25 -34.5zM1168 1451c-2.66699 -23.333 -7.50293 -44.9941 -14.5029 -64.9941s-15.333 -37.167 -25 -51.5s-20.667 -25.833 -33 -34.5s-24.5 -13 -36.5 -13
c-13.333 0 -29.666 8.66699 -48.999 26c-13.333 -13.333 -23.666 -24.5 -30.999 -33.5s-14 -16 -20 -21s-12.333 -8.66699 -19 -11s-14.667 -3.5 -24 -3.5c-45.333 0 -68 42 -68 126c0 4.66699 1.5 14 4.5 28s6.83301 28.167 11.5 42.5s10.167 27.166 16.5 38.499
s12.166 17 17.499 17c6.66699 0 10.834 -3.33301 12.501 -10s2.5 -12.334 2.5 -17.001s-0.666992 -10.167 -2 -16.5l-4 -19.5l-3.5 -17c-1 -4.66699 -1.5 -7.33398 -1.5 -8.00098c0 -16 3 -26.833 9 -32.5s14.667 -8.5 26 -8.5c16.667 0 30.834 8.16699 42.501 24.5
s21.834 34.166 30.501 53.499s15.5 37.166 20.5 53.499s8.83301 24.5 11.5 24.5c11.333 0 17 -11.667 17 -35c0 -3.33301 -1.66699 -9.83301 -5 -19.5s-5 -18.834 -5 -27.501c0 -5.33301 2.16699 -9.83301 6.5 -13.5s9 -7 14 -10s10.167 -4.83301 15.5 -5.5
s9.33301 -1 12 -1c7.33301 0 13.333 6.66699 18 20s8.66699 28.5 12 45.5s6.66602 32.167 9.99902 45.5s7.33301 20 12 20s9 -8.33301 13 -25s6 -34 6 -52v-14z" />
    <glyph glyph-name="lamalefmad" unicode="&#xfedf;&#xfe82;" horiz-adv-x="995" arabic-form="isolated"
d="M955 1166l-5.99805 -69.999l-60 -154h-32v-11c0 -18 -0.5 -32 -1.5 -42s-1.5 -19 -1.5 -27l-8 -67c0 -46.667 -3 -81.667 -9 -105l-17 -73c-0.666992 -24.667 -12.334 -56.667 -35.001 -96l-19 -49l43 -101l14 -99l3 -112c0 -18 -2 -29 -6 -33l-2 -42l-19 -54l-16 -3
l-101 -29l-97 -9h-101l-8 -3l-80 3c-21.333 0 -34 9.33301 -38 28l-5 235l98 -28l47 47l41 33l74 95l35 55l-123 172l-109 126l-118 126l-52 52l-46 -35c-12.667 -7.33301 -31.667 -11 -57 -11c-32.667 2.66699 -63 17.834 -91 45.501s-51 67.167 -69 118.5l-11 39l-7 38
c0 20 2.5 39 7.5 57s12 33.5 21 46.5s19.167 23.167 30.5 30.5s23.333 11 36 11c39.333 0 90.333 -25.667 153 -77l80 -77l103 -106l212 -282l100 -156l12 22c3.33301 14.667 6.66602 31.167 9.99902 49.5s7.33301 39.166 12 62.499l13 77l5 66
c2 25.333 3.5 51.166 4.5 77.499s1.5 55.166 1.5 86.499v40l-49 28l49 142c40 93.333 69.333 140 88 140c8.66699 -2 14.667 -12 18 -30l-12 -85v-25l35 -27c15.333 -19.333 35.333 -29.666 60 -30.999zM742.002 245.001l-6 27l-28 77l-11 19l-26 -36l-17 -30l-74 -88
l156 11zM419.002 1575l-112.001 -111.001c-78 -50 -141 -75 -189 -75c-66.667 0 -103.334 2.66699 -110.001 8l-68 24l-23 17l-32 -49c-22 -30 -43 -45 -63 -45c-6.66699 0 -13 2 -19 6l51 102l66 101l86 -34l68 -21c10.667 -2 20.334 -3.5 29.001 -4.5
s16.334 -1.5 23.001 -1.5c9.33301 0 24 2.33301 44 7s44.667 11.334 74 20.001l98 34z" />
    <glyph glyph-name="lamalefmadfina" unicode="&#xfee0;&#xfe82;" horiz-adv-x="1329" arabic-form="final"
d="M423 1463c-76.667 -48.667 -140.334 -73.001 -191.001 -73.001c-62 0 -97.667 3 -107 9l-75 22l-22 17l-31 -48c-10 -16 -20.667 -27.5 -32 -34.5s-21.666 -10.833 -30.999 -11.5c-8 0 -15 1.33301 -21 4l52 105l67 101l42 -20l48 -16l66 -19
c10.667 -1.33301 20.667 -2.83301 30 -4.5s17 -2.5 23 -2.5c10 0 24.667 2.33301 44 7s43.333 11.334 72 20.001l99 35l76 21zM1236 -0.000976562c-28 -0.666992 -53.668 9.16309 -77.001 29.4961s-47 46.833 -71 79.5l-16 21l-12 28l-32 129l-33 164l-29 243l-64 -357
c-10.667 -54.667 -30.167 -108 -58.5 -160s-69.833 -98.167 -124.5 -138.5s-123.834 -73 -207.501 -98s-184.5 -37.5 -302.5 -37.5l-3 23c7.33301 2 16.666 5 27.999 9s24.333 11.333 39 22l97 54l100 63l104 74c7.33301 6 20.166 17.167 38.499 33.5s41.833 38.5 70.5 66.5
l93 109l-14 83c-4 14.667 -10.167 31.334 -18.5 50.001s-20.166 39.334 -35.499 62.001l-22 39l-28 42l-29.5 38.5c-10.333 13.667 -23 29.334 -38 47.001s-33.167 37.834 -54.5 60.501l-80 81l-75 64l-31 -24c-7.33301 -5.33301 -16 -9 -26 -11s-20 -3.33301 -30 -4
c-28.667 0 -56.334 6 -83.001 18s-50 28.833 -70 50.5s-36.167 46.5 -48.5 74.5s-18.5 58.333 -18.5 91c0 23.333 0.666992 35.333 2 36l2 21l7 21c6.66699 18.667 15.834 33.167 27.501 43.5s28.167 15.5 49.5 15.5c36.667 0 89.334 -21.667 158.001 -65s144 -109 226 -197
l83 -94c10.667 -12.667 20.334 -26 29.001 -40s18 -27.667 28 -41l57 -116l61 -130l15 -69l4 -32l44 168l21 95l7 69v401l165 185v-498l7 -100l33 -242c20.667 -198.667 71.334 -298 152.001 -298h103v-252h-119z" />
    <glyph glyph-name="lamalef" unicode="&#xfedf;&#xfe8e;" horiz-adv-x="995" arabic-form="isolated"
d="M955 1166l-5.99902 -69.998l-60 -154h-32v-11c0 -18 -0.5 -32 -1.5 -42s-1.5 -19 -1.5 -27l-8 -67c0 -46.667 -3 -81.667 -9 -105l-17 -73c-1.33301 -26 -13 -58 -35 -96l-19 -49l43 -101l14 -99l3 -112c0 -18 -2 -29 -6 -33l-2 -42l-19 -54l-16 -3l-101 -29l-97 -9h-101
l-8 -3l-80 3c-21.333 0 -34 9.33301 -38 28l-5 235l98 -28l47 47l41 33l74 95l35 55l-123 172l-109 126l-118 126l-52 52l-46 -35c-12.667 -7.33301 -31.667 -11 -57 -11c-32.667 2.66699 -63 17.834 -91 45.501s-51 67.167 -69 118.5l-11 39l-7 38c0 20 2.5 39 7.5 57
s12 33.5 21 46.5s19.167 23.167 30.5 30.5s23.333 11 36 11c39.333 0 90.333 -25.667 153 -77l80 -77l103 -106l212 -282l100 -156l12 22c3.33301 14.667 6.66602 31.167 9.99902 49.5s7.33301 39.166 12 62.499l13 77l5 66c2 25.333 3.5 51.166 4.5 77.499
s1.5 55.166 1.5 86.499v40l-49 28l49 142c40 93.333 69.333 140 88 140c7.33301 -1.33301 13.333 -11.333 18 -30l-12 -85v-25l35 -27c14.667 -18.667 34.667 -29 60 -31zM742.001 245.002l-6 27l-28 77l-11 19l-26 -36l-17 -30l-74 -88l156 11z" />
    <glyph glyph-name="lamaleffina" unicode="&#xfee0;&#xfe8e;" horiz-adv-x="1329" arabic-form="final"
d="M1236 0c-26 0 -51.334 10.3291 -76.001 30.9961s-48.667 46.667 -72 78l-16 21l-12 28l-32 129l-33 164l-29 243l-64 -357c-10.667 -54.667 -30.167 -108 -58.5 -160s-69.833 -98.167 -124.5 -138.5s-123.834 -73 -207.501 -98s-184.5 -37.5 -302.5 -37.5l-3 23
c7.33301 2 16.666 5 27.999 9s24.333 11.333 39 22l97 54l100 63l104 74c7.33301 6 20.166 17.167 38.499 33.5s41.833 38.5 70.5 66.5l93 109l-14 83c-4 14.667 -10.167 31.334 -18.5 50.001s-20.166 39.334 -35.499 62.001l-22 39l-28 42l-29.5 38.5
c-10.333 13.667 -23 29.334 -38 47.001s-33.167 37.834 -54.5 60.501l-80 81l-75 64l-31 -24c-7.33301 -5.33301 -16 -9 -26 -11s-20 -3.33301 -30 -4c-28.667 0 -56.334 6 -83.001 18s-50 28.833 -70 50.5s-36.167 46.5 -48.5 74.5s-18.5 58.333 -18.5 91
c0 23.333 0.666992 35.333 2 36l2 21l7 21c6.66699 18.667 15.834 33.167 27.501 43.5s28.167 15.5 49.5 15.5c36.667 0 89.334 -21.667 158.001 -65s144 -109 226 -197l83 -94c10.667 -12.667 20.334 -26 29.001 -40s18 -27.667 28 -41l57 -116l61 -130l15 -69l4 -32
l44 168l21 95l7 69v401l165 185v-498l7 -100l33 -242c20.667 -198.667 71.334 -298 152.001 -298h103v-252h-119z" />
    <glyph glyph-name="bbayfina" unicode="&#x67b;" horiz-adv-x="1526" arabic-form="final"
d="M832 -360l-153 -143l-143 152l149 149zM826 -686l-141 -147l-160 155l148 146zM1576 -1h-42c-10 0 -23 1.5 -39 4.5s-32.833 9 -50.5 18s-35.167 21.833 -52.5 38.5s-33 39 -47 67l-15 55l-52 -41l-88 -47l-55 -24l-57 -20l-140 -35
c-61.333 -10 -115.166 -17.5 -161.499 -22.5s-85.5 -7.5 -117.5 -7.5c-54.667 0 -106.334 3.5 -155.001 10.5s-93 18.167 -133 33.5s-75.5 35.833 -106.5 61.5s-56.167 57.167 -75.5 94.5l-14 49l-20 49l-9 36l-3 35l3 46l7 20l5 32
c4.66699 13.333 9.33398 25.166 14.001 35.499s9.33398 18.5 14.001 24.5l14 23l16 14l25 35c35.333 32.667 65 49 89 49l-4 -24l-8 -22l-20 -33l-17 -54v-46c0 -18 0.833008 -32.333 2.5 -43s5.16699 -20.667 10.5 -30s13.5 -19 24.5 -29s26.167 -22.667 45.5 -38
c14 -8.66699 32 -19 54 -31s47.667 -23.833 77 -35.5s62.666 -21.5 99.999 -29.5s79 -12 125 -12h68l63 8l32 11l164 34c26 8.66699 52.667 18.334 80 29.001l46 20l51 35l43 22l46 38l107 101l-6 -46l17 -93c9.33301 -42 24.666 -69.333 45.999 -82l11 -11l28 -16l18 -5h42
v-252z" />
    <glyph glyph-name="bbayinit" unicode="&#x67b;" horiz-adv-x="552" arabic-form="initial"
d="M486 325l0.000976562 -17.998l-4 -26l-5 -60l-7 -22c-6 -30.667 -15.667 -55.834 -29 -75.501s-32 -41.834 -56 -66.501l-76 -44c-32.667 -8.66699 -61.334 -13 -86.001 -13h-254v252h396l12 8l11 19l1 12l-22 97l-14 35c-4 9.33301 -8.33301 17 -13 23
s-8.66699 10 -12 12l67 194l29 -46l16 -33l26 -72l16 -68l7 -68zM256.001 -679.998l-113 120l113 123l129 -123zM256.001 -383.998l-119 122l118 123l129 -121z" />
    <glyph glyph-name="bbaymedi" unicode="&#x67b;" horiz-adv-x="738" arabic-form="medial"
d="M647 0c-6 0 -17.5 0.500977 -34.5 1.50098s-35.333 2.33301 -55 4s-38.334 4 -56.001 7s-29.5 6.16699 -35.5 9.5l-66 48l-17 17.5c-6 6.33301 -12 13.166 -18 20.499l-19 26l-41 -57l-73 -57l-37 -13l-33 -7h-162v252h188l44 4l45 9c10.667 3.33301 21.5 15 32.5 35
s24.5 48.333 40.5 85c14.667 36.667 31.334 55 50.001 55c8.66699 0 16.667 -2.33301 24 -7v-103l14 -32c4 -10 19.333 -21.667 46 -35l37 -11h234v-252h-108zM323 -703.999l-119 117l119 125l126 -125zM323 -408.999l-121 122l120 123l125 -120z" />
    <glyph glyph-name="pehfina" unicode="&#x67e;" horiz-adv-x="1534" arabic-form="final"
d="M932 -251l-130 -120l-120 120l120 121zM676 -253l-120 -121l-126 121l123 123zM809 -489l-127 -120l-121 120l121 126zM1576 0h-42c-10 0 -23 1.66699 -39 5s-32.833 9.33301 -50.5 18s-35.167 21.5 -52.5 38.5s-33 39.5 -47 67.5l-15 54l-52 -40l-88 -48l-55 -24
l-57 -19l-140 -35c-61.333 -10.667 -115.166 -18.5 -161.499 -23.5s-85.5 -7.5 -117.5 -7.5c-54.667 0 -106.334 3.5 -155.001 10.5s-93 18.167 -133 33.5s-75.5 35.833 -106.5 61.5s-56.167 57.167 -75.5 94.5l-14 49l-20 49l-9 37l-3 35l3 46l7 19l5 33
c4.66699 12.667 9.33398 24.167 14.001 34.5s9.33398 18.833 14.001 25.5l14 22l16 14l25 35c35.333 32.667 65 49 89 49l-4 -24l-8 -22l-20 -32l-17 -55v-28c0 -22 0.5 -39.667 1.5 -53s4.33301 -25 10 -35s14.167 -20.167 25.5 -30.5s26.666 -23.5 45.999 -39.5
c14 -8.66699 32.667 -19 56 -31s50.166 -23.833 80.499 -35.5s64 -21.5 101 -29.5s76.5 -12 118.5 -12h68l63 9l32 11l164 33c26 8.66699 52.667 18.667 80 30l46 19l51 35l43 23l46 38l107 100l-6 -46l17 -92c10 -43.333 25.333 -71 46 -83l11 -11l28 -15l18 -6h42v-252z
" />
    <glyph glyph-name="pehinit" unicode="&#x67e;" horiz-adv-x="578" arabic-form="initial"
d="M486 325v-17.998l-4 -26l-5 -60l-7 -22c-6 -30.667 -15.667 -55.834 -29 -75.501s-32 -41.834 -56 -66.501l-76 -44c-32.667 -8.66699 -61.334 -13 -86.001 -13h-254v252h396l12 8l11 19l1 12l-22 97l-14 35c-7.33301 19.333 -15.666 31 -24.999 35l67 194l29 -46l16 -33
l26 -72l16 -68l7 -68zM284 -626.998l-122 122l122 126l128 -126zM158 -390.998l-126 119l122 125l123 -125zM403 -388.998l-119 122l119 120l129 -120z" />
    <glyph glyph-name="pehmedi" unicode="&#x67e;" horiz-adv-x="722" arabic-form="medial"
d="M647 0c-6 0 -17.5 0.500977 -34.5 1.50098s-35.333 2.33301 -55 4s-38.334 4 -56.001 7s-29.5 6.16699 -35.5 9.5l-66 48l-17 17.5c-6 6.33301 -12 13.166 -18 20.499l-19 26l-41 -57l-73 -57l-37 -13l-33 -7h-162v252h188l44 4l45 9c10.667 3.33301 21.5 15 32.5 35
s24.5 48.333 40.5 85c14.667 36.667 31.334 55 50.001 55c8.66699 0 16.667 -2.33301 24 -7v-103l14 -32c4.66699 -11.333 20 -23 46 -35l37 -11h234v-252h-108zM370 -630.999l-122 121l122 126l126 -126zM244 -395.999l-128 120l122 123l125 -123zM489 -392.999l-119 121
l119 119l128 -119z" />
    <glyph glyph-name="bhayfina" unicode="&#x680;" horiz-adv-x="1532" arabic-form="final"
d="M952 -188l-129 -120l-117 120l117 118zM697 -190l-117 -121l-129 121l123 120zM949 -461l-126 -120l-120 120l120 131zM703 -448l-126 -118l-121 118l121 126zM1576 -1h-42c-10 0 -23 1.5 -39 4.5s-32.833 9 -50.5 18s-35.167 21.833 -52.5 38.5s-33 39 -47 67l-15 55
l-52 -41l-88 -47l-55 -24l-57 -20l-140 -35c-61.333 -10 -115.166 -17.5 -161.499 -22.5s-85.5 -7.5 -117.5 -7.5c-54.667 0 -106.334 3.5 -155.001 10.5s-93 18.167 -133 33.5s-75.5 35.833 -106.5 61.5s-56.167 57.167 -75.5 94.5l-14 49l-20 49l-9 36l-3 35l3 46l7 20
l5 32c4.66699 13.333 9.33398 25.166 14.001 35.499s9.33398 18.5 14.001 24.5l14 23l16 14l25 35c35.333 32.667 65 49 89 49l-4 -24l-8 -22l-20 -33l-17 -54v-46c0 -18 0.833008 -32.333 2.5 -43s5.16699 -20.667 10.5 -30s13.5 -19 24.5 -29s26.167 -22.667 45.5 -38
c14 -8.66699 32 -19 54 -31s47.667 -23.833 77 -35.5s62.666 -21.5 99.999 -29.5s79 -12 125 -12h68l63 8l32 11l164 34c26 8.66699 52.667 18.334 80 29.001l46 20l51 35l43 22l46 38l107 101l-6 -46l17 -93c9.33301 -42 24.666 -69.333 45.999 -82l11 -11l28 -16l18 -5h42
v-252z" />
    <glyph glyph-name="bhayinit" unicode="&#x680;" horiz-adv-x="578" arabic-form="initial"
d="M486 325l0.000976562 -17.998l-4 -26l-5 -60l-7 -22c-6 -30.667 -15.667 -55.834 -29 -75.501s-32 -41.834 -56 -66.501l-76 -44c-32.667 -8.66699 -61.334 -13 -86.001 -13h-254v252h396l12 8l11 19l1 12l-22 97l-14 35c-4 9.33301 -8.33301 17 -13 23
s-8.66699 10 -12 12l67 194l29 -46l16 -33l26 -72l16 -68l7 -68zM172.001 -637.998l-122 121l122 124l126 -124zM420.001 -649.998l-122 122l122 126l126 -126zM172.001 -383.998l-124 119l123 129l123 -129zM420.001 -378.998l-120 119l120 124l127 -124z" />
    <glyph glyph-name="bhaymedi" unicode="&#x680;" horiz-adv-x="722" arabic-form="medial"
d="M647 0c-6 0 -17.5 0.500977 -34.5 1.50098s-35.333 2.33301 -55 4s-38.334 4 -56.001 7s-29.5 6.16699 -35.5 9.5l-66 48l-17 17.5c-6 6.33301 -12 13.166 -18 20.499l-19 26l-41 -57l-73 -57l-37 -13l-33 -7h-162v252h188l44 4l45 9c10.667 3.33301 21.5 15 32.5 35
s24.5 48.333 40.5 85c14.667 36.667 31.334 55 50.001 55c8.66699 0 16.667 -2.33301 24 -7v-103l14 -32c4 -10 19.333 -21.667 46 -35l37 -11h234v-252h-108zM266 -637.999l-122 121l122 124l126 -124zM517 -649.999l-125 122l125 126l123 -126zM266 -383.999l-122 119
l121 129l123 -129zM517 -378.999l-122 119l122 124l124 -124z" />
    <glyph glyph-name="tthayfina" unicode="&#x67a;" horiz-adv-x="1543" arabic-form="final"
d="M909 1054l-154 -147l-142 153l150 148zM900 724l-137 -146l-161 151l150 153zM1576 -1h-42.001c-10 0 -23 1.5 -39 4.5s-32.833 9 -50.5 18s-35.167 21.833 -52.5 38.5s-33 39 -47 67l-15 55l-52 -41l-88 -47l-55 -24l-57 -20l-140 -35
c-61.333 -10 -115.166 -17.5 -161.499 -22.5s-85.5 -7.5 -117.5 -7.5c-54.667 0 -106.334 3.5 -155.001 10.5s-93 18.167 -133 33.5s-75.5 35.833 -106.5 61.5s-56.167 57.167 -75.5 94.5l-14 49l-20 49l-9 36l-3 35l3 46l7 20l5 32
c4.66699 13.333 9.33398 25.166 14.001 35.499s9.33398 18.5 14.001 24.5l14 23l16 14l25 35c35.333 32.667 65 49 89 49l-4 -24l-8 -22l-20 -33l-17 -54v-46c0 -18 0.833008 -32.333 2.5 -43s5.16699 -20.667 10.5 -30s13.5 -19 24.5 -29s26.167 -22.667 45.5 -38
c14 -8.66699 32 -19 54 -31s47.667 -23.833 77 -35.5s62.666 -21.5 99.999 -29.5s79 -12 125 -12h68l63 8l32 11l164 34c26 8.66699 52.667 18.334 80 29.001l46 20l51 35l43 22l46 38l107 101l-6 -46l17 -93c10 -42.667 25.333 -70 46 -82l11 -11l28 -16l18 -5h42v-252z
" />
    <glyph glyph-name="tthayinit" unicode="&#x67a;" horiz-adv-x="552" arabic-form="initial"
d="M486 325l0.000976562 -17.998l-4 -26l-5 -60l-7 -22c-6 -30.667 -15.667 -55.834 -29 -75.501s-32 -41.834 -56 -66.501l-76 -44c-32.667 -8.66699 -61.334 -13 -86.001 -13h-254v252h396l12 8l11 19l1 12l-22 97l-14 35c-4 9.33301 -8.33301 17 -13 23
s-8.66699 10 -12 12l67 194l29 -46l16 -33l26 -72l16 -68l7 -68zM223.001 682.002l-114 119l114 124l128 -124zM223.001 977.002l-119 122l117 123l129 -120z" />
    <glyph glyph-name="tthaymedi" unicode="&#x67a;" horiz-adv-x="738" arabic-form="medial"
d="M647 0c-6 0 -17.5 0.500977 -34.5 1.50098s-35.333 2.33301 -55 4s-38.334 4 -56.001 7s-29.5 6.16699 -35.5 9.5l-66 48l-17 17.5c-6 6.33301 -12 13.166 -18 20.499l-19 26l-41 -57l-73 -57l-37 -13l-33 -7h-162v252h188l44 4l45 9c10.667 3.33301 21.5 15 32.5 35
s24.5 48.333 40.5 85c14.667 36.667 31.334 55 50.001 55c8.66699 0 16.667 -2.33301 24 -7v-103l14 -32c4 -10 19.333 -21.667 46 -35l37 -11h234v-252h-108zM361 637.001l-117 119l117 125l128 -125zM361 932.001l-120 122l119 123l126 -120z" />
    <glyph glyph-name="thayfina" unicode="&#x67f;" horiz-adv-x="1534" arabic-form="final"
d="M1081 983l-126 -121l-121 121l121 123zM826 976l-118 -118l-123 118l121 130zM1078 713l-123 -121l-123 121l123 126zM834 724l-126 -123l-123 123l123 123zM1576 -1h-42.001c-10 0 -23 1.5 -39 4.5s-32.833 9 -50.5 18s-35.167 21.833 -52.5 38.5s-33 39 -47 67l-15 55
l-52 -41l-88 -47l-55 -24l-57 -20l-140 -35c-61.333 -10 -115.166 -17.5 -161.499 -22.5s-85.5 -7.5 -117.5 -7.5c-54.667 0 -106.334 3.5 -155.001 10.5s-93 18.167 -133 33.5s-75.5 35.833 -106.5 61.5s-56.167 57.167 -75.5 94.5l-14 49l-20 49l-9 36l-3 35l3 46l7 20
l5 32c4.66699 13.333 9.33398 25.166 14.001 35.499s9.33398 18.5 14.001 24.5l14 23l16 14l25 35c35.333 32.667 65 49 89 49l-4 -24l-8 -22l-20 -33l-17 -54v-46c0 -18 0.833008 -32.333 2.5 -43s5.16699 -20.667 10.5 -30s13.5 -19 24.5 -29s26.167 -22.667 45.5 -38
c14 -8.66699 32 -19 54 -31s47.667 -23.833 77 -35.5s62.666 -21.5 99.999 -29.5s79 -12 125 -12h68l63 8l32 11l164 34c26 8.66699 52.667 18.334 80 29.001l46 20l51 35l43 22l46 38l107 101l-6 -46l17 -93c10 -42.667 25.333 -70 46 -82l11 -11l28 -16l18 -5h42v-252z
" />
    <glyph glyph-name="thayinit" unicode="&#x67f;" horiz-adv-x="552" arabic-form="initial"
d="M486 325l0.000976562 -17.998l-4 -26l-5 -60l-7 -22c-6 -30.667 -15.667 -55.834 -29 -75.501s-32 -41.834 -56 -66.501l-76 -44c-32.667 -8.66699 -61.334 -13 -86.001 -13h-254v252h396l12 8l11 19l1 12l-22 97l-14 35c-4 9.33301 -8.33301 17 -13 23
s-8.66699 10 -12 12l67 194l29 -46l16 -33l26 -72l16 -68l7 -68zM115.001 762.002l-122 119l122 123l123 -123zM361.001 749.002l-123 120l123 128l125 -128zM116.001 1015l-124 119l120 127l122 -127zM361.001 1021l-120 117l120 125l128 -125z" />
    <glyph glyph-name="thaymedi" unicode="&#x67f;" horiz-adv-x="748" arabic-form="medial"
d="M647 0c-6 0 -17.5 0.500977 -34.5 1.50098s-35.333 2.33301 -55 4s-38.334 4 -56.001 7s-29.5 6.16699 -35.5 9.5l-66 48l-17 17.5c-6 6.33301 -12 13.166 -18 20.499l-19 26l-41 -57l-73 -57l-37 -13l-33 -7h-162v252h188l44 4l45 9c10.667 3.33301 21.5 15 32.5 35
s24.5 48.333 40.5 85c14.667 36.667 31.334 55 50.001 55c8.66699 0 16.667 -2.33301 24 -7v-103l14 -32c4.66699 -11.333 20 -23 46 -35l37 -11h234v-252h-108zM232 673.001l-120 119l120 125l125 -125zM479 662.001l-122 119l122 129l127 -129zM234 928.001l-125 121
l121 124l123 -124zM479 932.001l-118 121l118 123l129 -123z" />
    <glyph glyph-name="ttehfina" unicode="&#x679;" horiz-adv-x="1548" arabic-form="final"
d="M1534 0c-10.667 0 -24.0059 1.66797 -40.0059 5.00098s-32.833 9.66602 -50.5 18.999s-35.167 22.166 -52.5 38.499s-33 37.833 -47 64.5l-14 55l-50 -41l-90 -47l-55 -24l-57 -20l-140 -35c-91.333 -20 -183.666 -30 -276.999 -30c-55.333 0 -107.166 3.5 -155.499 10.5
s-92.833 18.167 -133.5 33.5s-76.5 35.833 -107.5 61.5s-55.833 57.167 -74.5 94.5l-15 47l-20 49l-8 40l-3 33l3 45l11 52c2.66699 12.667 6.83398 23.667 12.501 33l17.5 28l14 24l14 14l25 32c19.333 18 35.833 31 49.5 39s26.834 12 39.501 12l-11 -46l-21 -33l-18 -54
c0 -10.667 -0.166992 -20.334 -0.5 -29.001s-0.5 -16.667 -0.5 -24c0 -22 2.33301 -40.833 7 -56.5s16.334 -31.167 35.001 -46.5s46.334 -32.166 83.001 -50.499s87.334 -40.166 152.001 -65.499c35.333 -14.667 90 -22 164 -22h70l61 8l31 10l164 36
c16 4 30.167 8.16699 42.5 12.5s25.166 9.5 38.499 15.5l46 21l95 56l47 38l29 32l74 69l-4 -46l4 -35l11 -58c6 -19.333 12.5 -36 19.5 -50s16.167 -25.333 27.5 -34l11 -9l29 -16l18 -4h42v-252h-42zM752.994 701.001l-131 119l131 126l118 -126zM586.994 925.001
l-124 119l124 128l124 -128zM909.994 903.001l-129 122l129 124l123 -124z" />
    <glyph glyph-name="ttehinit" unicode="&#x679;" horiz-adv-x="518" arabic-form="initial"
d="M486 325l0.000976562 -17.998l-4 -26l-5 -60l-7 -22c-6 -30.667 -15.667 -55.834 -29 -75.501s-32 -41.834 -56 -66.501l-76 -44c-32.667 -8.66699 -61.334 -13 -86.001 -13h-254v252h396l12 8l11 19l1 12l-22 97l-14 35c-4 9.33301 -8.33301 17 -13 23
s-8.66699 10 -12 12l67 194l29 -46l16 -33l26 -72l16 -68l7 -68zM259.001 729.002l-123 124l123 127l122 -127zM105.001 956.002l-133 125l133 122l115 -125zM420.001 937.002l-125 117l125 128l120 -128z" />
    <glyph glyph-name="ttehmedi" unicode="&#x679;" horiz-adv-x="718" arabic-form="medial"
d="M647 0c-6 0 -17.5 0.500977 -34.5 1.50098s-35.333 2.33301 -55 4s-38.334 4 -56.001 7s-29.5 6.16699 -35.5 9.5l-66 48l-17 17.5c-6 6.33301 -12 13.166 -18 20.499l-19 26l-41 -57l-73 -57l-37 -13l-33 -7h-162v252h188l44 4l45 9c10.667 3.33301 21.5 15 32.5 35
s24.5 48.333 40.5 85c14.667 36.667 31.334 55 50.001 55c8.66699 0 16.667 -2.33301 24 -7v-103l14 -32c4 -10 19.333 -21.667 46 -35l37 -11h234v-252h-108zM413 672.001l-125 123l125 126l125 -126zM258 899.001l-132 123l132 122l116 -123zM574 878.001l-123 120
l123 125l122 -125z" />
    <glyph glyph-name="pphayfina" unicode="&#x6a6;" horiz-adv-x="1628" arabic-form="final"
d="M1135 931l-121 122l121 123l126 -123zM1383 920l-122 120l122 126l125 -126zM1135 1184l-124 122l123 128l123 -128zM1383 1190l-120 119l120 125l126 -125zM1336 421c0 17.333 -2.33203 29.666 -6.99902 36.999l-7 24c-4 12 -14.333 22 -31 30s-31.667 12.333 -45 13
l-35 -10c-16 -9.33301 -30 -18.666 -42 -27.999s-21 -19 -27 -29l-14 -25l-4 -23c0 -22 14.667 -44.333 44 -67l43 -25l60 35l46 39c9.33301 9.33301 15.666 19 18.999 29zM1438 0c-7.33301 0 -17.333 0.663086 -30 1.99609s-26.5 3.83301 -41.5 7.5s-30 8.66699 -45 15
s-28.167 13.5 -39.5 21.5l-58 34c-9.33301 4.66699 -18 10.5 -26 17.5s-15.667 14.167 -23 21.5l-94 -50l-74 -31l-195 -58l-109 -19c-35.333 -6.66699 -69.333 -11.334 -102 -14.001s-64.667 -4.66699 -96 -6c-51.333 0 -101.5 4.5 -150.5 13.5s-94.667 22.833 -137 41.5
s-80 42.5 -113 71.5s-59.5 63.5 -79.5 103.5l-11 31l-11 43l-3 27v35c0 32.667 4.83301 68.334 14.5 107.001s25.5 80.334 47.5 125.001l85 95c2.66699 -2.66699 4 -9.66699 4 -21s-2.33301 -24.833 -7 -40.5l-14.5 -49l-14.5 -48.5c-4.66699 -15.333 -7 -27.666 -7 -36.999
v-24c0 -1.33301 0.5 -4 1.5 -8s3.16699 -8.33301 6.5 -13c29.333 -74.667 85.333 -129.667 168 -165l60 -19l69 -17l77 -10l88 -1c56 0.666992 105.667 2.66699 149 6s82 8.33301 116 15l81 15l92 25l55 18l-18 49c-4 8.66699 -6 23.334 -6 44.001c0 2 0.333008 4.33301 1 7
s1 5.33398 1 8.00098l4 65c9.33301 43.333 24.666 86 45.999 128s45.333 79.167 72 111.5s54 58.333 82 78s53.667 29.5 77 29.5c14.667 0 27.5 -3.83301 38.5 -11.5s20.333 -17.5 28 -29.5s14.334 -26.167 20.001 -42.5l17.5 -51.5l8 -44l6 -51l-6 -57
c0 -6.66699 -1.33301 -15.667 -4 -27l-23 -81l-25 -50l-46 -68l87 -15h224v-252h-217z" />
    <glyph glyph-name="pphayinit" unicode="&#x6a6;" horiz-adv-x="610" arabic-form="initial"
d="M227 956l-119 119l119 125l129 -125zM475 942l-122 122l122 126l127 -126zM230 1208l-125 121l120 127l124 -127zM475 1212l-119 122l119 122l128 -122zM434 515c0 4.66699 -2.16602 12.168 -6.49902 22.501s-10 21.166 -17 32.499s-15.333 22 -25 32s-20.5 18 -32.5 24
c-14 -2.66699 -28.667 -13 -44 -31l-11 -11l-11 -18l-4 -26l4 -11l22 -24l48 -8l42 3l13 4c5.33301 0.666992 9.66602 2.16699 12.999 4.5zM608.001 371.001c0 -126 -52.333 -224 -157 -294c-44.667 -27.333 -88.5 -47 -131.5 -59s-86.167 -18 -129.5 -18h-204v252h347
l80 11l32 7l39 17l44 24l-39 92l-66 -43c-16 -6 -30.5 -10.5 -43.5 -13.5s-25.5 -4.5 -37.5 -4.5h-19l-23 4l-24 8l-20 11c-2 1.33301 -17.667 22 -47 62l-7 35c-2 9.33301 -3.66699 16.833 -5 22.5s-2 10.834 -2 15.501v11c0 33.333 5.83301 68.666 17.5 105.999
s26.5 72 44.5 104s38.167 58.5 60.5 79.5s44.5 31.5 66.5 31.5c44.667 0 97.667 -57.667 159 -173c43.333 -99.333 65 -195.333 65 -288z" />
    <glyph glyph-name="pphaymedi" unicode="&#x6a6;" horiz-adv-x="795" arabic-form="medial"
d="M561 515c0 16 -5.83203 32.1689 -17.499 48.502s-30.834 28.166 -57.501 35.499l-13 2c-11.333 0 -26.333 -5.5 -45 -16.5s-36.5 -24.167 -53.5 -39.5s-31.833 -30.833 -44.5 -46.5s-19 -29.167 -19 -40.5c0 -4.66699 4.83301 -12.834 14.5 -24.501
s23.5 -25.167 41.5 -40.5l25 -21l27 -14l23 12l35 22c22 14 38.833 29.667 50.5 47s21.5 34 29.5 50zM704.001 0.00195312c-12.667 0 -26.001 1.33203 -40.001 3.99902l-45 10l-88 39l-126 72l-128 -65l-59 -25l-84 -27l-61 -8h-88v252h179l73 8l35 10l-31 72l-7 57
c0 10 0.666992 21.833 2 35.5s3 27.834 5 42.501l15 56l10 55l29 74l47 79l33 44c27.333 36.667 54 66 80 88s49.667 33 71 33l17 -3c16.667 -5.33301 32.834 -15 48.501 -29s29.5 -32 41.5 -54s21.667 -48 29 -78s11 -63.667 11 -101v-33l-4 -55l-24 -88l-33 -101l-49 -91
l46 -14l45 -7h194v-252h-144zM368 1056l-122 120l122 125l126 -125zM609 1051l-118 117l125 127l123 -127zM368 1315l-124 119l123 126l120 -126zM616 1319l-122 119l122 124l126 -124z" />
    <glyph glyph-name="jjayfina" unicode="&#x684;" horiz-adv-x="1218" arabic-form="final"
d="M536 -494l-113 120l113 123l129 -123zM536 -199l-119 122l118 125l129 -122zM890 -844l-43.0049 -9.99707l-99 -14l-122 -7c-72 0 -137.167 5.33301 -195.5 16s-109.666 28.667 -153.999 54s-81.833 58.666 -112.5 99.999s-54.667 92.333 -72 153l-23 132l-7 59l-3 66
c0 29.333 1.83301 60.333 5.5 93s9.83398 68.667 18.501 108l21 101l40 90c18.667 42 41.334 83.5 68.001 124.5s55.334 81.167 86.001 120.5l44 43l36 29l-43 13l-33 4l-36 -4l-39 -13l-37 -18l-22 -18l-24 -25l-61 -86l9 129c6 30.667 16.167 61.167 30.5 91.5
s33.833 57.666 58.5 81.999s54.834 44.166 90.501 59.499s77.167 23 124.5 23l66 -1l62 -11l75 -10l76 -4c25.333 0.666992 53.333 1.66699 84 3s63.667 5 99 11l98 15l-94 -252l-131 -15l3 -27v-54l9 -14c10.667 -17.333 31.334 -29.666 62.001 -36.999l76 -4h358v-252
h-333c-16 0 -31.667 1.16699 -47 3.5s-31 7.16602 -47 14.499s-32.833 17.666 -50.5 30.999s-36.834 31 -57.501 53l-24 32l-16 54l-7 50l-5 55l5 72c-25.333 -0.666992 -62 -14 -110 -40l-61 -34l-24 -19l-31 -20l-47 -43l-54 -56
c-77.333 -88.667 -124.666 -199.334 -141.999 -332.001l-5 -77c0 -57.333 8.66699 -107.166 26 -149.499s43.333 -80.166 78 -113.499c11.333 -11.333 29.5 -24.333 54.5 -39s55.5 -28.5 91.5 -41.5s76.667 -23.833 122 -32.5s93.666 -13 144.999 -13l20 2l18 16h501v-51z
" />
    <glyph glyph-name="jjayinit" unicode="&#x684;" horiz-adv-x="955" arabic-form="initial"
d="M932 472l-70.001 -235l-85 -6h-57l-63 -6l-47 -11c-14.667 -2 -35.5 -9.16699 -62.5 -21.5l-96.5 -44.5l-199 -98l-88 -35.5c-23.333 -9 -41.666 -14.167 -54.999 -15.5h-109v252h134l66 5h49l52 21l83 28l67 41l-90 52l-35 14l-45 25l-26 10l-20 2
c-35.333 0 -62 -6 -80 -18l-89 -45l-6 26v35l9 36l16 43l30 41c42 74 100.333 111 175 111c20.667 0 60.667 -12.333 120 -37l154 -98l93 -39l98 -18l79 -11zM653.999 -179l-126 -123l-118 120l115 120zM656.999 -480l-132 -121l-112 121l115 123z" />
    <glyph glyph-name="jjayfmedi" unicode="&#x684;" horiz-adv-x="1211" arabic-form="medial"
d="M640 -591l-115 121l115 123l129 -123zM640 -295l-119 123l116 123l129 -122zM1050 0l-50 7.00098l-62 22c-16.667 10.667 -31.334 20.667 -44.001 30s-26 23.333 -40 42l-35 119l-15 82l-97 -28l-101 -36l-85 -43l-261 -154c-80.667 -27.333 -131.334 -41 -152.001 -41
h-108v252h90l114 13c31.333 4.66699 59 10 83 16s45 12.333 63 19l20 4l42 18l63 39l37 28l-16 10l-61 22l-78 26l-63 7c-5.33301 0 -16.166 -2.66699 -32.499 -8s-37.833 -13 -64.5 -23l-53 -31l-7 4l-15 18c0 20.667 4 43.667 12 69s18.5 49.666 31.5 72.999
s27.833 44 44.5 62s33.334 30.333 50.001 37l49 18l47 6c18.667 0 39.667 -3 63 -9s49.333 -15.667 78 -29l195 -78l88 -18h130l139 21l-42 -212l-131 -33l6 -19c4.66699 -10 9.66699 -17 15 -21l16 -11l24 -11l35 -7h257v-252h-179z" />
    <glyph glyph-name="njefina" unicode="&#x683;" horiz-adv-x="1218" arabic-form="final"
d="M455 -340l-127 119l127 127l120 -127zM762 -354l-122 126l122 122l124 -124zM890 -844l-43.0049 -9.99805l-99 -14l-122 -7c-72 0 -137.167 5.33301 -195.5 16s-109.666 28.667 -153.999 54s-81.833 58.666 -112.5 99.999s-54.667 92.333 -72 153l-23 132l-7 59l-3 66
c0 29.333 1.83301 60.333 5.5 93s9.83398 68.667 18.501 108l21 101l40 90c18.667 42 41.334 83.5 68.001 124.5s55.334 81.167 86.001 120.5l44 43l36 29l-43 13l-33 4l-36 -4l-39 -13l-37 -18l-22 -18l-24 -25l-61 -86l9 129c6 30.667 16.167 61.167 30.5 91.5
s33.833 57.666 58.5 81.999s54.834 44.166 90.501 59.499s77.167 23 124.5 23l66 -1l62 -11l75 -10l76 -4c25.333 0.666992 53.333 1.66699 84 3s63.667 5 99 11l98 15l-94 -252l-131 -15l3 -27v-54l9 -14c10.667 -17.333 31.334 -29.666 62.001 -36.999l76 -4h358v-252
h-333c-16 0 -31.667 1.16699 -47 3.5s-31 7.16602 -47 14.499s-32.833 17.666 -50.5 30.999s-36.834 31 -57.501 53l-24 32l-16 54l-7 50l-5 55l5 72c-27.333 -1.33301 -64 -14.666 -110 -39.999l-61 -34l-24 -19l-31 -20l-47 -43l-54 -56
c-77.333 -88.667 -124.666 -199.334 -141.999 -332.001l-5 -77c0 -57.333 8.66699 -107.166 26 -149.499s43.333 -80.166 78 -113.499c11.333 -11.333 29.5 -24.333 54.5 -39s55.5 -28.5 91.5 -41.5s76.667 -23.833 122 -32.5s93.666 -13 144.999 -13h158h381v-33z" />
    <glyph glyph-name="njeinit" unicode="&#x683;" horiz-adv-x="955" arabic-form="initial"
d="M932 472l-70.001 -235l-85 -6h-57l-63 -6l-47 -11c-14.667 -2 -35.5 -9.16699 -62.5 -21.5l-96.5 -44.5l-199 -98l-88 -35.5c-23.333 -9 -41.666 -14.167 -54.999 -15.5h-109v252h134l66 5h49l52 21l83 28l67 41l-90 52l-35 14l-45 25l-26 10l-20 2
c-35.333 0 -62 -6 -80 -18l-89 -45l-6 26v35l9 36l16 43l30 41c42 74 100.333 111 175 111c18.667 0 58.667 -12.333 120 -37l154 -98l93 -39l98 -18l79 -11zM822.999 -220l-123 -126l-120 126l120 121zM513.999 -210l-121 -120l-127 120l127 123z" />
    <glyph glyph-name="njemedi" unicode="&#x683;" horiz-adv-x="1211" arabic-form="medial"
d="M484 -337l-127 119l127 126l122 -126zM792 -351l-123 126l123 120l124 -123zM1050 0l-50 7.00098l-62 22c-16.667 10.667 -31.334 20.667 -44.001 30s-26 23.333 -40 42l-35 119l-15 82l-97 -28l-101 -36l-85 -43l-261 -154c-80.667 -27.333 -131.334 -41 -152.001 -41
h-108v252h90l114 13c31.333 4.66699 59 10 83 16s45 12.333 63 19l20 4l42 18l63 39l37 28l-16 10l-61 22l-78 26l-63 7c-5.33301 0 -16.166 -2.66699 -32.499 -8s-37.833 -13 -64.5 -23l-53 -31l-7 4l-15 18c0 20.667 4 43.667 12 69s18.5 49.666 31.5 72.999
s27.833 44 44.5 62s33.334 30.333 50.001 37l49 18l47 6c18.667 0 39.667 -3 63 -9s49.333 -15.667 78 -29l195 -78l88 -18h130l139 21l-42 -212l-131 -33l6 -19c4.66699 -10 9.66699 -17 15 -21l16 -11l24 -11l35 -7h257v-252h-179z" />
    <glyph glyph-name="tchehfina" unicode="&#x686;" horiz-adv-x="1165" arabic-form="final"
d="M591 -510l-121 121l121 127l127 -127zM466 -273l-127 118l123 124l123 -124zM711 -272l-120 122l120 119l129 -119zM920 -844l-44.001 -10.0029l-99 -14l-119 -7c-53.333 0 -98.166 1.83301 -134.499 5.5s-63.5 9.83398 -81.5 18.501c-77.333 17.333 -144 49 -200 95
s-96 114 -120 204l-24 132l-6 125c0 29.333 1.5 60.333 4.5 93s8.16699 68.667 15.5 108l24 101l15 41l24 49c20.667 42 44 83.5 70 124.5s54.333 81.167 85 120.5l44 43l35 29l-44 13l-30 4l-40 -4l-39 -13l-35 -18l-24 -18l-22 -25l-63 -86l10 129
c8 34 19.833 66.333 35.5 97s35.5 57.834 59.5 81.501s53.5 42.5 88.5 56.5s75.833 21 122.5 21l62 -1l63 -11l76 -10l78 -4c24 0 51.167 0.833008 81.5 2.5s63.5 5.5 99.5 11.5l100 15l-93 -252l-129 -15v-81l7 -14c10 -17.333 30.333 -29.666 61 -36.999l76 -4h272v-252
h-245c-17.333 0 -33.833 1.16699 -49.5 3.5s-31.5 7.16602 -47.5 14.499s-32.667 17.666 -50 30.999s-36 31 -56 53l-20 32l-22 54l-12 105l6 72c-24 -0.666992 -60 -14 -108 -40l-60 -34l-55 -39l-50 -43l-52 -56c-77.333 -90 -125 -200.667 -143 -332l-5 -77
c0 -57.333 8.66699 -107.166 26 -149.499s43 -80.166 77 -113.499c11.333 -11.333 29.333 -24.333 54 -39s55 -28.5 91 -41.5s76.667 -23.833 122 -32.5s94 -13 146 -13l24 2l16 16h499v-51z" />
    <glyph glyph-name="tchehinit" unicode="&#x686;" horiz-adv-x="958" arabic-form="initial"
d="M917 472l-68.999 -234.998l-82 -6h-58l-63 -6l-49 -11c-14.667 -2.66699 -35.834 -9.83398 -63.501 -21.501s-59.167 -26.5 -94.5 -44.5l-200 -98l-87.5 -35.5c-23 -9 -40.5 -14.167 -52.5 -15.5h-115v252h137l115 8l137 46l66 41l-91 52l-81 39l-25 10l-20 2
c-32.667 0 -60.667 -6 -84 -18l-82 -45l-12 26v35l23 63l35 57c22 37.333 48.167 65.166 78.5 83.499s62.5 27.5 96.5 27.5c18.667 0 58.667 -12.333 120 -37l154 -98l93 -39l99 -18l78 -11zM797.001 -198.998l-129 -120l-118 120l118 118zM542.001 -203.998l-118 -118
l-126 118l121 123zM676.001 -436.998l-126 -123l-123 123l123 126z" />
    <glyph glyph-name="tchehmedi" unicode="&#x686;" horiz-adv-x="1211" arabic-form="medial"
d="M599 -540l-122 121l122 126l126 -126zM473 -304l-127 121l122 123l123 -123zM718 -301l-119 122l119 119l129 -119zM1050 0l-50.001 7.00098l-62 22c-16.667 10.667 -31.334 20.667 -44.001 30s-26 23.333 -40 42l-35 119l-15 82l-97 -28l-101 -36l-85 -43l-261 -154
c-84 -27.333 -134.667 -41 -152 -41h-108v252h90l114 13c31.333 4.66699 59 10 83 16s45 12.333 63 19l20 4l42 18l63 39l37 28l-16 10l-61 22l-78 26l-63 7c-5.33301 0 -16.166 -2.66699 -32.499 -8s-37.833 -13 -64.5 -23l-53 -31l-7 4l-15 18c0 20.667 4 43.667 12 69
s18.5 49.666 31.5 72.999s27.833 44 44.5 62s33.334 30.333 50.001 37l49 18l47 6c18.667 0 39.667 -3 63 -9s49.333 -15.667 78 -29l195 -78l88 -18h130l139 21l-42 -212l-131 -33l6 -19c4.66699 -10 9.66699 -17 15 -21l16 -11l24 -11l35 -7h257v-252h-179z" />
    <glyph glyph-name="chhayfina" unicode="&#x687;" horiz-adv-x="1218" arabic-form="final"
d="M463 -512l-121 121l121 124l126 -124zM711 -524l-122 122l122 126l126 -126zM463 -258l-124 119l123 126l123 -126zM711 -253l-120 120l120 120l129 -120zM890 -844l-43.0049 -9.99707l-99 -14l-122 -7c-72 0 -137.167 5.33301 -195.5 16s-109.666 28.667 -153.999 54
s-81.833 58.666 -112.5 99.999s-54.667 92.333 -72 153l-23 132l-7 59l-3 66c0 29.333 1.83301 60.333 5.5 93s9.83398 68.667 18.501 108l21 101l40 90c18.667 42 41.334 83.5 68.001 124.5s55.334 81.167 86.001 120.5l44 43l36 29l-43 13l-33 4l-36 -4l-39 -13l-37 -18
l-22 -18l-24 -25l-61 -86l9 129c6 30.667 16.167 61.167 30.5 91.5s33.833 57.666 58.5 81.999s54.834 44.166 90.501 59.499s77.167 23 124.5 23l66 -1l62 -11l75 -10l76 -4c25.333 0.666992 53.333 1.66699 84 3s63.667 5 99 11l98 15l-94 -252l-131 -15l3 -27v-54l9 -14
c10.667 -17.333 31.334 -29.666 62.001 -36.999l76 -4h358v-252h-333c-16 0 -31.667 1.16699 -47 3.5s-31 7.16602 -47 14.499s-32.833 17.666 -50.5 30.999s-36.834 31 -57.501 53l-24 32l-16 54l-7 50l-5 55l5 72c-25.333 -0.666992 -62 -14 -110 -40l-61 -34l-24 -19
l-31 -20l-47 -43l-54 -56c-77.333 -88.667 -124.666 -199.334 -141.999 -332.001l-5 -77c0 -57.333 8.66699 -107.166 26 -149.499s43.333 -80.166 78 -113.499c11.333 -11.333 29.5 -24.333 54.5 -39s55.5 -28.5 91.5 -41.5s76.667 -23.833 122 -32.5
s93.666 -13 144.999 -13l20 2l117 -2l402 18v-51z" />
    <glyph glyph-name="chhayinit" unicode="&#x687;" horiz-adv-x="955" arabic-form="initial"
d="M932 472l-70.001 -235l-85 -6h-57l-63 -6l-47 -11c-14.667 -2 -35.5 -9.16699 -62.5 -21.5l-96.5 -44.5l-199 -98l-88 -35.5c-23.333 -9 -41.666 -14.167 -54.999 -15.5h-109v252h134l66 5h49l52 21l83 28l67 41l-90 52l-35 14l-45 25l-26 10l-20 2
c-35.333 0 -62 -6 -80 -18l-89 -45l-6 26v35l9 36l16 43l30 41c42 74 100.333 111 175 111c17.333 0 57.333 -12.333 120 -37l154 -98l93 -39l98 -18l79 -11zM776.999 -225l-126 -121l-120 121l120 117zM524.999 -231l-123 -118l-123 118l120 123zM776.999 -494l-126 -121
l-123 121l123 129zM527.999 -483l-126 -120l-121 120l121 123z" />
    <glyph glyph-name="chhaymedi" unicode="&#x687;" horiz-adv-x="1211" arabic-form="medial"
d="M486 -580l-121 122l121 125l127 -125zM734 -591l-121 122l121 126l126 -126zM486 -323l-123 117l121 128l124 -128zM734 -319l-119 119l119 122l128 -122zM1050 0l-50 7.00098l-62 22c-16.667 10.667 -31.334 20.667 -44.001 30s-26 23.333 -40 42l-35 119l-15 82
l-97 -28l-101 -36l-85 -43l-261 -154c-80.667 -27.333 -131.334 -41 -152.001 -41h-108v252h90l114 13c31.333 4.66699 59 10 83 16s45 12.333 63 19l20 4l42 18l63 39l37 28l-16 10l-61 22l-78 26l-63 7c-5.33301 0 -16.166 -2.66699 -32.499 -8s-37.833 -13 -64.5 -23
l-53 -31l-7 4l-15 18c0 20.667 4 43.667 12 69s18.5 49.666 31.5 72.999s27.833 44 44.5 62s33.334 30.333 50.001 37l49 18l47 6c18.667 0 39.667 -3 63 -9s49.333 -15.667 78 -29l195 -78l88 -18h130l139 21l-42 -212l-131 -33l6 -19c4.66699 -10 9.66699 -17 15 -21
l16 -11l24 -11l35 -7h257v-252h-179z" />
    <glyph glyph-name="ddhalfina" unicode="&#x68d;" horiz-adv-x="834" arabic-form="final"
d="M860 -1l-94 0.00585938c-15.333 0 -29 5.33301 -41 16l-49 47c-4.66699 9.33301 -12.334 23.666 -23.001 42.999s-24 47 -40 83l-17 37l-14 -32c-0.666992 -4.66699 -1.5 -8.33398 -2.5 -11.001s-3.5 -6.83398 -7.5 -12.501s-10.5 -14.167 -19.5 -25.5l-38.5 -47
c-67.333 -73.333 -143 -110 -227 -110c-49.333 0 -89.166 1.66699 -119.499 5s-54 8.33301 -71 15s-28.167 15.167 -33.5 25.5s-8 21.833 -8 34.5v247l19 5c4.66699 -6.66699 10.334 -13.834 17.001 -21.501s14.667 -16.167 24 -25.5l54 -33l26 -5l35 -3
c9.33301 0 42.666 5.66699 99.999 17l69 21c37.333 6.66699 65 16 83 28l37 17c6 3.33301 12.167 7.66602 18.5 12.999s13.5 10.666 21.5 15.999l-75 438l55 186l22 -2l124 -548l23 -80l20 -40c18 -30.667 45 -46 81 -46h51v-252zM568 -244.994l-133 123l-260 -255l-134 132
l128 126l264 -260z" />
    <glyph glyph-name="dhalfina" unicode="&#x68c;" horiz-adv-x="812" arabic-form="final"
d="M837 -1l-95.001 -0.000976562c-14.667 0 -27.667 5.33301 -39 16l-24 16l-11 11l-14 20c-6.66699 8 -14.834 22.333 -24.501 43s-23.5 48.334 -41.5 83.001l-14 37l-15 -32c-2 -5.33301 -4.83301 -10.333 -8.5 -15s-7.5 -10 -11.5 -16c0 -6 -4.66699 -14 -14 -24l-38 -41
c-33.333 -36.667 -68.166 -64.167 -104.499 -82.5s-77.166 -27.5 -122.499 -27.5c-48 0 -87 1.5 -117 4.5s-53.167 7.5 -69.5 13.5s-27.333 14.167 -33 24.5s-8.5 22.833 -8.5 37.5v247l23 5c0.666992 -9.33301 13 -25 37 -47l51 -33l60 -8c11.333 0 46 5.66699 104 17
l68 21c37.333 5.33301 65.333 14.666 84 27.999l37 17c6 4.66699 12.333 9.33398 19 14.001l21 15l-74 438l55 186l19 -2l137 -594l12 -34l23 -40c12.667 -30.667 37.667 -46 75 -46h54v-252zM593.999 1082l-264 265l-130 -133l136 -129l260 259l132 -130z" />
    <glyph glyph-name="ddaldedarfina" unicode="&#x68e;" horiz-adv-x="839" arabic-form="final"
d="M771 0c-14 0 -27.335 5.00098 -40.002 15.001l-23 14l-11 12l-15 22c-6.66699 8.66699 -15.667 23.167 -27 43.5s-24.666 47.5 -39.999 81.5l-13 37l-14 -30l-5 -16.5c-1.33301 -4.33301 -4.33301 -9.5 -9 -15.5s-11.5 -14.167 -20.5 -24.5l-36.5 -41.5
c-64.667 -73.333 -141 -110 -229 -110c-49.333 0 -88.833 1.66699 -118.5 5s-52.5 8.5 -68.5 15.5s-26.833 15.5 -32.5 25.5s-8.5 22 -8.5 36v246l21 6c2.66699 -6 7.16699 -13.167 13.5 -21.5s14.833 -17.5 25.5 -27.5l52 -31l28 -9l32 -1c6 0 17.333 1.66699 34 5
s39.667 7.66602 69 12.999l70 18c34 6.66699 61.333 17 82 31l37 17c14.667 6.66699 28 16 40 28l-74 438l55 186l19 -2l139 -594l11 -34l21 -39c14.667 -30.667 40.334 -46 77.001 -46h53v-252h-94zM489.998 1084l-127 119l127 126l119 -126zM328.998 1308l-129 120
l129 126l119 -126zM649.998 1285l-126 122l126 123l121 -123z" />
    <glyph glyph-name="ddalfina" unicode="&#x688;" horiz-adv-x="860" arabic-form="final"
d="M875 0l-95 0.00195312c-15.333 0 -30 5.66699 -44 17l-19 15l-25 31c-8 8.66699 -16.667 22.667 -26 42l-42 84l-14 38l-14 -32c-0.666992 -6 -1.66699 -10.667 -3 -14s-4.16602 -8 -8.49902 -14s-11.166 -14.167 -20.499 -24.5l-39 -44.5
c-63.333 -72.667 -139 -109 -227 -109c-48.667 0 -87.834 1.33301 -117.501 4s-53 7 -70 13s-28.167 14.167 -33.5 24.5s-8 23.166 -8 38.499v246l19 6c4.66699 -6.66699 10.5 -14 17.5 -22l23.5 -26l52 -32l60 -9c11.333 0 45.666 5.66699 102.999 17l69 21
c38 7.33301 65.667 16.666 83 27.999l37 17c6 4 12.167 8.5 18.5 13.5s13.833 10.167 22.5 15.5l-78 439l57 186l21 -3l126 -547l22 -80l20 -41c14 -30.667 40 -46 78 -46h55v-252zM381 -275.998l-123 -123l-126 123l126 125z" />
    <glyph glyph-name="rreyfina" unicode="&#x691;" horiz-adv-x="881" arabic-form="final"
d="M903 -1l-126 0.00195312l-32 -101c-12 -34 -26.167 -66.333 -42.5 -97s-33.833 -59 -52.5 -85s-38.334 -49.833 -59.001 -71.5s-40.667 -39.5 -60 -53.5l-58 -28c-14 -11.333 -33 -19.333 -57 -24l-38 3c-11.333 0 -17 1 -17 3l-120 35
c-23.333 10 -43.666 19.667 -60.999 29s-33.5 19.833 -48.5 31.5s-30.167 26 -45.5 43s-32.333 38.167 -51 63.5l94 -24c24 -6.66699 46.333 -11.167 67 -13.5s39 -3.5 55 -3.5c12.667 0 23.5 0.666992 32.5 2s20.5 3.33301 34.5 6l40 9l26 12
c14 1.33301 31 10.666 51 27.999l33 17l25 24l63 49c50 33.333 92 83.666 126 150.999l-102 156l51 183l26 -38l32 -25l47 -21l66 -8h101v-252zM848 798.002l-128 -113l-118 117l118 123zM594 795.002l-118 -117l-126 117l120 130zM846 532.002l-126 -120l-121 120l121 123z
M599 543.002l-126 -120l-123 120l123 123z" />
    <glyph glyph-name="kkhayfina" unicode="&#x6a9;" horiz-adv-x="2097" arabic-form="final"
d="M970 252l136.998 0.00195312c26.667 0 56.334 2.33301 89.001 7s63 12.667 91 24s51.5 25.833 70.5 43.5s28.5 39.5 28.5 65.5c0 18 -7.5 37 -22.5 57s-36.833 42 -65.5 66l-179 130c-27.333 20.667 -48 40.167 -62 58.5s-24.667 35.166 -32 50.499
s-12.166 29 -14.499 41s-5.16602 22 -8.49902 30v53l9 75l11 47c6.66699 21.333 29.167 49 67.5 83s95.5 73.333 171.5 118l104 60l287 146l150.5 68.5c35.667 17 60.167 27.167 73.5 30.5l-39 -204l-482 -249l-159 -90l-115 -77l260 -151
c30 -19.333 67.167 -44.666 111.5 -75.999s97.833 -72.333 160.5 -123l126 -101l126 -96c82.667 -58 141 -87 175 -87h102v-252h-129c-22 0 -56.833 15.667 -104.5 47s-106.5 83.333 -176.5 156l-234 235v-84l-11 -66c-8.66699 -38.667 -24.667 -76.334 -48 -113.001
s-57.333 -69.334 -102 -98.001l-94 -46l-126 -31h-172c-6.66699 -4 -14.667 -6 -24 -6l-70 -7l-36 5h-174l-88 12c-128.667 18 -228.334 42.667 -299.001 74s-113.667 74 -129 128l-13 31l-7 33l-4 65c0 31.333 5.83301 65 17.5 101s26.5 69 44.5 99s37.833 55 59.5 75
s42.167 30 61.5 30h11l-50 -121l-18 -58l-6 -49v-27l6 -24l29 -35l81 -33l59 -14l93 -16l152 -14h261l39 4h29v-1z" />
    <glyph glyph-name="kkhayinit" unicode="&#x6a9;" horiz-adv-x="904" arabic-form="initial"
d="M878 1197c-12 0 -33.501 -6.83203 -64.501 -20.499l-133.5 -60.5l-100 -48l-90 -46l-74.5 -39l-62.5 -35l-144 -102l89 -47c107.333 -64 183.833 -128.167 229.5 -192.5s68.5 -133.166 68.5 -206.499l-2 -61l-7 -25c-23.333 -107.333 -69.666 -186.5 -138.999 -237.5
s-156 -76.5 -260 -76.5h-188v252h195c37.333 0 72.666 2.83301 105.999 8.5s62.833 13.167 88.5 22.5s46 20.333 61 33s22.5 25.334 22.5 38.001c0 27.333 -8.16699 53.166 -24.5 77.499s-40.166 48.5 -71.499 72.5l-189 113c-71.333 50.667 -107 111.334 -107 182.001
c0 23.333 3 46.666 9 69.999s18 48.166 36 74.499s42.833 54.333 74.5 84s73.5 62.834 125.5 99.501c43.333 27.333 95.333 58.166 156 92.499s132 72.5 214 114.5l148 62c16.667 5.33301 31.667 9.66602 45 12.999s24 5 32 5z" />
    <glyph glyph-name="kkhaymedi" unicode="&#x6a9;" horiz-adv-x="1182" arabic-form="medial"
d="M1077 0c-26.667 0 -54.6699 8.33496 -84.0029 25.002s-57.5 36.5 -84.5 59.5s-51 45.667 -72 68s-35.833 39.166 -44.5 50.499l-229 237v14l-3 -19v-71l-4 -42l-9 -27c-4.66699 -24 -10.167 -45.5 -16.5 -64.5s-15.166 -36.667 -26.499 -53s-25.333 -32.5 -42 -48.5
s-37.667 -33.333 -63 -52l-97 -46l-43 -13l-80 -18h-179v252h171c26.667 0 56.167 2.33301 88.5 7s62.333 12.667 90 24s50.834 25.833 69.501 43.5s28 39.5 28 65.5c0 33.333 -28.667 74.333 -86 123l-179 130l-47.5 41.5c-15 13.667 -27.5 28.5 -37.5 44.5
c-6.66699 9.33301 -12.167 19.333 -16.5 30s-7.66602 20.5 -9.99902 29.5s-4.16602 16.667 -5.49902 23s-2.33301 10.166 -3 11.499v53l4 35l19 87c4.66699 23.333 27.167 51.5 67.5 84.5s97.166 71.833 170.499 116.5l108 60l283 146l224 99l-39 -204l-564 -293l-79 -46
l-113 -77l257 -151l86 -55l189 -144l159 -129l90 -68c83.333 -58 142 -87 176 -87h104v-252h-127z" />
    <glyph glyph-name="gaffina" unicode="&#x6af;" horiz-adv-x="1973" arabic-form="final"
d="M1893 0c-14 0.666992 -30.8311 4.33203 -50.498 10.999s-40.834 18.334 -63.501 35.001l-36 27l-41 35l-43 42c-16 16 -32.667 33.667 -50 53l-229 235l-4 -3v-71l-4 -42l-7 -27c-4.66699 -23.333 -10.334 -44.333 -17.001 -63s-15.5 -36.167 -26.5 -52.5
s-25 -32.666 -42 -48.999s-38.5 -34.166 -64.5 -53.499l-96 -46l-42 -13l-82 -18h-481c-34.667 0 -71.667 4.33301 -111 13l-38 11l-135 60c-43.333 18.667 -75.666 48 -96.999 88s-32 84 -32 132c0 33.333 6.33301 71.666 19 114.999s28.5 84.666 47.5 123.999
s39 72.5 60 99.5s39.833 40.5 56.5 40.5l-29 -129l-17 -116l3 -33c0 -6 0.5 -11 1.5 -15s1.83301 -8 2.5 -12l27 -39l50 -41l62 -33l65 -13h538c26 0 55.167 2.33301 87.5 7s62.5 12.667 90.5 24s51.333 25.833 70 43.5s28 39.5 28 65.5c0 32.667 -29.333 73.667 -88 123
l-180 130c-70 56 -109 111.667 -117 167v29c0 20 1.83301 43 5.5 69s9.83398 56 18.501 90c10.667 37.333 90 104.333 238 201l103 60l287 146l151.5 68.5c36.333 17 61.166 27.167 74.499 30.5l-42 -208c-4 0 -15.167 -4.66699 -33.5 -14l-76.5 -39l-457 -238l-75 -44
l-116 -77l262 -151l112 -78l158 -121l252 -197c83.333 -58 142.666 -87 177.999 -87h102v-252h-127zM1569 1561l-194.5 -110.999l-185.5 -106.5l-183.5 -106l-190.5 -110.5c-12 -8.66699 -19.5 -11 -22.5 -7s0.833008 11.333 11.5 22c6 10.667 16 24.167 30 40.5l44.5 51
l43 48c13 14.333 22.167 23.833 27.5 28.5l374.5 212.5l366.5 202.5c8 4.66699 13.167 5.16699 15.5 1.5s1.16602 -8.5 -3.50098 -14.5c-8 -11.333 -16.667 -22.333 -26 -33s-19.666 -21.834 -30.999 -33.501l-35 -37.5z" />
    <glyph glyph-name="gafinit" unicode="&#x6af;" horiz-adv-x="834" arabic-form="initial"
d="M865 1197c-23.333 0 -88.666 -26.9961 -195.999 -80.9961l-192 -94c-26.667 -13.333 -51.5 -26.5 -74.5 -39.5l-63.5 -34.5l-144 -102l92 -47c93.333 -52.667 165.833 -113.334 217.5 -182.001s77.5 -141 77.5 -217l-2 -61l-6 -25
c-27.333 -107.333 -73.833 -186.5 -139.5 -237.5s-152.167 -76.5 -259.5 -76.5h-186v252h193c30.667 0 62.334 2.33301 95.001 7s62.5 11.5 89.5 20.5s49.167 19.667 66.5 32s26 26.5 26 42.5c0 52.667 -32 102.667 -96 150l-188 113c-72.667 51.333 -109 112 -109 182
c0 25.333 3.16699 49.666 9.5 72.999s18.666 47.833 36.999 73.5s43.666 53.167 75.999 82.5s73.5 62.333 123.5 99c42 27.333 93.333 58.166 154 92.499s132 72.5 214 114.5l150 62c18 5.33301 33.333 9.66602 46 12.999s23.667 5 33 5zM757 1561l-194.5 -110.999
l-185.5 -106.5l-183.5 -106l-190.5 -110.5c-12 -8.66699 -19.5 -11 -22.5 -7s0.833008 11.333 11.5 22c6 10.667 16 24.167 30 40.5l44.5 51l43 48c13 14.333 22.167 23.833 27.5 28.5l374.5 212.5l366.5 202.5c8 4.66699 13.167 5.16699 15.5 1.5
s1.16602 -8.5 -3.50098 -14.5c-8 -11.333 -16.667 -22.333 -26 -33s-19.666 -21.834 -30.999 -33.501l-35 -37.5z" />
    <glyph glyph-name="gafmedi" unicode="&#x6af;" horiz-adv-x="1138" arabic-form="medial"
d="M1064 -1c-26 0 -53.6689 8.5 -83.002 25.5s-57.833 37 -85.5 60s-52 45.667 -73 68s-36.167 38.833 -45.5 49.5l-190 197l-35 39v14l-5 -18v-71l-4 -42l-7 -27c-4.66699 -24 -10.5 -45.667 -17.5 -65s-16 -37.333 -27 -54s-25.167 -33 -42.5 -49
s-38.666 -32.667 -63.999 -50l-94 -47l-43 -12l-83 -18h-173v252h166c26 0 55.167 2.33301 87.5 7s62.5 12.5 90.5 23.5s51.5 25.333 70.5 43s28.5 39.834 28.5 66.501c0 33.333 -29.667 74.333 -89 123l-178 130c-42.667 36.667 -70.334 65 -83.001 85
c-5.33301 9.33301 -10.166 19.5 -14.499 30.5s-7.83301 21.167 -10.5 30.5s-4.66699 17 -6 23s-2.66602 9.33301 -3.99902 10v53l9 76l5 22l10 24c6.66699 21.333 28.167 49.166 64.5 83.499s94.166 73.833 173.499 118.5l105 60l286 146l221 99l-36 -204l-485 -250
l-158 -89l-116 -77l260 -151l86 -55l189 -144l159 -129l90 -69c82.667 -57.333 141.334 -86 176.001 -86h104v-252h-129zM747.998 1616l-195.5 -111.998l-185.5 -106.5l-183.5 -105.5l-190.5 -110c-12 -8.66699 -19.5 -11.167 -22.5 -7.5s0.833008 11.167 11.5 22.5
c6.66699 10 17 23.167 31 39.5l44 51.5l42.5 48.5c13 14.333 22.167 23.833 27.5 28.5l375 212l366 202c8.66699 4.66699 14.167 5.16699 16.5 1.5s1.16602 -8.16699 -3.50098 -13.5c-8.66699 -11.333 -17.667 -22.333 -27 -33s-19.666 -21.834 -30.999 -33.501
s-23 -24.334 -35 -38.001z" />
    <glyph glyph-name="ggayfina" unicode="&#x6b3;" horiz-adv-x="1973" arabic-form="final"
d="M1466 -584l-122 122l122 122l126 -122zM1466 -300l-125 122l123 123l124 -120zM1893 0c-14 0.666992 -30.8311 4.33203 -50.498 10.999s-40.834 18.334 -63.501 35.001l-36 27l-41 35l-43 42c-16 16 -32.667 33.667 -50 53l-229 235l-4 -3v-71l-4 -42l-7 -27
c-4.66699 -23.333 -10.334 -44.333 -17.001 -63s-15.5 -36.167 -26.5 -52.5s-25 -32.666 -42 -48.999s-38.5 -34.166 -64.5 -53.499l-96 -46l-42 -13l-82 -18h-481c-34.667 0 -71.667 4.33301 -111 13l-38 11l-135 60c-43.333 18.667 -75.666 48 -96.999 88s-32 84 -32 132
c0 33.333 6.33301 71.666 19 114.999s28.5 84.666 47.5 123.999s39 72.5 60 99.5s39.833 40.5 56.5 40.5l-29 -129l-17 -116l3 -33c0 -6 0.5 -11 1.5 -15s1.83301 -8 2.5 -12l27 -39l50 -41l62 -33l65 -13h538c26 0 55.167 2.33301 87.5 7s62.5 12.667 90.5 24
s51.333 25.833 70 43.5s28 39.5 28 65.5c0 32.667 -29.333 73.667 -88 123l-180 130c-70 56 -109 111.667 -117 167v29c0 20 1.83301 43 5.5 69s9.83398 56 18.501 90c10.667 37.333 90 104.333 238 201l103 60l287 146l151.5 68.5c36.333 17 61.166 27.167 74.499 30.5
l-42 -208c-4 0 -15.167 -4.66699 -33.5 -14l-76.5 -39l-457 -238l-75 -44l-116 -77l262 -151l112 -78l158 -121l252 -197c83.333 -58 142.666 -87 177.999 -87h102v-252h-127zM1569 1561l-194.5 -110.999l-185.5 -106.5l-183.5 -106l-190.5 -110.5
c-12 -8.66699 -19.5 -11 -22.5 -7s0.833008 11.333 11.5 22c6 10.667 16 24.167 30 40.5l44.5 51l43 48c13 14.333 22.167 23.833 27.5 28.5l374.5 212.5l366.5 202.5c8 4.66699 13.167 5.16699 15.5 1.5s1.16602 -8.5 -3.50098 -14.5c-8 -11.333 -16.667 -22.333 -26 -33
s-19.666 -21.834 -30.999 -33.501l-35 -37.5z" />
    <glyph glyph-name="ggayinit" unicode="&#x6b3;" horiz-adv-x="834" arabic-form="initial"
d="M342 -718l-121 120l121 123l126 -123zM342 -434l-124 122l121 123l124 -122zM865 1197c-14.667 0 -36.998 -6.8291 -66.998 -20.4961l-129 -60.5l-192 -94c-26.667 -13.333 -51.5 -26.5 -74.5 -39.5l-63.5 -34.5l-144 -102l92 -47
c93.333 -52.667 165.833 -113.334 217.5 -182.001s77.5 -141 77.5 -217l-2 -61l-6 -25c-27.333 -107.333 -73.833 -186.5 -139.5 -237.5s-152.167 -76.5 -259.5 -76.5h-186v252h193c36.667 0 71.5 2.5 104.5 7.5s62.333 12.167 88 21.5s46.167 20.333 61.5 33s23 26 23 40
c0 52.667 -32 102.667 -96 150l-188 113c-72.667 51.333 -109 112 -109 182c0 25.333 3.16699 49.666 9.5 72.999s18.666 47.833 36.999 73.5s43.666 53.167 75.999 82.5s73.5 62.333 123.5 99c42 27.333 93.333 58.166 154 92.499s132 72.5 214 114.5l150 62
c18 5.33301 33.333 9.66602 46 12.999s23.667 5 33 5zM739.002 1537l-195.498 -111.001l-185.5 -106.5l-183 -105.5l-190 -111c-12.667 -8 -20.334 -10.167 -23.001 -6.5s1 11.167 11 22.5c6.66699 10 17 23.167 31 39.5l44 51l43 48.5
c13.333 14.667 22.666 24.334 27.999 29.001l374.5 212l366.5 202c8 4.66699 13.167 5.16699 15.5 1.5s1.16602 -8.5 -3.50098 -14.5c-8 -10.667 -16.667 -21.5 -26 -32.5s-19.666 -22.333 -30.999 -34l-35 -37.5z" />
    <glyph glyph-name="ggaymedi" unicode="&#x6b3;" horiz-adv-x="1138" arabic-form="medial"
d="M630 -528l-120 121l120 123l127 -123zM630 -244l-123 122l122 123l124 -121zM1064 0c-26 0 -53.667 8.66602 -83 25.999s-57.833 37.333 -85.5 60s-52 45.334 -73 68.001l-45.5 49l-190 197l-35 40l-5 -5v-71l-4 -42l-7 -27c-4.66699 -24 -10.5 -45.5 -17.5 -64.5
s-16 -37 -27 -54s-25.167 -33.333 -42.5 -49s-38.666 -32.5 -63.999 -50.5l-94 -46l-43 -13l-83 -18h-173v252h166c26 0 55.167 2.33301 87.5 7s62.5 12.667 90.5 24s51.5 25.833 70.5 43.5s28.5 39.5 28.5 65.5c0 33.333 -29.667 74.333 -89 123l-178 130
c-30.667 25.333 -53 48 -67 68s-24 37.5 -30 52.5s-9.83301 27.5 -11.5 37.5s-4.83398 17.333 -9.50098 22v53l9 75l5 23l10 24c6.66699 21.333 28.167 49 64.5 83s94.166 73.333 173.499 118l105 60l286 146l221 99l-36 -204l-485 -249l-158 -90l-116 -77l260 -151l86 -55
l189 -144l159 -129l90 -68c82.667 -58 141.334 -87 176.001 -87h104v-252h-129zM748 1595l-195.5 -111.998l-185.5 -106.5l-183.5 -105.5l-190.5 -110c-12 -8.66699 -19.5 -11.167 -22.5 -7.5s0.833008 11.167 11.5 22.5c6.66699 10 17 23.167 31 39.5l44 51.5l42.5 48.5
c13 14.333 22.167 23.833 27.5 28.5l375 212l366 202c8.66699 4.66699 14.167 5.16699 16.5 1.5s1.16602 -8.16699 -3.50098 -13.5c-8.66699 -11.333 -17.667 -22.333 -27 -33s-19.666 -21.834 -30.999 -33.501s-23 -24.334 -35 -38.001z" />
    <glyph glyph-name="ngefina" unicode="&#x6b1;" horiz-adv-x="1973" arabic-form="final"
d="M1022 1575l-157 71l76 159l158 -73zM1257 1665l-157 72l75 154l161 -68zM1893 0c-14 0.666992 -30.8311 4.33203 -50.498 10.999s-40.834 18.334 -63.501 35.001l-36 27l-41 35l-43 42c-16 16 -32.667 33.667 -50 53l-229 235l-4 -3v-71l-4 -42l-7 -27
c-4.66699 -23.333 -10.334 -44.333 -17.001 -63s-15.5 -36.167 -26.5 -52.5s-25 -32.666 -42 -48.999s-38.5 -34.166 -64.5 -53.499l-96 -46l-42 -13l-82 -18h-481c-34.667 0 -71.667 4.33301 -111 13l-38 11l-135 60c-43.333 18.667 -75.666 48 -96.999 88s-32 84 -32 132
c0 33.333 6.33301 71.666 19 114.999s28.5 84.666 47.5 123.999s39 72.5 60 99.5s39.833 40.5 56.5 40.5l-29 -129l-17 -116l3 -33c0 -6 0.5 -11 1.5 -15s1.83301 -8 2.5 -12l27 -39l50 -41l62 -33l65 -13h538c26 0 55.167 2.33301 87.5 7s62.5 12.667 90.5 24
s51.333 25.833 70 43.5s28 39.5 28 65.5c0 32.667 -29.333 73.667 -88 123l-180 130c-70 56 -109 111.667 -117 167v29c0 20 1.83301 43 5.5 69s9.83398 56 18.501 90c10.667 37.333 90 104.333 238 201l103 60l287 146l151.5 68.5c36.333 17 61.166 27.167 74.499 30.5
l-42 -208c-4 0 -15.167 -4.66699 -33.5 -14l-76.5 -39l-457 -238l-75 -44l-116 -77l262 -151l112 -78l158 -121l252 -197c83.333 -58 142.666 -87 177.999 -87h102v-252h-127zM1569 1561l41 46.999l35 37.5c11.333 11.667 21.666 22.834 30.999 33.501s18 21.667 26 33
c4.66699 6 5.83398 10.833 3.50098 14.5s-7.5 3.16699 -15.5 -1.5l-366.5 -202.5l-374.5 -212.5c-5.33301 -4.66699 -14.5 -14.167 -27.5 -28.5l-43 -48l-44.5 -51c-14 -16.333 -24 -29.833 -30 -40.5c-10.667 -10.667 -14.5 -18 -11.5 -22s10.5 -1.66699 22.5 7
l190.5 110.5l183.5 106l185.5 106.5z" />
    <glyph glyph-name="ngeinit" unicode="&#x6b1;" horiz-adv-x="834" arabic-form="initial"
d="M218 1469l-159 72l77 157l158 -73zM451 1558l-156 74l75 154l159 -68zM865 1197c-14.667 0 -36.998 -6.8291 -66.998 -20.4961l-129 -60.5l-192 -94c-26.667 -13.333 -51.5 -26.5 -74.5 -39.5l-63.5 -34.5l-144 -102l92 -47
c93.333 -52.667 165.833 -113.334 217.5 -182.001s77.5 -141 77.5 -217l-2 -61l-6 -25c-27.333 -107.333 -73.833 -186.5 -139.5 -237.5s-152.167 -76.5 -259.5 -76.5h-186v252h193c36.667 0 71.5 2.5 104.5 7.5s62.333 12.167 88 21.5s46.167 20.333 61.5 33s23 26 23 40
c0 52.667 -32 102.667 -96 150l-188 113c-72.667 51.333 -109 112 -109 182c0 25.333 3.16699 49.666 9.5 72.999s18.666 47.833 36.999 73.5s43.666 53.167 75.999 82.5s73.5 62.333 123.5 99c42 27.333 93.333 58.166 154 92.499s132 72.5 214 114.5l150 62
c18 5.33301 33.333 9.66602 46 12.999s23.667 5 33 5zM715.002 1490l41 46.498c12 13.667 23.667 26.334 35 38.001s21.666 22.834 30.999 33.501s18 21.667 26 33c4.66699 5.33301 5.83398 9.83301 3.50098 13.5s-7.5 3.16699 -15.5 -1.5l-366.5 -202l-374.5 -212
c-5.33301 -4.66699 -14.5 -14.167 -27.5 -28.5l-43 -48.5l-44.5 -51.5c-14 -16.333 -24 -29.5 -30 -39.5c-10.667 -11.333 -14.5 -18.833 -11.5 -22.5s10.5 -1.16699 22.5 7.5l190.5 110l183.5 105.5l185.5 106.5z" />
    <glyph glyph-name="ngemedi" unicode="&#x6b1;" horiz-adv-x="1138" arabic-form="medial"
d="M276 1522l-160 71l77 158l157 -72zM510 1611l-157 75l74 152l160 -67zM1064 0c-26 0 -53.667 8.66602 -83 25.999s-57.833 37.333 -85.5 60s-52 45.334 -73 68.001l-45.5 49l-190 197l-35 40l-5 -5v-71l-4 -42l-7 -27c-4.66699 -24 -10.5 -45.5 -17.5 -64.5
s-16 -37 -27 -54s-25.167 -33.333 -42.5 -49s-38.666 -32.5 -63.999 -50.5l-94 -46l-43 -13l-83 -18h-173v252h166c26 0 55.167 2.33301 87.5 7s62.5 12.667 90.5 24s51.5 25.833 70.5 43.5s28.5 39.5 28.5 65.5c0 33.333 -29.667 74.333 -89 123l-178 130
c-30.667 25.333 -53 48 -67 68s-24 37.5 -30 52.5s-9.83301 27.5 -11.5 37.5s-4.83398 17.333 -9.50098 22v53l9 75l5 23l10 24c6.66699 21.333 28.167 49 64.5 83s94.166 73.333 173.499 118l105 60l286 146l221 99l-36 -204l-485 -249l-158 -90l-116 -77l260 -151l86 -55
l189 -144l159 -129l90 -68c82.667 -58 141.334 -87 176.001 -87h104v-252h-129zM739 1561l40.998 46.999l35 37.5c11.333 11.667 21.666 22.834 30.999 33.501s18 21.667 26 33c4.66699 6 5.83398 10.833 3.50098 14.5s-7.5 3.16699 -15.5 -1.5l-366.5 -202.5l-374.5 -212.5
c-5.33301 -4.66699 -14.666 -14.167 -27.999 -28.5l-43 -48l-44 -51c-14 -16.333 -24.333 -29.833 -31 -40.5c-10 -10.667 -13.667 -18 -11 -22s10.334 -1.66699 23.001 7l190 110.5l183 106l185.5 106.5z" />
    <glyph glyph-name="nroonrfina" unicode="&#x6bb;" horiz-adv-x="1110" arabic-form="final"
d="M683 567l-19.001 46.001l-17 21l-23 18l-21 5c-9.33301 0 -17.666 -0.833008 -24.999 -2.5s-15 -4.33398 -23 -8.00098s-16.667 -8.5 -26 -14.5s-20 -13.667 -32 -23l-52 -46l-73 -72l-11 -14l35 -7l86 -1c26 0 51.167 1.16699 75.5 3.5s46 6.83301 65 13.5
s34.333 14.667 46 24s17.5 21 17.5 35zM933.999 0.000976562l-0.00390625 -19.999l-10 -77l-11 -36c-4 -11.333 -10.333 -28.333 -19 -51s-21.167 -47.667 -37.5 -75s-37.333 -55.333 -63 -84s-56.834 -54.667 -93.501 -78s-79.5 -42.5 -128.5 -57.5
s-105.167 -22.5 -168.5 -22.5h-42l-42 4c-12.667 0 -27 1.83301 -43 5.5s-31.667 8.83398 -47 15.501s-30 14 -44 22s-25.333 15.667 -34 23c-10 8 -20.333 20.167 -31 36.5s-20.667 35.333 -30 57s-16.833 45.834 -22.5 72.501s-8.5 54 -8.5 82
c0 44.667 3.5 89.334 10.5 134.001s19.833 91 38.5 139c28.667 87.333 52.334 134.666 71.001 141.999l11 -7l9 -23l-23 -236c0 -7.33301 0.833008 -17 2.5 -29l5 -37c1.66699 -12.667 4 -24.334 7 -35.001s5.83301 -18.334 8.5 -23.001l26 -34
c6 -7.33301 17.333 -15 34 -23s38 -16.667 64 -26l69 -15l43 -4l93 1c12 0 21.333 2 28 6l70 12l28 11c64 20.667 122.667 56.334 176 107.001l2 32c0 22.667 -2 47.5 -6 74.5s-10.167 54.5 -18.5 82.5s-19.666 55.5 -33.999 82.5s-32.166 51.833 -53.499 74.5l106 224
l25 -84c2.66699 -10.667 9.83398 -21.834 21.501 -33.501s27.834 -22.834 48.501 -33.501s45.5 -20 74.5 -28s62.5 -13.333 100.5 -16h31v-252h-193zM769.995 575.002c0 -26.667 -9.83203 -52.167 -29.499 -76.5s-47.667 -45.833 -84 -64.5s-80.333 -33.667 -132 -45
s-109.834 -17 -174.501 -17h-56l-38 5c-31.333 0 -67.666 20.333 -108.999 61l-55 65l13 16c4.66699 -4.66699 37.667 -10 99 -16l80 -5l32 26c23.333 17.333 39.666 34.333 48.999 51l2 391l-21 25l-4 16c0 24 15.333 50 46 78l39 18l1 -57
c2 -4.66699 3.5 -8.66699 4.5 -12s1.83301 -6 2.5 -8l42 -28l-39 -92l-15 11v-286l63 58c67.333 50 122 75 164 75c21.333 0 40.333 -7 57 -21l36 -50l16 -50l7 -33z" />
    <glyph glyph-name="nroonrinit" unicode="&#x6bb;" horiz-adv-x="636" arabic-form="initial"
d="M486 325l0.000976562 -17.998l-4 -26l-5 -60l-7 -22c-6 -30.667 -15.667 -55.834 -29 -75.501s-32 -41.834 -56 -66.501l-76 -44c-32.667 -8.66699 -61.334 -13 -86.001 -13h-254v252h396l12 8l11 19l1 12l-22 97l-14 35c-4 9.33301 -8.33301 17 -13 23
s-8.66699 10 -12 12l67 194l29 -46l16 -33l26 -72l16 -68l7 -68zM568.001 893.002c0 6.66699 -1.83496 15.667 -5.50195 27s-9.16699 22.5 -16.5 33.5s-16.166 20.5 -26.499 28.5s-21.5 12 -33.5 12c-40 0 -92.667 -30.333 -158 -91l-44 -41l-23.5 -25.5l-15.5 -17.5l11 -3
l111 -7c25.333 0 50 1.16699 74 3.5s45.833 6.33301 65.5 12s35.334 13.167 47.001 22.5s17.5 21 17.5 35zM653.999 889.002c0 -8.66699 -6.16504 -22.6699 -18.498 -42.0029s-34 -39.166 -65 -59.499s-73.667 -37.833 -128 -52.5s-122.833 -22 -205.5 -22l-83 5
c-11.333 0 -22.5 1 -33.5 3s-23.333 7 -37 15s-28.834 20.333 -45.501 37s-36.667 40 -60 70l15 17c2 -1.33301 11.167 -3.66602 27.5 -6.99902s38.5 -7.33301 66.5 -12l81 -2l31 25l53 56v385l-20 24l-5 16c0 16 11 37.667 33 65l52 39v-70l23 -27l28 -8l-40 -99l-16 11
v-286l65 55c32.667 26.667 62.667 46.334 90 59.001s51.666 19 72.999 19s40 -8 56 -24l35 -47l18 -51l13 -64z" />
    <glyph glyph-name="nroonrmedi" unicode="&#x6bb;" horiz-adv-x="731" arabic-form="medial"
d="M647 0c-6 0 -17.5 0.500977 -34.5 1.50098s-35.333 2.33301 -55 4s-38.334 4 -56.001 7s-29.5 6.16699 -35.5 9.5l-66 48l-17 17.5c-6 6.33301 -12 13.166 -18 20.499l-19 26l-41 -57l-73 -57l-37 -13l-33 -7h-162v252h188l44 4l45 9c10.667 3.33301 21.5 15 32.5 35
s24.5 48.333 40.5 85c14.667 36.667 31.334 55 50.001 55c8.66699 0 16.667 -2.33301 24 -7v-103l14 -32c4 -10 19.333 -21.667 46 -35l37 -11h234v-252h-108zM630 735.001l-4.00098 10.002c-4 18.667 -11.333 36.667 -22 54s-28 26 -52 26c-8 0 -14.667 -0.333008 -20 -1
s-11.5 -2.33398 -18.5 -5.00098s-15.667 -7.33398 -26 -14.001s-23.833 -16 -40.5 -28l-55 -46l-53 -51l-27 -35l116 -8c28 0 54.5 1.16699 79.5 3.5s46.833 6.5 65.5 12.5s33.334 14 44.001 24s16 22 16 36zM717.999 724.003l-3.00098 -13.9971l-15 -41
c-18 -17.333 -38.333 -33.833 -61 -49.5s-49.667 -29.334 -81 -41.001s-68.166 -21 -110.499 -28s-92.166 -10.5 -149.499 -10.5l-80 5c-10 0.666992 -20.333 2 -31 4s-21.334 6 -32.001 12l-29 19l-29 26l-58 66l16 15c1.33301 -1.33301 10.166 -3 26.499 -5
s39.5 -5.33301 69.5 -10h37l46 -4l32 24c5.33301 3.33301 12.333 9.16602 21 17.499s18 20.166 28 35.499l1 388l-22 28l-3 12c0 18 11.667 40 35 66l48 35l4 -59l7 -22l14 -16l25 -8l-36 -97l-16 14v-287l62 55c8.66699 7.33301 19.667 15.5 33 24.5
s27.666 17.5 42.999 25.5s30.833 14.5 46.5 19.5s28.834 7.5 39.501 7.5c13.333 0 24.833 -2.33301 34.5 -7s18.834 -10.667 27.501 -18l32 -42l18 -52l10 -67v-21z" />
    <glyph glyph-name="hehgoalfina" unicode="&#x6c1;" horiz-adv-x="777" arabic-form="final"
d="M484 588c-0.666992 -7.33301 -9 -15.668 -25 -25.001l-68 -38c-13.333 -7.33301 -30.333 -15.5 -51 -24.5s-40.5 -18.167 -59.5 -27.5s-35.5 -18.166 -49.5 -26.499s-21 -14.833 -21 -19.5c0 -22.667 37.667 -34 113 -34c62 0 115.667 16 161 48v147zM777 -0.00195312
c-36.667 0 -72.1709 9.83008 -106.504 29.4971s-64.833 44.334 -91.5 74.001s-48.167 62 -64.5 97s-24.5 67.5 -24.5 97.5c-90.667 -93.333 -174.667 -140 -252 -140c-23.333 0 -46.666 4 -69.999 12s-44.166 19 -62.499 33s-33.333 30.167 -45 48.5s-17.5 37.5 -17.5 57.5
c0 12.667 4.5 29.5 13.5 50.5s20.333 42.667 34 65s27.834 43 42.501 62s28.667 32.833 42 41.5c40 32.667 79 60.667 117 84s76.333 43 115 59c44 16.667 77.333 45.334 100 86.001c2 2 6 19.833 12 53.5s12.667 82.834 20 147.501c0.666992 17.333 5.33398 26 14.001 26
c9.33301 0 20 -11.667 32 -35c11.333 -22 17 -102.333 17 -241v-226c10 -153.333 68.333 -230 175 -230v-252z" />
    <glyph glyph-name="hehgoalinit" unicode="&#x6c1;" horiz-adv-x="832" arabic-form="initial"
d="M777 441l-0.00195312 -125.999l-6 -42c0 -20.667 -4.66699 -42.334 -14 -65.001s-24.666 -49 -45.999 -79l-43 -14l-69 -6h-80l-100 11h-35l-58 14l-39 -30c-32 -32 -61 -51.333 -87 -58l-60 -29l-36 -11l-35 -6h-69v252h104l22 6
c5.33301 1.33301 10.333 3.66602 15 6.99902s10.334 9.66602 17.001 18.999l-15 34l-6 35v38l3 22c0 14.667 4 34.667 12 60s20.333 53 37 83l49 66l-28 29l-7 38l81 186l34 20l339 -276l39 -46.5c14 -17 27 -33.667 39 -50s22 -31.666 30 -45.999s12 -26.166 12 -35.499z
M601.998 416.001l-63 63.002c-10 7.33301 -18.5 13.166 -25.5 17.499s-12.167 7.16602 -15.5 8.49902l9 -35l7 -54l-3 -17v1c-2 0 -4.33301 -10 -7 -30l-20 -42l30 -10l19 -3l17 -6l118 -14h35c0 14 -33.667 54.333 -101 121zM420.998 421.003
c0 6 -2.00195 14.498 -6.00195 25.498s-10 22.333 -18 34s-17.333 23.334 -28 35.001s-22.667 21.5 -36 29.5c-2.66699 0 -9.66699 -4.5 -21 -13.5s-23.166 -20 -35.499 -33s-23.666 -27.167 -33.999 -42.5s-16.5 -29.666 -18.5 -42.999l3 -8l33 -27l35 -8h69
c13.333 0 24.333 4.83301 33 14.5s16 19.167 22 28.5z" />
    <glyph glyph-name="hehgoalmedi" unicode="&#x6c1;" horiz-adv-x="871" arabic-form="medial"
d="M602 -168c-16.667 51.333 -65.668 98.001 -147.001 140.001l-105 22v-29l7 -24l13 -22l26.5 -44.5c8.33301 -13.667 19.833 -25.167 34.5 -34.5l20 -12l26 -11l59 -12c24.667 0 41.334 3.16699 50.001 9.5s14 12.166 16 17.499zM588.999 472.001l-11.001 39.001
c-5.33301 20.667 -13.666 32 -24.999 34l-10 -5c-16.667 -6 -52.667 -55 -108 -147l-39 -100l66 18l20 10c32.667 15.333 58.5 29.166 77.5 41.499s29.5 24.833 31.5 37.5l3 23zM833.998 0.00195312l-141.998 18.002h-38l10 -35c5.33301 -30 8 -62 8 -96
c0 -36 -1.83301 -66 -5.5 -90s-9.16699 -47 -16.5 -69c-6 -16.667 -14.333 -33.834 -25 -51.501s-22.834 -33.5 -36.501 -47.5s-28.334 -25.5 -44.001 -34.5s-31.5 -13.5 -47.5 -13.5c-12 0 -26.167 3.5 -42.5 10.5s-33.666 18.667 -51.999 35s-37.333 38.166 -57 65.499
s-39.167 61.333 -58.5 102l-31 112l-18 94h-238v252h143l152 20l47 128l53.5 116.5l27.5 58c6.66699 13.667 12.667 25 18 34s14.333 23.167 27 42.5l16 29l21 27c14 27.333 30.333 48.833 49 64.5s37.334 27.167 56.001 34.5h5c17.333 0 35.333 -28 54 -84l27 -82
c0.666992 -13.333 2 -25.5 4 -36.5s3 -23.167 3 -36.5v-35l-3 -24l-13 -33c-5.33301 -22 -14 -46.667 -26 -74s-27.333 -56.333 -46 -87l-33 -44l-30 -33h92c25.333 0 46.666 0.333008 63.999 1s30.666 2 39.999 4l72 10h96v-252h-82z" />
    <glyph glyph-name="hehdochashmefina" unicode="&#x6be;" horiz-adv-x="1123" arabic-form="final"
d="M840 -168c-16.667 51.333 -65.668 98.001 -147.001 140.001l-105 22v-29l7 -24l13 -22l26.5 -44.5c8.33301 -13.667 19.833 -25.167 34.5 -34.5l20 -12l26 -11l59 -12c24.667 0 41.334 3.16699 50.001 9.5s14 12.166 16 17.499zM826.999 472.001l-11.001 39.001
c-5.33301 20.667 -13.666 32 -24.999 34l-10 -5c-16.667 -6 -52.667 -55 -108 -147l-39 -100l66 18l20 10c32.667 15.333 58.5 29.166 77.5 41.499s29.5 24.833 31.5 37.5l3 23zM1072 0.00195312l-141.997 18.001h-38l10 -35c5.33301 -30 8 -62 8 -96
c0 -36 -1.83301 -66 -5.5 -90s-9.16699 -47 -16.5 -69c-6 -16.667 -14.333 -33.834 -25 -51.501s-22.834 -33.5 -36.501 -47.5s-28.334 -25.5 -44.001 -34.5s-31.5 -13.5 -47.5 -13.5c-12 0 -26.167 3.5 -42.5 10.5s-33.666 18.667 -51.999 35s-37.333 38.166 -57 65.499
s-39.167 61.333 -58.5 102l-31 112l-18 94h-150l-63 -6l-109 -40c-21.333 -15.333 -40.666 -30.666 -57.999 -45.999l-43 -37l-54 -71v36l11 73c9.33301 58.667 19.166 106.667 29.499 144s23.166 65.333 38.499 84c18 20 40.5 38.333 67.5 55s59.167 31 96.5 43l79 11l58 5
l2 1l152 20l47 128l53.5 116.5l27.5 58c6.66699 13.667 12.667 25 18 34s14.333 23.167 27 42.5l16 29l21 27c14 27.333 30.333 48.833 49 64.5s37.334 27.167 56.001 34.5h5c17.333 0 35.333 -28 54 -84l27 -82c0.666992 -13.333 2 -25.5 4 -36.5s3 -23.167 3 -36.5v-35
l-3 -24l-13 -33c-5.33301 -22 -14 -46.667 -26 -74s-27.333 -56.333 -46 -87l-33 -44l-30 -33h92c25.333 0 46.666 0.333008 63.999 1s30.666 2 39.999 4l72 10h96v-252h-82z" />
    <glyph glyph-name="hehdochashmeinit" unicode="&#x6be;" horiz-adv-x="832" arabic-form="initial"
d="M777 441l-0.00195312 -125.999l-6 -42c0 -20.667 -4.66699 -42.334 -14 -65.001s-24.666 -49 -45.999 -79l-43 -14l-69 -6h-80l-100 11h-35l-58 14l-39 -30c-32 -32 -61 -51.333 -87 -58l-60 -29l-36 -11l-35 -6h-69v252h104l22 6
c5.33301 1.33301 10.333 3.66602 15 6.99902s10.334 9.66602 17.001 18.999l-15 34l-6 35v38l3 22c0 14.667 4 34.667 12 60s20.333 53 37 83l49 66l-28 29l-7 38l81 186l34 20l339 -276l39 -46.5c14 -17 27 -33.667 39 -50s22 -31.666 30 -45.999s12 -26.166 12 -35.499z
M601.998 416.001l-63 63.002c-10 7.33301 -18.5 13.166 -25.5 17.499s-12.167 7.16602 -15.5 8.49902l9 -35l7 -54l-3 -17v1c-2 0 -4.33301 -10 -7 -30l-20 -42l30 -10l19 -3l17 -6l118 -14h35c0 14 -33.667 54.333 -101 121zM420.998 421.003
c0 6 -2.00195 14.498 -6.00195 25.498s-10 22.333 -18 34s-17.333 23.334 -28 35.001s-22.667 21.5 -36 29.5c-2.66699 0 -9.66699 -4.5 -21 -13.5s-23.166 -20 -35.499 -33s-23.666 -27.167 -33.999 -42.5s-16.5 -29.666 -18.5 -42.999l3 -8l33 -27l35 -8h69
c13.333 0 24.333 4.83301 33 14.5s16 19.167 22 28.5z" />
    <glyph glyph-name="hehdochashmemedi" unicode="&#x6be;" horiz-adv-x="871" arabic-form="medial"
d="M602 -168c-16.667 51.333 -65.668 98.001 -147.001 140.001l-105 22v-29l7 -24l13 -22l26.5 -44.5c8.33301 -13.667 19.833 -25.167 34.5 -34.5l20 -12l26 -11l59 -12c24.667 0 41.334 3.16699 50.001 9.5s14 12.166 16 17.499zM588.999 472.001l-11.001 39.001
c-5.33301 20.667 -13.666 32 -24.999 34l-10 -5c-16.667 -6 -52.667 -55 -108 -147l-39 -100l66 18l20 10c32.667 15.333 58.5 29.166 77.5 41.499s29.5 24.833 31.5 37.5l3 23zM833.998 0.00195312l-141.998 18.002h-38l10 -35c5.33301 -30 8 -62 8 -96
c0 -36 -1.83301 -66 -5.5 -90s-9.16699 -47 -16.5 -69c-6 -16.667 -14.333 -33.834 -25 -51.501s-22.834 -33.5 -36.501 -47.5s-28.334 -25.5 -44.001 -34.5s-31.5 -13.5 -47.5 -13.5c-12 0 -26.167 3.5 -42.5 10.5s-33.666 18.667 -51.999 35s-37.333 38.166 -57 65.499
s-39.167 61.333 -58.5 102l-31 112l-18 94h-238v252h143l152 20l47 128l53.5 116.5l27.5 58c6.66699 13.667 12.667 25 18 34s14.333 23.167 27 42.5l16 29l21 27c14 27.333 30.333 48.833 49 64.5s37.334 27.167 56.001 34.5h5c17.333 0 35.333 -28 54 -84l27 -82
c0.666992 -13.333 2 -25.5 4 -36.5s3 -23.167 3 -36.5v-35l-3 -24l-13 -33c-5.33301 -22 -14 -46.667 -26 -74s-27.333 -56.333 -46 -87l-33 -44l-30 -33h92c25.333 0 46.666 0.333008 63.999 1s30.666 2 39.999 4l72 10h96v-252h-82z" />
    <glyph glyph-name="shaddapeshoon" unicode="&#xfc5e;" horiz-adv-x="0" arabic-form="isolated"
d="M608 570c-6.66699 -60.667 -24.999 -106 -54.999 -136c-21.333 -16.667 -39.666 -25 -54.999 -25c-10.667 0 -26.334 7.33301 -47.001 22l-35 -42c-16.667 -17.333 -36.667 -26 -60 -26c-46 0 -69 42 -69 126v2c0 8 1.83301 17.833 5.5 29.5s8.5 24.834 14.5 39.501
c12 36.667 22.667 55 32 55c2.66699 0 6.33398 -3 11.001 -9c0.666992 -4.66699 1.33398 -8.33398 2.00098 -11.001s1 -5 1 -7s-0.333008 -4.83301 -1 -8.5s-1.33398 -7.83398 -2.00098 -12.501c-5.33301 -21.333 -8 -35 -8 -41c0 -26.667 9.66699 -40 29 -40h7
c0.666992 0 5 1 13 3c28 4.66699 49 30.667 63 78c15.333 49.333 23.666 74 24.999 74c12.667 0 19 -10.667 19 -32c0 -4.66699 -1.5 -11.834 -4.5 -21.501s-4.5 -19.167 -4.5 -28.5c0 -6 0.333008 -9.33301 1 -10c16 -13.333 31.333 -20 46 -20
c9.33301 0 18.666 14.667 27.999 44c4.66699 12.667 8 25.834 10 39.501s4.66699 26.834 8 39.501c1.33301 6 4.33301 9 9 9c2.66699 0 6.16699 -8 10.5 -24s6.5 -33.333 6.5 -52v-15zM596.001 1117c-1.33301 -14 -2.50195 -23.8311 -3.50195 -29.498
s-1.5 -9.16699 -1.5 -10.5c-4 -9.33301 -15.667 -14 -35 -14c-4 0 -8 0.166992 -12 0.5s-8.33301 0.833008 -13 1.5l-59 -140c-14 -34 -25.333 -57.333 -34 -70c-53.333 -93.333 -112.666 -140 -177.999 -140c-70 0 -110 22 -120 66c-4 18 -6.83301 36 -8.5 54
s-2.5 37.333 -2.5 58c0 21.333 0.5 44.166 1.5 68.499s2.16699 50.166 3.5 77.499c-1.33301 2.66699 -5 4 -11 4c-17.333 0 -49 -25.333 -95 -76c-6.66699 -3.33301 -13.334 -5 -20.001 -5c-5.33301 0 -8 3.66699 -8 11c0 18.667 14.333 46.667 43 84c30 38 54 60 72 66
c5.33301 2 9.33301 3 12 3h20c12 0 18.667 -2 20 -6c4.66699 -7.33301 7 -18 7 -32v-12.5c0 -3.66699 -0.666992 -7.83398 -2 -12.501l-8 -53c-2 -13.333 -3 -22.333 -3 -27c0 -104 36.333 -156 109 -156h9c38.667 4.66699 81.334 32.334 128.001 83.001
c54.667 60 82.334 113.667 83.001 161c-49.333 10 -76 16.667 -80 20c-19.333 12 -29 38 -29 78c0 27.333 7 55.666 21 84.999c14.667 40.667 36.667 61 66 61h8c53.333 -2 80 -42.333 80 -121c0 -18.667 -3 -37.667 -9 -57l41 -6c6.66699 0 10 -2.33301 10 -7
c0 -3.33301 -0.666992 -5.66602 -2 -6.99902zM497.999 1197c-16.667 30.667 -28.667 45.999 -36 45.999c-5.33301 0 -19.666 -8.66699 -42.999 -26c5.33301 -13.333 11.666 -26.666 18.999 -39.999l35 -16h25v36z" />
    <glyph glyph-name="shaddazeroon" unicode="&#xfc5f;" horiz-adv-x="0" arabic-form="isolated"
d="M358 666c-5.33301 -47.333 -18.502 -86.168 -39.502 -116.501s-44.167 -45.5 -69.5 -45.5c-12.667 0 -29 8.33301 -49 25c-7.33301 -7.33301 -13.833 -14.666 -19.5 -21.999s-10.167 -14.333 -13.5 -21c-22 -16.667 -42.333 -25 -61 -25c-45.333 0 -68 42 -68 126
c0 5.33301 1.66699 14.833 5 28.5s7.5 27.667 12.5 42s10.333 27.166 16 38.499s11.167 17 16.5 17c9.33301 0 14 -9.33301 14 -28c0 -14 -1.66699 -27.333 -5 -40s-5 -19.667 -5 -21c0 -26 11.333 -39 34 -39c18 0 33 8 45 24s22.167 33.5 30.5 52.5s14.833 36.5 19.5 52.5
s8.33398 24 11.001 24c11.333 0 17 -10.333 17 -31c0 -4.66699 -1.66699 -12.167 -5 -22.5s-5 -19.5 -5 -27.5c0 -6 2.16699 -10.833 6.5 -14.5s9 -6.66699 14 -9s10.167 -4 15.5 -5s9.33301 -1.5 12 -1.5c7.33301 0 13.333 6.83301 18 20.5s8.83398 28.834 12.501 45.501
l10 45.5c3 13.667 6.83301 20.5 11.5 20.5s9 -8.16699 13 -24.5s6 -33.5 6 -51.5v-17zM458.998 -1249c-12 -30 -20.499 -52.668 -25.499 -68.001s-11.333 -28.166 -19 -38.499s-18.5 -19.666 -32.5 -27.999s-35.333 -19.833 -64 -34.5
c-50.667 -26 -90.834 -50.333 -120.501 -73l-75.5 -59c-20.667 -16.667 -38.667 -30.334 -54 -41.001s-34.333 -18 -57 -22c11.333 21.333 33.833 50 67.5 86s81.167 79.333 142.5 130c62 50 113 87 153 111s68.333 36.333 85 37zM486.999 -1452
c-16.667 -58 -31.001 -91.665 -43.001 -100.998c-6 -7.33301 -16.667 -16.833 -32 -28.5s-36 -24.834 -62 -39.501l-88.5 -50c-19.667 -10.667 -30.167 -17 -31.5 -19l-55 -39l-50.5 -37.5c-15.667 -11.667 -30.334 -21.834 -44.001 -30.501s-26.167 -15 -37.5 -19
c8 24.667 29.5 54.167 64.5 88.5s82.167 75.5 141.5 123.5c62.667 50 113.334 87.667 152.001 113s67.334 38.333 86.001 39z" />
    <glyph glyph-name="shaddazabar" unicode="&#xfc60;" horiz-adv-x="0" arabic-form="isolated"
d="M447 570c-6.66699 -62 -24.6689 -107.335 -54.002 -136.002c-21.333 -16.667 -38.333 -25 -51 -25s-29 7.33301 -49 22c-8 -7.33301 -15 -14.333 -21 -21s-11.667 -13.667 -17 -21c-16.667 -17.333 -36.667 -26 -60 -26c-46 0 -69 42 -69 126c0 12 6.66699 35.667 20 71
c14 36.667 25.667 55 35 55c0.666992 0 3.33398 -3 8.00098 -9c0.666992 -4.66699 1.33398 -8.33398 2.00098 -11.001s1 -5 1 -7s-0.333008 -4.83301 -1 -8.5s-1.33398 -7.83398 -2.00098 -12.501c-5.33301 -21.333 -8 -35 -8 -41c0 -26.667 10 -40 30 -40h7l14 3
c24.667 0.666992 45 26.334 61 77.001c14.667 50 24 75 28 75c14 0 21 -10.667 21 -32c0 -5.33301 -2 -14.166 -6 -26.499s-6 -23.5 -6 -33.5c13.333 -13.333 28.333 -20 45 -20c10.667 0 20.667 14.667 30 44c3.33301 12.667 6 25.834 8 39.501s4.66699 26.834 8 39.501
c1.33301 6 4.33301 9 9 9c2.66699 0 6.33398 -7.5 11.001 -22.5s7 -31.833 7 -50.5c0 -2.66699 -0.166992 -5.66699 -0.5 -9s-0.5 -6.33301 -0.5 -9zM453.998 985.998c-9.33301 -27.333 -17.332 -49.334 -23.999 -66.001s-12.334 -28.334 -17.001 -35.001
c-10 -16 -43.667 -40 -101 -72l-87 -47.5c-18.667 -10.333 -28.667 -16.166 -30 -17.499c-13.333 -12.667 -26.833 -24.5 -40.5 -35.5l-42.5 -34.5c-49.333 -38.667 -86.666 -60.667 -111.999 -66c16.667 42.667 87.667 115.334 213 218.001
c121.333 99.333 201.666 151.333 240.999 156z" />
    <glyph glyph-name="shaddapesh" unicode="&#xfc61;" horiz-adv-x="0" arabic-form="isolated"
d="M451 658c-8.66699 -58.667 -27.002 -103.334 -55.002 -134.001c-20.667 -18 -38 -27 -52 -27c-10.667 0 -27 8 -49 24c-9.33301 -9.33301 -17 -17.833 -23 -25.5s-10.667 -13.834 -14 -18.501c-17.333 -16.667 -37.666 -25 -60.999 -25c-45.333 0 -68 42 -68 126
c0 12 6.33301 36.667 19 74c14 36.667 25 55 33 55c5.33301 0 9 -3.66699 11 -11c0.666992 -4 1.33398 -7.33301 2.00098 -10s1 -6 1 -10c0 -2 -0.333008 -4.83301 -1 -8.5s-1.33398 -7.83398 -2.00098 -12.501c-6 -21.333 -9 -34.666 -9 -39.999
c0 -25.333 12.333 -38 37 -38c17.333 0 32.333 6.33301 45 19s22.667 33.334 30 62.001c12.667 47.333 22 71 28 71c14 0 21 -10 21 -30c0 -4 -1.83301 -12.833 -5.5 -26.5s-5.5 -24.167 -5.5 -31.5c16 -16 31 -24 45 -24c10 0 19.667 14.667 29 44
c4 12.667 7 25.834 9 39.501s4.66699 27.167 8 40.5c1.33301 8 4.33301 12 9 12c2.66699 0 6.33398 -8.33301 11.001 -25s7 -35 7 -55v-15zM437.998 1046c-4.66699 -34.667 -12.002 -57.0029 -22.002 -67.0029c-7.33301 4.66699 -16 9.66699 -26 15s-21.333 11 -34 17
l-64 -83.5c-17.333 -23 -31.666 -40.167 -42.999 -51.5c-14.667 -15.333 -34 -32.666 -58 -51.999s-52.333 -41 -85 -65c-62 -46 -109 -69 -141 -69c-9.33301 0 -14 2 -14 6c0 7.33301 10.667 16.666 32 27.999c168 107.333 276 209.333 324 306
c-12.667 4.66699 -25.167 9.83398 -37.5 15.501s-25.166 10.834 -38.499 15.501c-23.333 8.66699 -35 25 -35 49c0 7.33301 0.333008 11.666 1 12.999c4 30 19.667 65.333 47 106c34 48 64.667 72 92 72c38 0 57 -32 57 -96c0 -31.333 -5 -66.666 -15 -105.999
c40 -23.333 60 -40.666 60 -51.999v-1zM343.996 1112c0 28 -1.66699 45.001 -5 51.001c-9.33301 17.333 -29.333 28.666 -60 33.999c-4.66699 0 -8.5 -1.33301 -11.5 -4s-5.5 -9.33398 -7.5 -20.001c-0.666992 -0.666992 -1 -4.66699 -1 -12
c0 -9.33301 3.66699 -15.666 11 -18.999c4 -1.33301 12 -4.33301 24 -9s28.667 -11.667 50 -21z" />
    <glyph glyph-name="shaddazer" unicode="&#xfc62;" horiz-adv-x="0" arabic-form="isolated"
d="M358 636c-2.66699 -23.333 -7.49902 -45.1699 -14.499 -65.5029s-15.333 -37.666 -25 -51.999s-20.667 -25.666 -33 -33.999s-24.5 -12.5 -36.5 -12.5c-12.667 0 -29 8.33301 -49 25l-30.5 -33c-7.66699 -8.66699 -14.5 -15.667 -20.5 -21s-12.333 -9.16602 -19 -11.499
s-14.667 -3.5 -24 -3.5c-45.333 0 -68 42 -68 126c0 4.66699 1.66699 14 5 28s7.33301 28.333 12 43s10 27.5 16 38.5s11.667 16.5 17 16.5c6.66699 0 11 -3.16699 13 -9.5s3 -11.833 3 -16.5s-0.833008 -10.334 -2.5 -17.001s-3.16699 -13.167 -4.5 -19.5l-3.5 -16.5
c-1 -4.66699 -1.5 -7.66699 -1.5 -9c0 -16 3.16699 -26.667 9.5 -32s14.833 -8 25.5 -8c17.333 0 31.833 8.16699 43.5 24.5s21.667 34 30 53s15 36.667 20 53s8.83301 24.5 11.5 24.5c11.333 0 17 -11.667 17 -35c0 -2.66699 -1.66699 -9 -5 -19s-5 -19 -5 -27
c0 -6 2.16699 -10.833 6.5 -14.5s9 -6.83398 14 -9.50098s10.167 -4.5 15.5 -5.5s9.33301 -1.5 12 -1.5c7.33301 0 13.333 6.83301 18 20.5s8.66699 28.834 12 45.501s6.66602 31.834 9.99902 45.501s7.33301 20.5 12 20.5s9 -8.5 13 -25.5s6 -34.167 6 -51.5v-14z
M459.001 -2857l-23.499 -69c-5.66699 -16 -12.5 -29.167 -20.5 -39.5s-19.167 -19.666 -33.5 -28l-63.5 -36.5l-118 -65c-18.667 -13.333 -36.334 -27 -53.001 -41s-32.667 -26.833 -48 -38.5s-30.333 -21.667 -45 -30s-29 -13.833 -43 -16.5
c21.333 45.333 91.333 116 210 212c122.667 100 202 150.667 238 152z" />
    <glyph glyph-name="shaddaubhozabar" unicode="&#xfc63;" horiz-adv-x="0" arabic-form="isolated"
d="M109 339c6.66699 75.333 8.16602 136.169 4.49902 182.502s-10.834 83.666 -21.501 111.999s-21.5 51.333 -32.5 69s-19.5 36.5 -25.5 56.5c0 4.66699 1.16699 12.5 3.5 23.5s5 22.333 8 34s6.5 22 10.5 31s7.33301 13.5 10 13.5
c6.66699 0.666992 15.834 -7.33301 27.501 -24s23 -39 34 -67s20.333 -59 28 -93s10.834 -67 9.50098 -99c-2 -11.333 -4.16699 -28.333 -6.5 -51s-5.33301 -46.334 -9 -71.001s-8.66699 -48 -15 -70s-14.833 -37.667 -25.5 -47zM317.999 175.003
c-2.66699 -23.333 -7.50488 -44.9971 -14.5049 -64.9971s-15.5 -37.333 -25.5 -52s-21 -26.167 -33 -34.5s-24 -12.5 -36 -12.5c-13.333 0 -29.666 8.33301 -48.999 25c-13.333 -12.667 -23.666 -23.5 -30.999 -32.5s-14.166 -16 -20.499 -21s-12.666 -8.66699 -18.999 -11
s-14.166 -3.5 -23.499 -3.5c-46 0 -69 42 -69 126c0 4.66699 1.66699 14 5 28s7.33301 28.167 12 42.5s10 27.166 16 38.499s12 17 18 17s10 -3.33301 12 -10s3 -12.334 3 -17.001s-0.666992 -10.167 -2 -16.5l-4 -19.5l-3.5 -17c-1 -4.66699 -1.5 -7.33398 -1.5 -8.00098
c0 -16 3 -26.833 9 -32.5s14.667 -8.5 26 -8.5c16.667 0 30.834 8.16699 42.501 24.5s21.667 34 30 53s15.166 36.667 20.499 53s9.33301 24.5 12 24.5c11.333 0 17 -11.667 17 -35c0 -2.66699 -1.66699 -8.83398 -5 -18.501s-5 -18.834 -5 -27.501
c0 -5.33301 2 -9.83301 6 -13.5s8.66699 -7 14 -10s10.5 -5 15.5 -6s8.83301 -1.5 11.5 -1.5c8 0 14.333 6.83301 19 20.5s8.5 28.834 11.5 45.501s6.16699 31.834 9.5 45.501s7.33301 20.5 12 20.5s9.16699 -8.33301 13.5 -25s6.5 -34 6.5 -52v-14z" />
    <glyph glyph-name="muhammad" unicode="&#xfdf4;" horiz-adv-x="5541" arabic-form="isolated"
d="M1756 288l194.002 -83c67.333 -28.667 146.666 -52.667 237.999 -72c2.66699 2 -1.33301 9.66699 -12 23s-25 30.333 -43 51s-38.667 42.5 -62 65.5s-47.5 44.5 -72.5 64.5s-48.333 36.5 -70 49.5s-39.167 18.5 -52.5 16.5c-18 -2 -32.833 -5.66699 -44.5 -11
s-22.167 -12.5 -31.5 -21.5s-18.333 -19.167 -27 -30.5s-19.667 -24 -33 -38c-0.666992 -1.33301 -0.833984 -3 -0.500977 -5s5.83301 -5 16.5 -9zM2134 -76c-65.333 6.66699 -123.337 16.332 -174.004 28.999s-97.334 27 -140.001 43s-84.667 33.667 -126 53l-129 63
c-38 -44 -80.167 -79.667 -126.5 -107s-99.833 -41 -160.5 -41c-61.333 0 -110.166 13.167 -146.499 39.5s-64.666 60.333 -84.999 102s-35.833 88.334 -46.5 140.001l-30 149.5c-4.66699 5.33301 -8.33398 6.16602 -11.001 2.49902s-5 -9.16699 -7 -16.5
s-3.83301 -15.666 -5.5 -24.999s-4.5 -18 -8.5 -26c-24 -50 -55.667 -96.5 -95 -139.5s-82.833 -79.667 -130.5 -110s-98.5 -54.333 -152.5 -72s-108.667 -26.5 -164 -26.5c-59.333 0 -104.166 17.167 -134.499 51.5s-51 75.666 -62 123.999s-14.833 98.833 -11.5 151.5
s8.66602 98.667 15.999 138c1.33301 6 4.5 13.333 9.5 22s8.83301 5.33398 11.5 -9.99902c1.33301 -24 3.83301 -49.5 7.5 -76.5s11.834 -52.167 24.501 -75.5s28.834 -42.833 48.501 -58.5s45.834 -23.5 78.501 -23.5c94 0 175.833 14 245.5 42s139.834 72.333 210.501 133
c10 10.667 23.167 23.834 39.5 39.501s24.5 32.5 24.5 50.5c0 49.333 -7.33301 97.333 -22 144s-30.5 93.334 -47.5 140.001s-32.667 93.167 -47 139.5s-21.5 94.166 -21.5 143.499c0 7.33301 0.666992 19.166 2 35.499s3.66602 33 6.99902 50l10 49
c3.33301 15.667 6.33301 29.167 9 40.5c6.66699 22.667 15 22.667 25 0c34.667 -69.333 65 -138.5 91 -207.5s49.333 -138.5 70 -208.5s39.834 -140.833 57.501 -212.5l57.5 -222.5c12.667 -55.333 40 -99.833 82 -133.5s91 -48.834 147 -45.501
c41.333 1.33301 78.833 10 112.5 26s64.5 36.333 92.5 61s54.5 52 79.5 82l77 89.5c26.333 29.667 53.166 57.834 80.499 84.501s58 48.334 92 65.001l39.5 19c9.66699 4.66699 20.834 7 33.501 7c26 0 52.5 -9 79.5 -27s52.167 -39 75.5 -63s44.833 -48 64.5 -72
s35.5 -42 47.5 -54c81.333 -74 180.333 -130.333 297 -169s242 -65.5 376 -80.5s271.833 -19.167 413.5 -12.5s278.334 18.834 410 36.501c131.667 17.667 251.834 37.5 360.5 59.5s198 42.667 268 62c114 31.333 202.334 58.333 265 81s94 35 94 37l-440 72.5
c-149.333 24.333 -301 41.166 -455 50.499c-10 2 -20.167 2.5 -30.5 1.5s-15.5 6.16699 -15.5 21.5c0 12.667 3.5 26 10.5 40l23 44c8.33301 15.333 16.666 29.666 25 42.999c8.33301 13.333 14.833 25 19.5 35c36.667 61.333 90.167 115.333 160.5 162
s147.5 87.834 231.5 123.501s169.666 67 257 94s165 54.5 233 82.5c0 11.333 -2 19.333 -6 24s-8.66602 7.66699 -14 9s-11.667 1.5 -19 0.5c-7.33398 -1 -11.667 -0.5 -13 1.5c-12 7.33301 -25 16.833 -39 28.5s-27 24.834 -39 39.501s-21.334 29.167 -28 43.5
s-10 29.833 -10 46.5c0 12 2.66602 30 8 54s12.167 48.167 20.5 72.5c8.33398 24.333 17.334 46.666 27 66.999s19.166 33.833 28.5 40.5c4 0 8.5 0.166992 13.5 0.5s8.83398 0.5 11.5 0.5c36 -3.33301 75.666 -14.666 119 -33.999s86.834 -42 130.5 -68
s86.166 -54 127.5 -84s77.334 -57.333 108 -82v-9c0 -12 -5.66602 -31 -17 -57s-26 -54 -44 -84s-36.666 -57.167 -56 -81.5s-34.667 -39.166 -46 -44.499c-12.666 -6.66699 -26 -11.167 -40 -13.5s-26.666 -6.83301 -38 -13.5l-230 -61.5
c-64 -17 -124.334 -36.167 -181 -57.5s-114.833 -45.833 -174.5 -73.5c-59.666 -27.667 -128.166 -63.167 -205.5 -106.5c44 -6 102.334 -16 175 -30l233.5 -46l252 -51.5l233.5 -49c70.666 -15 130 -27.167 178 -36.5s75.666 -15 83 -17c4.66602 0 15.333 -1.16699 32 -3.5
l54 -7.5c19.334 -2.66699 36.167 -5.66699 50.5 -9c14.334 -3.33301 21.5 -5.66602 21.5 -6.99902c0 -5.33301 -6 -16.666 -18 -33.999l-41 -56.5l-47 -59.5c-16 -19.333 -28.666 -32.333 -38 -39c-88 15.333 -182.334 13.833 -283 -4.5s-202.833 -43.5 -306.5 -75.5
c-103.666 -32 -206.166 -65.833 -307.5 -101.5s-194.334 -62.167 -279 -79.5c-148.667 -29.333 -298 -56.833 -448 -82.5s-300 -41.334 -450 -47.001s-299.333 1.66602 -448 21.999s-295 59.833 -439 118.5c-12 -12 -23.167 -27.833 -33.5 -47.5
s-21.5 -38.334 -33.5 -56.001s-26.5 -30.834 -43.5 -39.501s-36.5 -8.33398 -58.5 0.999023zM1775 1008c0 5.33301 -0.669922 16.002 -2.00293 32.002s-2.16602 33.333 -2.49902 52s-1 36 -2 52s-1.5 26.333 -1.5 31v15c0 4.66699 1.33301 16.167 4 34.5
s9.66699 27.5 21 27.5c0.666992 -3.33301 2.66699 -6.83301 6 -10.5s5 -5.83398 5 -6.50098c0 -28 -0.5 -56 -1.5 -84s0.5 -56 4.5 -84c0 -4 3.5 -8.83301 10.5 -14.5s12.5 -9.16699 16.5 -10.5c14.667 -4 26.667 -3.5 36 1.5s17.333 12.833 24 23.5
c0 5.33301 -0.666992 14.5 -2 27.5s-2 26.5 -2 40.5c0 18 0.666992 33.5 2 46.5s2 21.833 2 26.5c0 4 0.833008 12.5 2.5 25.5s3.16699 21.833 4.5 26.5c0 5.33301 3.33301 8 10 8c7.33301 -10.667 11.833 -25.334 13.5 -44.001s3.66699 -37 6 -55s6.33301 -34.833 12 -50.5
s17.5 -27.167 35.5 -34.5c0.666992 -2 4.66699 -3 12 -3c8 0 13.667 2.66699 17 8c0 20.667 -2.83301 39.834 -8.5 57.501s-8.5 36.5 -8.5 56.5c0 15.333 1 29.166 3 41.499s8 25.833 18 40.5c1.33301 0 4.83301 -9.33301 10.5 -28s11.167 -39.167 16.5 -61.5l16 -67
c5.33301 -22.333 8 -37.166 8 -44.499v-14c0 -8.66699 -1 -17.5 -3 -26.5l-5.5 -24.5c-1.66699 -7.33301 -4.5 -11 -8.5 -11c-10 -12 -25.333 -19 -46 -21s-35.667 3 -45 15c-13.333 9.33301 -22.333 19.666 -27 30.999c-10 -18.667 -22.667 -34.5 -38 -47.5
s-33.666 -19.5 -54.999 -19.5c-31.333 0 -50.666 14 -57.999 42zM2085 1709c0 -10 -3.33008 -21.334 -9.99707 -34.001s-11.334 -23.667 -14.001 -33c-6.66699 -3.33301 -18.334 -9.5 -35.001 -18.5l-54 -30.5l-54 -31c-16.667 -9.33301 -28.334 -15.666 -35.001 -18.999
l-77 -39c-38 -18.667 -79.167 -40 -123.5 -64l-135.5 -72.5l-116 -59.5h-11c0 14.667 0.833008 29.667 2.5 45s9.5 28.333 23.5 39l632 317h7zM4665 2110c0 -2.66699 1.83398 -7.83301 5.5 -15.499c3.66602 -7.66699 8.83301 -15.167 15.5 -22.5l17.5 -20l11.5 -14
c2 1.33301 4.16602 4.5 6.5 9.5s3.5 10.167 3.5 15.5s0.333984 12 1 20c0 9.33301 -3 18.666 -9 28c-6 9.33301 -13 14 -21 14c-4 0 -10.166 -1.83301 -18.5 -5.5s-12.5 -6.83398 -12.5 -9.50098zM4376 1841c-1.33398 2.66699 0.333008 5.33105 5 7.99805
c28 16 54.834 29.167 80.5 39.5l74 29c23.666 9 46.166 18.167 67.5 27.5s43.334 21.333 66 36c0 0.666992 1.83398 2.16699 5.5 4.5s5.5 5.16602 5.5 8.49902c0 1.33301 -2 5.33301 -6 12s-8.33398 13.334 -13 20.001s-9.16602 12.667 -13.5 18s-6.83398 9.66602 -7.5 13
c-3.33398 4.66699 -6.16699 10.167 -8.5 16.5c-2.33398 6.33301 -3.5 12.833 -3.5 19.5c0 9.33301 3.16602 19.666 9.5 31c6.33398 11.333 13.667 21.333 22 30c8.33398 8.66699 17.834 15.667 28.5 21s21 8 31 8c9.33398 0 16.834 -2.66699 22.5 -8s10 -12 13 -20
s4.83398 -16.167 5.5 -24.5s1 -16.166 1 -23.499c0 -14 -1.16602 -25.833 -3.5 -35.5s-4.66699 -18 -7 -25c-2.33398 -7 -4.16699 -12.833 -5.5 -17.5c-1.33398 -4.66699 -2 -11 -2 -19c2 -6 6.33398 -12.167 13 -18.5s7.66602 -12.166 3 -17.499l-9 -19.5
c-2.66602 -5.66699 -7.33301 -12.167 -14 -19.5l-29 31h-4c-37.334 -30 -82.5 -56.5 -135.5 -79.5s-112.834 -39.5 -179.5 -49.5c-2 0 -4.16602 0.166992 -6.5 0.5s-4.16699 1.5 -5.5 3.5zM3920 1476c0 -10.667 -3.33301 -22.333 -10 -35s-11.334 -23.667 -14 -33
c-6.66699 -3.33301 -18.334 -9.5 -35 -18.5l-53.5 -30l-54 -30.5c-17 -9.33301 -28.833 -16 -35.5 -20l-77 -39c-38 -18.667 -79.167 -40 -123.5 -64l-135 -72l-116.5 -60h-11c0 14.667 1 29.667 3 45s10 28.333 24 39l631 318h7z" />
    <glyph glyph-name="salamfull" unicode="&#xfdfa;" horiz-adv-x="3018" arabic-form="isolated"
d="M482 1215c1.33301 -7.33301 9.5 -11.667 24.5 -13s26.167 -2 33.5 -2c20.667 0 39.5 5.83301 56.5 17.5s31.833 23.834 44.5 36.501v27c0 10 0.5 20.667 1.5 32l3 34.5c1 11.667 1.5 19.834 1.5 24.501c-27.333 -28.667 -54 -54.334 -80 -77.001
s-54.333 -49.334 -85 -80.001zM2024 1064c0 -2.66699 4 -5.16602 12 -7.49902s13.333 -4.5 16 -6.5c4.66699 0 12.5 -0.166992 23.5 -0.5s18.167 -0.5 21.5 -0.5c67.333 0 131.5 4.83301 192.5 14.5s108.667 18.167 143 25.5s53 11.5 56 12.5s5.16699 2.83301 6.5 5.5
c0 4.66699 -2.16699 12.167 -6.5 22.5s-7.83301 16.166 -10.5 17.499c-18.667 26 -40.667 49.167 -66 69.5s-55.666 30.5 -91 30.5c-26.667 0 -54.334 -6 -83 -18c-28.667 -12 -56 -26.833 -82 -44.5s-50 -37 -72 -58s-42 -41.833 -60 -62.5zM1347 1179
c-2 37.333 -6.00195 77.668 -12.002 121.001l-16 120c-6.66699 37.333 -10 74.166 -10 110.499v108.5c0 2 1.66699 9.5 5 22.5s6 21.833 8 26.5c4.66699 12.667 8.83398 26 12.501 40s7.83398 26 12.501 36c0.666992 -38 3.66699 -76.833 9 -116.5
s10.666 -76.5 15.999 -110.5c5.33301 -45.333 11.833 -93.666 19.5 -144.999s11.5 -101 11.5 -149c0 -10 -0.666992 -25 -2 -45s-4 -40.833 -8 -62.5s-9.16699 -41.334 -15.5 -59.001s-16.166 -29.167 -29.499 -34.5zM1854 624.002c0 -1.33301 3 -4.66699 9 -10
s13 -10 21 -14s15.667 -7.5 23 -10.5s12.333 -4.5 15 -4.5h6.5c1.66699 0 2.5 0.666992 2.5 2c-3.33301 14 -9.83301 25.667 -19.5 35s-21.5 14 -35.5 14h-14.5c-5 0 -7.5 -4 -7.5 -12zM566.998 256.001c0 -2.66699 2.99902 -5.83301 8.99902 -9.5s12.5 -6.66699 19.5 -9
s13.833 -3.83301 20.5 -4.5s11.334 -1 14.001 -1c2 -1.33301 10 -2.5 24 -3.5s32 -2.16699 54 -3.5c0 8 -4.16699 15 -12.5 21s-18 10.833 -29 14.5s-22 6.5 -33 8.5s-17.833 3 -20.5 3c-3.33301 0 -16 -2 -38 -6c-4.66699 -4 -7.16699 -6.16699 -7.5 -6.5
s-0.5 -1.5 -0.5 -3.5zM1376 175.002c29.333 10 60.4971 16.1641 93.4971 18.4971s63.167 7.5 90.5 15.5c64 14 126.667 35.333 188 64s113.333 67.334 156 116.001c2 2 5 6.5 9 13.5s8.83301 14.167 14.5 21.5s10.834 14.5 15.501 21.5s9.33398 12.833 14.001 17.5
c4 4.66699 6.5 8.5 7.5 11.5s1.5 6.83301 1.5 11.5c0 6.66699 -1.66699 12.334 -5 17.001c-7.33301 -6.66699 -19.333 -15.167 -36 -25.5s-31.667 -15.5 -45 -15.5c-10 0 -21.167 3.33301 -33.5 10s-23.333 15 -33 25s-17.834 20.667 -24.501 32s-10 24 -10 38
c0 5.33301 0.833008 13.166 2.5 23.499s4.83398 19.833 9.50098 28.5c8 12 15.333 26.333 22 43s15.834 32.334 27.501 47.001s24.5 28.334 38.5 41.001s29.667 19 47 19s32.5 -6.33301 45.5 -19s23.667 -28.167 32 -46.5s14.333 -36.5 18 -54.5s5.5 -34.667 5.5 -50
c0 -21.333 -2.5 -40.833 -7.5 -58.5s-10.833 -36.5 -17.5 -56.5c-30 -71.333 -69.167 -137.333 -117.5 -198s-109.166 -108 -182.499 -142c-28.667 -12 -55.834 -17 -81.501 -15s-53.5 4.66699 -83.5 8c-6.66699 0 -18.334 1.16699 -35.001 3.5s-34.167 5.33301 -52.5 9
s-34.666 7.66699 -48.999 12s-22.5 8.83301 -24.5 13.5zM559.994 61.999c5.33301 -9.33301 13.835 -21.3281 25.502 -35.9951s23.834 -28.5 36.501 -41.5s26.667 -24.667 42 -35s29.666 -15.5 42.999 -15.5s25.333 5.16699 36 15.5s19.667 22.666 27 36.999
s14.333 29.333 21 45s13.667 29.834 21 42.501c0 2.66699 1.83301 7.83398 5.5 15.501l11 22c3.66699 7 7.83398 14 12.501 21s8 10.833 10 11.5c9.33301 16 22.5 32.833 39.5 50.5s36.167 26.5 57.5 26.5c10 0 19.667 -4.66699 29 -14s18.166 -20.5 26.499 -33.5
s16 -27.167 23 -42.5s13.5 -26.666 19.5 -33.999c23.333 -26.667 49.666 -46.5 78.999 -59.5s58 -26.5 86 -40.5c107.333 -22 216 -27 326 -15s217 34.667 321 68c10 4.66699 20.833 10.5 32.5 17.5s23.834 13.833 36.501 20.5l36 18.5
c11.333 5.66699 21.666 8.5 30.999 8.5s17.166 -2.83301 23.499 -8.5s13.666 -11.834 21.999 -18.501s18.333 -13.167 29.999 -19.5c11.667 -6.33301 26.167 -9.5 43.5 -9.5c10.667 0 23.834 1.16699 39.5 3.5c15.667 2.33301 26.167 9.16602 31.5 20.499
c5.33301 14 6 33 2 57s-7.33301 48.333 -10 73l-43.5 296l-23.5 169.5c-5.33301 39.667 -8.66602 68.167 -10 85.5c-1.33301 17.333 -3 32 -5 44c3.33301 24 7.33301 45.667 12 65s5.33398 41 2 65l-5 6c-22.667 -2 -46.167 -2.33301 -70.5 -1s-47.666 5 -69.999 11
s-42.333 16 -60 30s-31.167 33.333 -40.5 58c-0.666992 -2 -3.33398 -6 -8.00098 -12s-8.66699 -12.5 -12 -19.5s-7.33301 -13.333 -12 -19s-7 -9.83398 -7 -12.501c-11.333 -15.333 -26.333 -29 -45 -41s-37.667 -18 -57 -18c-14 0 -27.833 4.66699 -41.5 14
s-25.667 20.5 -36 33.5s-19.5 26.667 -27.5 41s-13.667 28.166 -17 41.499c-7.33301 -13.333 -13.833 -27.666 -19.5 -42.999s-12.167 -29 -19.5 -41c-11.333 -14 -17.333 -24.5 -18 -31.5s-2.33398 -11.833 -5.00098 -14.5l48.5 -9
c18.333 -3.33301 35.166 -6.83301 50.499 -10.5s27.833 -11 37.5 -22s13.834 -25.833 12.501 -44.5c-3.33301 -28 -15 -54.333 -35 -79s-45.167 -47 -75.5 -67s-64.666 -37.5 -102.999 -52.5s-75.333 -28 -111 -39s-70.334 -19.167 -104.001 -24.5s-61.834 -8 -84.501 -8
c-8 0 -19.833 0.5 -35.5 1.5s-32.5 2.83301 -50.5 5.5s-36.667 9.16699 -56 19.5s-36.833 25.166 -52.5 44.499s-28.667 43.833 -39 73.5s-16.5 66.834 -18.5 111.501c-2.66699 51.333 4.33301 100.333 21 147s34 92 52 136l1 21
c-7.33301 6.66699 -12.666 13.334 -15.999 20.001l-10.5 20.5c-3.66699 7 -6.83398 14.667 -9.50098 23l-10 30.5c0 4 -0.666992 3.83301 -2 -0.5s-3.16602 -9.5 -5.49902 -15.5s-4.66602 -12.333 -6.99902 -19s-4.5 -13.667 -6.5 -21c-12 -32 -26 -59.333 -42 -82
s-43 -41 -81 -55c-2.66699 0 -7.66699 -1.33301 -15 -4v-27l57 -438c12 -46.667 31.167 -83.334 57.5 -110.001s62.833 -40 109.5 -40c18.667 0 37.667 2.33301 57 7s39.333 10.667 60 18s40.334 16.166 59.001 26.499s35 22.166 49 35.499c2.66699 4.66699 4 4.66699 4 0
c0 -10.667 -2.5 -20.667 -7.5 -30s-7.5 -20 -7.5 -32c0 -9.33301 5.16699 -15.333 15.5 -18s18.5 -4 24.5 -4c2 0 9.33301 -0.5 22 -1.5s22.334 -1.5 29.001 -1.5s16.5 0.5 29.5 1.5s20.833 1.5 23.5 1.5c10 5.33301 19 14.333 27 27l23.5 36.5l21 33
c6.33301 10.333 14.833 15.5 25.5 15.5c0.666992 0 1.5 -1.83301 2.5 -5.5s0.5 -7.83398 -1.5 -12.501c-0.666992 -4 -3.16699 -12.333 -7.5 -25s-6.5 -20.334 -6.5 -23.001c0 -6.66699 5.33301 -11.667 16 -15s23.667 -5.66602 39 -6.99902s30 -2.5 44 -3.5
s23 -1.5 27 -1.5c-0.666992 15.333 -3.33398 31.166 -8.00098 47.499s-7.66699 32.833 -9 49.5c-2 2.66699 -0.333008 9.66699 5 21s11 21.666 17 30.999l19.5 29.5c7 10.333 11.5 16.833 13.5 19.5c0.666992 0 1 -0.666992 1 -2c15.333 -26 24.833 -54.833 28.5 -86.5
s5.5 -63.5 5.5 -95.5c-4 -28 -12.667 -54.833 -26 -80.5s-35.666 -39.834 -66.999 -42.501h-21.5h-21.5c-20.667 0 -42.334 0.666992 -65.001 2s-38 7.33301 -46 18c-6 2 -10.5 1 -13.5 -3s-7 -9.83301 -12 -17.5s-10.833 -14.834 -17.5 -21.501s-15 -11.334 -25 -14.001
c-20.667 -2 -40.167 -2.5 -58.5 -1.5s-37.166 1.83301 -56.499 2.5c-16 2 -30 8.33301 -42 19s-15.333 24.334 -10 41.001c-112 -58.667 -199.667 -74.167 -263 -46.5s-102.666 106.834 -117.999 237.501l-43 -76.5c-13.333 -23 -28.333 -46.167 -45 -69.5
c2 0 4.16699 -1.33301 6.5 -4s3.83301 -4 4.5 -4c20.667 -9.33301 39.667 -20.166 57 -32.499s33 -28.5 47 -48.5c4.66699 -8 8 -14.667 10 -20s3 -13.333 3 -24c0 -10 -2.66699 -20.167 -8 -30.5s-9.33301 -20.5 -12 -30.5c-10 -18 -19 -32.833 -27 -44.5
s-16.5 -20.5 -25.5 -26.5s-20 -10.167 -33 -12.5s-32.167 -4.5 -57.5 -6.5h-15h-28c-8.66699 0 -17.334 0.5 -26.001 1.5s-14.667 1.5 -18 1.5c-1.33301 -4.66699 -5.83301 -12.167 -13.5 -22.5s-10.5 -18.166 -8.5 -23.499zM528.996 32.0039
c-3.33301 -0.666992 -7.83594 -3.67383 -13.5029 -9.00684s-13.167 -11.166 -22.5 -17.499s-23.833 -13.5 -43.5 -21.5s-45.5 -13.333 -77.5 -16c-6 -2 -18 -4.16699 -36 -6.5s-37 -3.66602 -57 -3.99902s-39 -1 -57 -2s-30 -0.166992 -36 2.5c-2 4.66699 -0.666992 8 4 10
l331 137l11 8.5l11 8.5c-38 21.333 -57 52.666 -57 93.999c0 16.667 4.66699 34 14 52s17.333 35 24 51c7.33301 13.333 14 24 20 32s14 15.667 24 23c28 14 51.833 27.667 71.5 41s38 28.5 55 45.5s31 36.5 42 58.5s19.5 47.667 25.5 77
c0 40.667 -0.833008 75.834 -2.5 105.501s-3.66699 56 -6 79s-4.16602 43.833 -5.49902 62.5s-2 37.334 -2 56.001c0 23.333 1.16699 45.666 3.5 66.999s6.5 42 12.5 62c-24.667 6 -43.5 14.833 -56.5 26.5s-25.167 27.834 -36.5 48.501c-8 28 -12.833 51.167 -14.5 69.5
s-4.16699 35.5 -7.5 51.5l-26 -41.5c-10 -16.333 -21.5 -32.166 -34.5 -47.499s-27.667 -27.666 -44 -36.999s-35.166 -13.666 -56.499 -12.999c-1.33301 0 -9.33301 0.666992 -24 2s-30.5 4.33301 -47.5 9s-31.5 9.33398 -43.5 14.001s-18 9.33398 -18 14.001
c6.66699 25.333 14.167 46.833 22.5 64.5s17.5 34.5 27.5 50.5c42 34.667 82.833 65.5 122.5 92.5l115.5 79.5c4 13.333 6.5 26.333 7.5 39s6.5 27.667 16.5 45c2 4.66699 4.16699 10.5 6.5 17.5s3.83301 10.5 4.5 10.5c2 6 5.33301 6 10 0v-32v-49
c0 -16 0.166992 -31.667 0.5 -47s0.5 -25.333 0.5 -30c0 -21.333 1.5 -44.333 4.5 -69s9.33301 -48 19 -70s22 -40.667 37 -56s36.5 -23 64.5 -23c14.667 0 29 3.66699 43 11s25.667 17.333 35 30s16 26.5 20 41.5s6 29.833 6 44.5c0 36.667 -3.83301 70.5 -11.5 101.5
s-11.5 64.5 -11.5 100.5c0 22 1.83301 44.167 5.5 66.5s5.5 44.5 5.5 66.5c-15.333 -20.667 -35.333 -31 -60 -31c-11.333 0 -21.333 6.33301 -30 19s-13 24 -13 34l-3 74c0 4 1.83301 7.16699 5.5 9.5s6.5 3.5 8.5 3.5c5.33301 0 10 -3 14 -9s6.33301 -13.333 7 -22
s1 -17.667 1 -27v-18c6 -9.33301 14.5 -12.833 25.5 -10.5s16.5 9.16602 16.5 20.499c0 7.33301 -0.333008 15.166 -1 23.499s-1 16.5 -1 24.5v24c0 10 4.66699 15 14 15c4.66699 0 8.16699 -4.16699 10.5 -12.5s4.16602 -18 5.49902 -29s4.33301 -20.833 9 -29.5
s13 -13 25 -13h10c2.66699 0 5 0.333008 7 1c-2 10.667 -3.66699 21 -5 31s-3 20.333 -5 31v18c0 4.66699 2.33301 11.334 7 20.001c2.66699 0.666992 4.66699 -1.33301 6 -6s4 -8 8 -10c0.666992 -7.33301 2.66699 -19 6 -35s5.66602 -31.333 6.99902 -46v-10
c2.66699 -14 1.33398 -24.167 -3.99902 -30.5s-10 -10.666 -14 -12.999s-9.33301 -3.5 -16 -3.5h-14c0 -2 -0.5 -4 -1.5 -6s-1.5 -4.66699 -1.5 -8c0 -2 1 -5.33301 3 -10c2 -15.333 5.33301 -35.5 10 -60.5l14.5 -81.5c5 -29.333 12.167 -58.5 21.5 -87.5
s20.166 -55.167 32.499 -78.5s27.333 -43.166 45 -59.499s38.5 -24.5 62.5 -24.5c6.66699 0 15.167 1.66699 25.5 5s16.833 6.33301 19.5 9l3 7c-9.33301 42.667 -18 85.667 -26 129s-14 90.333 -18 141c4.66699 21.333 9 44 13 68s7.66699 48 11 72
c2.66699 4.66699 4.83398 7 6.50098 7s4.83398 -1.33301 9.50098 -4c0.666992 -12 1 -25.833 1 -41.5s2 -29.5 6 -41.5c3.33301 -25.333 7.83301 -49.666 13.5 -72.999l17.5 -72c6 -24.667 11.667 -49.167 17 -73.5s8 -48.5 8 -72.5c0 -20.667 -2.83301 -42 -8.5 -64
s-13.834 -41.333 -24.501 -58s-24.5 -30.334 -41.5 -41.001s-37.5 -16 -61.5 -16c-4.66699 0 -13.5 0.833008 -26.5 2.5s-21.167 6.5 -24.5 14.5h-9l-29 -98c-10 -32.667 -15 -67.334 -15 -104.001c0 -72.667 19.833 -125.334 59.5 -158.001s95.834 -49 168.501 -49
c22.667 0 48 2.83301 76 8.5s56 12.334 84 20.001s55.5 17.334 82.5 29.001l73 30.5c21.667 8.66699 39.834 16.667 54.501 24s23.667 12 27 14v7c0 4.66699 -5.5 8.33398 -16.5 11.001s-25.333 4.5 -43 5.5s-36.667 1.66699 -57 2s-39 2.66602 -56 6.99902
s-31.5 10.666 -43.5 18.999s-18 21.833 -18 40.5c0 16 3.66699 29.167 11 39.5s16.666 17.5 27.999 21.5s24 8 38 12s27.333 8.33301 40 13c11.333 3.33301 24.333 10.333 39 21s22.667 23 24 37v51c0 79.333 -2 155.666 -6 228.999s-9 149.666 -15 228.999
c0 1.33301 -0.333008 3.16602 -1 5.49902s-1 4.5 -1 6.5c0 20 3.83301 39.333 11.5 58s11.5 39.667 11.5 63c-6 2.66699 -10.667 10.334 -14 23.001c-7.33301 -14 -14 -24.5 -20 -31.5s-17 -10.5 -33 -10.5c-14.667 0 -25.5 7.5 -32.5 22.5s-10.5 30.167 -10.5 45.5
c0 3.33301 0.5 9.66602 1.5 18.999s1.83301 15 2.5 17c2 5.33301 5 12.666 9 21.999s7.66699 14 11 14c0.666992 0 1.5 -5.33301 2.5 -16s1.5 -18.667 1.5 -24c2 -11.333 3.66699 -22.666 5 -33.999s8 -17 20 -17c2.66699 0 7.5 0.833008 14.5 2.5
s10.5 4.83398 10.5 9.50098v70c0 2.66699 2.33301 7.66699 7 15s8.33398 11 11.001 11c4.66699 0 8.16699 -5.16699 10.5 -15.5s5.16602 -21.5 8.49902 -33.5s7.16602 -22.833 11.499 -32.5s11.166 -14.5 20.499 -14.5c0.666992 0 2.5 0.166992 5.5 0.5s5.16699 0.5 6.5 0.5
c0 4 -0.333008 9.5 -1 16.5s-1 14.167 -1 21.5c0 8 0.333008 15.167 1 21.5s1 10.833 1 13.5s1 7.33398 3 14.001s4 10.667 6 12s3.33301 3 4 5c2.66699 0 5.66699 -5 9 -15s5.66602 -20.833 6.99902 -32.5s2 -23.5 2 -35.5v-25v-30
c-7.33301 -7.33301 -16.166 -12.666 -26.499 -15.999s-20.5 -5.33301 -30.5 -6c0 -4 -0.333008 -7.33301 -1 -10s-1 -6 -1 -10c1.33301 -19.333 3.66602 -40.833 6.99902 -64.5s6.66602 -45.834 9.99902 -66.501c2 -10.667 4 -27.334 6 -50.001s4.83301 -46.667 8.5 -72
s6.66699 -49 9 -71s3.83301 -38 4.5 -48l6.5 -59c2.33301 -20.667 5.83301 -39.667 10.5 -57c4 -10.667 9.83301 -23 17.5 -37s17.334 -27 29.001 -39s23.834 -21.333 36.501 -28s26 -8.33398 40 -5.00098c25.333 4.66699 43.833 11.667 55.5 21s21.5 19 29.5 29
s15 20.167 21 30.5s15.667 19.166 29 26.499c0 -6 1.33301 -12.333 4 -19s7 -14 13 -22s14.833 -15.167 26.5 -21.5s28.167 -13.5 49.5 -21.5c0 8 3.33301 15.667 10 23s13 15.833 19 25.5s12.333 19 19 28s11.334 14.5 14.001 16.5c13.333 20.667 33.666 42.667 61 66
c27.333 23.333 57.666 45.5 91 66.5c33.333 21 66.333 38 99 51s61.334 19.5 86 19.5c24.667 0 49.5 -6.5 74.5 -19.5s47.667 -31.167 68 -54.5s36.333 -47.166 48 -71.499s16.834 -49.5 15.5 -75.5c-7.33301 -18.667 -17.333 -39.5 -30 -62.5s-27.667 -41.167 -45 -54.5
c-16 -14 -35 -25.333 -57 -34s-45.333 -16.334 -70 -23.001s-49.334 -11.167 -74 -13.5c-24.667 -2.33301 -47.334 -3.83301 -68 -4.5c-4.66699 0 -12.334 -1 -23 -3c-10.667 -2 -21.834 -3.16699 -33.5 -3.5c-11.667 -0.333008 -24.167 -1.16602 -37.5 -2.49902
s-21.666 -2 -25 -2c0 -4 -0.333008 -7.16699 -1 -9.5s-1 -4.83301 -1 -7.5c8 -78.667 17.833 -154.334 29.5 -227.001s26.167 -151.667 43.5 -237c2.66699 -18.667 8.33398 -44.334 17 -77.001c8.66699 -32.667 19.5 -66.167 32.5 -100.5s27.833 -64.666 44.5 -90.999
s35 -39.5 55 -39.5c-3.33301 13.333 -5.66602 24.833 -7 34.5c-1.33301 9.66699 -2 20.834 -2 33.501c0 16.667 3 34.834 9 54.501s13.667 39.5 23 59.5s19.666 38.333 31 55c11.333 16.667 24 29.667 38 39c16.667 12 34.667 20.333 54 25s39.666 7 61 7
c16.667 0 36.5 -3 59.5 -9s45.167 -14.333 66.5 -25s40.333 -24 57 -40s26 -33.333 28 -52c-25.333 4.66699 -58.333 7 -99 7c-39.333 0 -77.5 -2.33301 -114.5 -7s-69.5 -11.667 -97.5 -21s-42 -21.333 -42 -36c0 -16 4.5 -32.667 13.5 -50s20.333 -34.166 34 -50.499
s28.167 -29.333 43.5 -39s31.333 -14.5 48 -14.5c18.667 0 40.334 3 65 9c24.667 6 49.334 14.167 74 24.5c24.667 10.333 48 21.833 70 34.5s39.667 26 53 40c12 7.33301 17 2 15 -16c-5.33301 -14 -12.166 -28.167 -20.5 -42.5
c-8.33301 -14.333 -24.166 -36.5 -47.5 -66.5c-22 -18.667 -44.667 -35 -68 -49s-48 -26.167 -74 -36.5s-53.167 -17.333 -81.5 -21s-56.5 -5.83398 -84.5 -6.50098c-50 0 -95 9.5 -135 28.5s-70.333 45.833 -91 80.5c0 2 -3.16699 -4.33301 -9.5 -19
s-12.833 -30.834 -19.5 -48.501s-14.5 -34.167 -23.5 -49.5s-16.167 -25.333 -21.5 -30c-12 -7.33301 -25.667 -12.833 -41 -16.5s-30.666 -5.5 -46 -5.5c-24 0 -42.5 8.83301 -55.5 26.5s-22.5 36.834 -28.5 57.501c-3.33301 3.33301 -6.16602 5.5 -8.49902 6.5
s-5.16602 1.5 -8.49902 1.5c-12 0 -25 -4 -39 -12s-27.667 -16.333 -41 -25l-40 -26c-13.333 -8.66699 -27 -15.334 -41 -20.001c-80.667 -26 -159.834 -46.167 -237.501 -60.5s-158.834 -21.5 -243.501 -21.5c-34 0 -68.833 2.5 -104.5 7.5s-70.834 14.833 -105.501 29.5
s-66.167 34.5 -94.5 59.5s-50.5 56.833 -66.5 95.5c-4.66699 7.33301 -7.66699 15.333 -9 24s-3.16602 16.334 -5.49902 23.001s-5.66602 11.667 -9.99902 15s-11.166 5 -20.499 5c-11.333 0 -22.833 -6.5 -34.5 -19.5s-22.667 -30 -33 -51s-20.333 -43.667 -30 -68
s-21 -46.833 -34 -67.5s-27.5 -37.667 -43.5 -51s-32.333 -20 -49 -20c-22.667 0 -41.667 9.66699 -57 29s-29.5 40 -42.5 62s-24.167 43.333 -33.5 64s-17.333 31.334 -24 32.001zM1325.99 -273.003c0 5.33301 3.66113 14.998 10.9941 28.998s12.333 23.333 15 28
c4.66699 4.66699 10.334 12.5 17.001 23.5s19 19.167 37 24.5c5.33301 4 10.833 2.5 16.5 -4.5s21.167 -20.5 46.5 -40.5c0.666992 -2 6.66699 -6 18 -12l25 -13c0 4 3.66699 11.833 11 23.5s15.333 22.834 24 33.501s17.167 20.167 25.5 28.5s13.833 12.5 16.5 12.5
c4.66699 0 13 -5.16699 25 -15.5l38 -32c13.333 -11 25 -22.167 35 -33.5s15 -18 15 -20c0 -5.33301 -3.16699 -13.666 -9.5 -24.999s-13.5 -22.5 -21.5 -33.5s-16.667 -20.833 -26 -29.5s-17.333 -13 -24 -13c-7.33301 0 -15.166 3.33301 -23.499 10
s-14.833 12.334 -19.5 17.001c-15.333 14 -27.833 25.833 -37.5 35.5s-18.167 22.5 -25.5 38.5c-7.33301 -9.33301 -13.666 -20 -18.999 -32s-11.166 -23.333 -17.499 -34s-14.166 -20.334 -23.499 -29.001s-19.333 -13.334 -30 -14.001
c-7.33301 0 -16.166 2.83301 -26.499 8.5s-20.833 12.834 -31.5 21.501s-20.167 17.5 -28.5 26.5s-12.5 15.833 -12.5 20.5z" />
    <glyph glyph-name="jalla" unicode="&#xfdfb;" horiz-adv-x="2181" arabic-form="isolated"
d="M1793 -110c0 -15.333 -4.5 -32.501 -13.5 -51.501s-18.5 -34.167 -28.5 -45.5l-74.5 40c-24.333 13.333 -36.5 26 -36.5 38l11 33c8.66699 26.667 15.334 48.334 20.001 65.001c15.333 -13.333 41.666 -28.333 78.999 -45c28.667 -12.667 43 -24 43 -34zM378 502.999
l-18.002 121.999l-118 -90c-31.333 -29.333 -47 -53.333 -47 -72c0 -12 5.66699 -22.333 17 -31c12.667 0 25.334 0.166992 38.001 0.5s26.334 2.5 41.001 6.5c6.66699 0.666992 17.667 7.33398 33 20.001zM1220 189.998l-21 17.001l-41 30
c-7.33301 5.33301 -14.333 12.666 -21 21.999c4 -34.667 13 -65.667 27 -93c22 -42.667 53 -70.667 93 -84l-19.5 53.5c-7.66699 21 -13.5 39.167 -17.5 54.5zM1753 305.999l-152.001 -65.999c-55.333 -22.667 -106.5 -40.834 -153.5 -54.501s-88.5 -20.5 -124.5 -20.5
c-6 -0.666992 -10.333 -1 -13 -1c-4 0 -9.16699 0.5 -15.5 1.5s-10.166 1.5 -11.499 1.5l26 -80c58.667 0 124.334 10.333 197.001 31c57.333 16.667 122.666 41 195.999 73c46 20 104.667 48 176 84c-35.333 4.66699 -77 15 -125 31zM1241 334
c4 -12.667 7.83203 -23.332 11.499 -31.999s8.5 -14.667 14.5 -18c19.333 -2 38.333 -3 57 -3c46 0 94.5 6.16699 145.5 18.5s102.5 29.166 154.5 50.499c-49.333 16 -92.666 28 -129.999 36c-48.667 10.667 -92.667 16 -132 16h-19c-8 -1.33301 -16.667 -2.33301 -26 -3
s-22.833 -8.16699 -40.5 -22.5s-29.5 -28.5 -35.5 -42.5zM1899 479.002c-34.667 4.66699 -84.668 18.335 -150.001 41.002c-89.333 31.333 -147.333 50.666 -174 57.999c-70 20 -130.333 30 -181 30h-21.5c-7 0 -18.167 -0.833008 -33.5 -2.5s-38.666 -13.167 -69.999 -34.5
s-47 -40 -47 -56c0 -22 0.833008 -46.167 2.5 -72.5s4.83398 -52.5 9.50098 -78.5c18.667 45.333 44 81.666 76 108.999c35.333 30.667 73.333 46 114 46c21.333 0 50 -4.66699 86 -14c21.333 -5.33301 62 -18 122 -38c19.333 -6 67.666 -22.333 144.999 -49l49 24
c48 24 72.333 36.333 73 37zM965.995 501.003c0 -28.667 -0.666992 -47.9932 -2 -57.9932s-4 -15 -8 -15s-8.83301 10.333 -14.5 31s-9.5 40.167 -11.5 58.5s-18.333 65.833 -49 142.5s-54 122.334 -70 137.001l-68 70l40 -329c0.666992 -3.33301 1 -9.33301 1 -18
c0 -64.667 -15.667 -128.667 -47 -192c-40 -80.667 -92.333 -121 -157 -121c-8 -0.666992 -14 -1 -18 -1c-48 0 -85.333 20.667 -112 62c-22 34 -42 92.667 -60 176c-42 -52.667 -64 -80 -66 -82c-34.667 -32.667 -75.334 -49 -122.001 -49c-20 0 -35 3 -45 9
c3.33301 -10 -2 -35 -16 -75c-8.66699 -22.667 -16.334 -52 -23.001 -88s-10 -72.667 -10 -110c0 -52.667 23 -97.667 69 -135c49.333 -40 111.666 -60 186.999 -60c76 0 173 32.667 291 98c96.667 53.333 190.334 117.333 281.001 192c84 69.333 126 113 126 131
c0 73.333 0.333008 134 1 182s1.33398 93 2.00098 135l-3 -14c-4 -22 -10.333 -45.333 -19 -70c-1.33301 -4 -16 -40 -44 -108c-17.333 -42 -36.666 -80 -57.999 -114c-42 -68 -86.333 -112.333 -133 -133l-98 -39c-41.333 -16.667 -71.666 -29.834 -90.999 -39.501
s-31.666 -14.5 -36.999 -14.5c1.33301 3.33301 2.66602 7 3.99902 11c8 8.66699 18 18 30 28l108 84l114 92c42 36 73 65.667 93 89c30.667 37.333 47 57.666 49 60.999c14 21.333 28 52.666 42 93.999c11.333 33.333 19.333 82.666 24 147.999c2.66699 37.333 4 82 4 134
v116c0 69.333 -5 157.666 -15 264.999c-6 56 -11.667 112.333 -17 169c-2 17.333 -3.5 32.166 -4.5 44.499s-5.16699 41.5 -12.5 87.5c-2 17.333 3.16699 40.333 15.5 69s23.166 43 32.499 43c5.33301 0 9 -6 11 -18l12 -119.5c3.33301 -31.667 9.33301 -73.5 18 -125.5
c11.333 -68.667 20 -157.5 26 -266.5s9.83301 -215.833 11.5 -320.5s2.5 -212 2.5 -322c12 -30.667 33.333 -61.334 64 -92.001c-6.66699 16.667 -11.5 33.167 -14.5 49.5s-4.5 32.166 -4.5 47.499c0 6.66699 0.333008 16.5 1 29.5s1 22.5 1 28.5
c0 60.667 27.333 116.334 82 167.001s117.667 76 189 76c29.333 0 86.833 -13.833 172.5 -41.5l256.5 -82.5c111.333 -34.667 201.666 -57 270.999 -67c2 -2 -2.66699 -21.667 -14 -59s-20 -56 -26 -56c-2.66699 0.666992 -7.33398 1 -14 1c-37.333 0 -96 -16.667 -176 -50
c36 -10.667 71.5 -20.167 106.5 -28.5s68.167 -14.5 99.5 -18.5c-4 -19.333 -7.66699 -38.333 -11 -57c-10.667 -38 -19.334 -56.667 -26.001 -56c-51.333 0 -126.666 -21.333 -225.999 -64l-270 -118c-109.333 -43.333 -199.333 -65 -270 -65c2 -24 -3.66699 -46 -17 -66
c-3.33301 -8 -7 -12 -11 -12c-3.33301 0 -6 2.83301 -8 8.5s-2.66699 12.5 -2 20.5c0 14 -1.66699 31 -5 51c-51.333 11.333 -92.833 41 -124.5 89s-53.5 118 -65.5 210c-4 -18 -11.5 -37.667 -22.5 -59l-31.5 -61c-21.333 -44.667 -69 -98.667 -143 -162
c-80.667 -68.667 -165.667 -124.667 -255 -168c-106 -51.333 -202 -77 -288 -77c-83.333 0 -151.333 29.333 -204 88c-48.667 54.667 -73 121 -73 199c0 31.333 4.83301 69.666 14.5 114.999s20.5 82.333 32.5 111c16 43.333 27.667 66 35 68
c-17.333 9.33301 -26 24.333 -26 45c0 50 22 103.333 66 160c50 64 101.667 111.667 155 143c0.666992 2.66699 1 8 1 16c0 14 -0.333008 25.667 -1 35c-3.33301 46 -5 72.667 -5 80c0 29.333 5.33301 44 16 44c8.66699 0 17.834 -8.5 27.501 -25.5s16.5 -36.5 20.5 -58.5
l4 -44c19.333 14.667 35 27 47 37s25.333 22.667 40 38c6.66699 5.33301 14 8 22 8c6.66699 0 10 -2.33301 10 -7c0 -5.33301 -5.66699 -13.166 -17 -23.499s-34.666 -32.833 -69.999 -67.5c-12 -12 -21 -20.333 -27 -25c5.33301 -60.667 12 -111.334 20 -152.001
c12 -60.667 27.333 -106.667 46 -138c23.333 -40 53 -60 89 -60s69.167 8.5 99.5 25.5s51.166 37.5 62.499 61.5c1.33301 2.66699 2 8 2 16c0 21.333 -2.66699 57.333 -8 108s-12.833 112.667 -22.5 186l-27.5 214l-79 84l-85 94l-95 106
c-24.667 28.667 -55.667 71.334 -93 128.001l-83 126c-3.33301 1.33301 -11.166 7.16602 -23.499 17.499s-24.833 17.833 -37.5 22.5c-2.66699 0.666992 -2.83398 8.33398 -0.500977 23.001s3.5 28.667 3.5 42c0 10.667 -1 22.667 -3 36
c6.66699 -1.33301 13.334 -2.33301 20.001 -3c14.667 -8 26 -15 34 -21c24 -12 53 -30 87 -54c40 -28 60 -46.333 60 -55c0 -3.33301 -3.33301 -5 -10 -5c-2 0 -7 0.666992 -15 2l-40 7c7.33301 -13.333 28 -42 62 -86c32 -42 72.667 -92 122 -150
c58 -68.667 110.333 -128 157 -178l-21 148c-5.33301 40 -10.166 84.667 -14.499 134s-6.5 84.666 -6.5 105.999c-2.66699 4 -4.83398 7.5 -6.50098 10.5s-5.16699 7.16699 -10.5 12.5c-2 3.33301 -3 7.66602 -3 12.999c0 10.667 3.5 28 10.5 52l16.5 55
c3.33301 0 6.66602 0.333008 9.99902 1c6 -7.33301 11.333 -17.666 16 -30.999c18 -35.333 34 -69.333 48 -102c23.333 -53.333 35 -87.333 35 -102c0 -5.33301 -1.66699 -8 -5 -8c-1.33301 0 -4.66602 1.66699 -9.99902 5c-8 5.33301 -16.667 14 -26 26l-14 21
c0 -11.333 2 -36 6 -74c2 -22 7.66699 -70.667 17 -146c1.33301 -13.333 9.33301 -77.333 24 -192l87 -84c34 -32 64.333 -81.333 91 -148c19.333 -49.333 35.666 -106 48.999 -170c10 -48.667 15 -82 15 -100zM1144 -126.99c0 -15.333 -3.66699 -32 -11 -50
s-16 -33.333 -26 -46l-92 49c-14 8.66699 -21 18 -21 28l31 99c12 -10 38 -24.667 78 -44c27.333 -13.333 41 -25.333 41 -36zM295.995 1074.01c2.66699 -8 3.99902 -13.9941 3.99902 -17.9941c0 -8.66699 -5.33301 -11.334 -16 -8.00098
c-4 3.33301 -9.5 6.66602 -16.5 9.99902s-12.5 5.66602 -16.5 6.99902c-19.333 -38.667 -67 -101.334 -143 -188.001c-80 -91.333 -130.667 -137 -152 -137c-4 0 -6.66699 1.66699 -8 5c36 34 81 81.333 135 142c70.667 80 119.667 143 147 189c-12.667 8 -25 16.333 -37 25
c-11.333 10 -17 23.667 -17 41c0 9.33301 6.16699 22.333 18.5 39s23.5 25 33.5 25c14 0 24.5 -6.33301 31.5 -19s10.5 -28.667 10.5 -48c0 -12.667 -1.33301 -24 -4 -34c6.66699 -4.66699 11.334 -8.33398 14.001 -11.001c10 -8.66699 15.333 -15.334 16 -20.001z
M241.994 1116.02c0.666992 2.66699 1 7.00098 1 13.001c0 10 -2.16699 18.167 -6.5 24.5s-10.166 8.16602 -17.499 5.49902c-8 -4.66699 -12 -9.66699 -12 -15c-1.33301 -4.66699 1 -9 7 -13c1.33301 -1.33301 10.666 -6.33301 27.999 -15zM1813.99 1304.02
l-2.00098 -47.001l-49 -23c-76 -35.333 -139 -65.833 -189 -91.5s-111.667 -59.167 -185 -100.5l-104 -60l3 50l63 34c114.667 62.667 192.334 104.334 233.001 125.001zM1512.99 1624.02c-44.667 -22 -87 -43.999 -127 -65.999l-115 -65l-51 -29l2 47l50 28
c66 37.333 104.667 59 116 65c50 27.333 92.667 49.666 128 66.999zM1477.99 1318.02c1.33301 -9.33301 2.00098 -15.665 2.00098 -18.998c0 -10.667 -3.66699 -20 -11 -28c-10 -10.667 -20.333 -16 -31 -16c-8.66699 0 -16 3.33301 -22 10l-15 23
c0 -6.66699 -1 -12.334 -3 -17.001c-2 -8.66699 -6.16699 -15.834 -12.5 -21.501s-13.833 -8.5 -22.5 -8.5c-11.333 0 -19.333 2.33301 -24 7c-4.66699 6.66699 -7.66699 10.667 -9 12c-4.66699 10.667 -8.16699 27.5 -10.5 50.5s-3.5 45.167 -3.5 66.5c0 13.333 2 20 6 20
c2.66699 0 5.66699 -3.33301 9 -10l4 -10c0.666992 -8 1.66699 -18.833 3 -32.5s2 -27.167 2 -40.5c0 -2.66699 2.83301 -6.5 8.5 -11.5s10.5 -7.5 14.5 -7.5c6.66699 0 13 2.66699 19 8c2 1.33301 4.33301 4.33301 7 9c0 15.333 -1.16699 27.666 -3.5 36.999
s-5.83301 21.333 -10.5 36c-2 17.333 2.33301 26 13 26c6.66699 0 10 -6.33301 10 -19c2 -9.33301 3 -18.666 3 -27.999c6.66699 -16.667 11.667 -27.667 15 -33c7.33301 -12 15.666 -18.333 24.999 -19c5.33301 -1.33301 10 -0.666016 14 2.00098l-26 71
c-2 5.33301 -1.66699 12.833 1 22.5s6 14.5 10 14.5c4.66699 0 8 -8.33301 10 -25c8 -14 14.667 -26.833 20 -38.5s8 -21.834 8 -30.501zM723.994 1990.02c1.33301 -9.33301 1.99707 -15.333 1.99707 -18c0 -8 -4.66699 -10.333 -14 -7c-7.33301 3.33301 -13 6 -17 8
c-8 4 -13.333 7.33301 -16 10c-12 -21.333 -39.667 -59 -83 -113s-84.666 -101 -123.999 -141c-45.333 -46.667 -74.666 -70 -87.999 -70c-4.66699 0 -7.33398 1.66699 -8.00098 5c18 14.667 44.667 40.667 80 78c32.667 34 70.334 76.833 113.001 128.5
s72.334 92.5 89.001 122.5l-38 23c-12 10 -18 23.333 -18 40c0 9.33301 6.33301 22.333 19 39s23.334 25 32.001 25c15.333 0 26.666 -6.83301 33.999 -20.5s11 -30.5 11 -50.5c0 -12.667 -0.666992 -22 -2 -28l13 -10c8.66699 -7.33301 13.667 -14.333 15 -21z
M666.991 2033.02c1.33301 3.33301 1.99902 8.33301 1.99902 15c0 8.66699 -2 16.334 -6 23c-4 6.66699 -8.66699 8.66699 -14 6c-9.33301 -5.33301 -15 -10.666 -17 -16c-0.666992 -4 2.83301 -8.5 10.5 -13.5s15.834 -9.83301 24.501 -14.5zM1148.99 2110.02
c3.33301 -8 5 -14.667 5 -20c0 -7.33301 -4.66699 -9.33301 -14 -6l-33 17c-14 -24 -41.667 -61.667 -83 -113c-46.667 -57.333 -87.667 -104.333 -123 -141c-44.667 -46 -74.334 -69 -89.001 -69c-4 0 -6.66699 2 -8 6c30.667 26 75.334 72 134.001 138
c70.667 79.333 119 143 145 191c-12 7.33301 -23.667 15 -35 23c-12.667 10.667 -19 24.667 -19 42c0 12.667 8.66699 28 26 46c10 10.667 18.667 16 26 16c14.667 0 25.5 -6.33301 32.5 -19s10.5 -28.667 10.5 -48c0 -11.333 -1 -22.666 -3 -34l13 -10
c9.33301 -8 14.333 -14.333 15 -19zM1094.99 2150.02c1.33301 6.66699 2 12 2 16c0 10 -2 18 -6 24s-9.66699 7.66699 -17 5c-7.33301 -2 -12 -6.66699 -14 -14c0 -5.33301 4.66699 -11.333 14 -18c9.33301 -5.33301 16.333 -9.66602 21 -13zM906.99 1222.02
c4 -13.333 6 -26.667 6 -40c0 -8.66699 -0.833008 -19.5 -2.5 -32.5s-4.5 -28.833 -8.5 -47.5c-6 -8.66699 -10 -13 -12 -13c0.666992 28 -4.33301 60.667 -15 98c-12.667 41.333 -35 78 -67 110l10 71c14 -4.66699 29.833 -22 47.5 -52s31.5 -61.333 41.5 -94z
M1710.99 895.017c-1.33301 -2 -2.66406 -3.66797 -3.99707 -5.00098c-1.33301 -6.66699 -3.33301 -9.66699 -6 -9c-8.66699 2.66699 -16.334 6.5 -23.001 11.5s-12.334 11.5 -17.001 19.5c-3.33301 8 -5 16.333 -5 25c0 7.33301 1.5 13.833 4.5 19.5
s7.16699 8.83398 12.5 9.50098c25.333 0 48 -16 68 -48c17.333 -27.333 26 -52 26 -74c9.33301 45.333 19 82 29 110s23.333 42 40 42c7.33301 0 15.666 -3 24.999 -9c5.33301 -3.33301 8 -14.333 8 -33c0 -19.333 -4 -31 -12 -35c-2.66699 0.666992 -4.66699 3.66699 -6 9
c-3.33301 12.667 -11.666 19 -24.999 19c-10 0 -19 -16.333 -27 -49c-20.667 -80.667 -31.334 -121.334 -32.001 -122.001c-6.66699 0.666992 -10.667 1.33398 -12 2.00098c0 32.667 -5.66699 58.667 -17 78c-0.666992 1.33301 -9.66699 14.333 -27 39z" />
    <glyph glyph-name="alefmadfina" unicode="&#x622;" horiz-adv-x="624" arabic-form="final"
d="M507 0c-13.333 0 -25.668 1.33105 -37.001 3.99805l-47 20c-11.333 5.33301 -24.5 14.5 -39.5 27.5s-31.833 29.5 -50.5 49.5c-12.667 21.333 -25.334 48.333 -38.001 81s-26 70.334 -40 113.001l-27 147l-7 86l-12 98v621l126 138v-713l4 -63l7 -64l10 -48
c2.66699 -21.333 6.33398 -39.666 11.001 -54.999s9.33398 -28.333 14.001 -39l14 -39l12 -34c4 -6 10.5 -13.5 19.5 -22.5s19.5 -18.5 31.5 -28.5l39 -20l31 -7h108v-252h-129zM544.998 1526c-39.333 -27.333 -73.502 -48.333 -102.502 -63s-57.167 -22 -84.5 -22h-74
c-9.33301 0 -14.333 0.333008 -15 1l-31 11l-43 17l-41 22l-29 -50c-24.667 -36.667 -54.334 -55 -89.001 -55l58 125l64 116l41 -28l50 -22l63 -16c10.667 -1.33301 20.334 -2.83301 29.001 -4.5s18.334 -2.5 29.001 -2.5c30.667 0 81 15 151 45
c34.667 23.333 68.334 35 101.001 35h25z" />
    <glyph glyph-name="wawhamzafina" unicode="&#x624;" horiz-adv-x="990" arabic-form="final"
d="M1015 0h-158.003c-4.66699 -18.667 -11.167 -39.5 -19.5 -62.5s-20.166 -47.833 -35.499 -74.5l-28 -52c-3.33301 -10 -10 -21.667 -20 -35s-21 -27 -33 -41s-24.5 -27 -37.5 -39s-24.833 -21.667 -35.5 -29l-49 -37l-63 -35c-11.333 -6 -30.333 -11.333 -57 -16l-28 -9
l-27 -3c-105.333 0 -185.666 19.333 -240.999 58c-10 7.33301 -21.667 13 -35 17l-33 32c-6 5.33301 -15.167 14.5 -27.5 27.5s-27.166 32.167 -44.499 57.5l154 -19h181c9.33301 0 21.166 1.5 35.499 4.5s29.333 7.16699 45 12.5s30.834 11.166 45.501 17.499
s27.334 12.833 38.001 19.5c26.667 16.667 49.667 31.667 69 45s36.666 27 51.999 41s29.5 29.167 42.5 45.5s27.5 36.5 43.5 60.5h-41l-71 14c-18 4 -34.333 8.5 -49 13.5s-27.667 12.333 -39 22s-20 22.334 -26 38.001s-9 35.167 -9 58.5c0 37.333 7.16699 75 21.5 113
s31.833 73.167 52.5 105.5s42.667 59.5 66 81.5s44.333 34.667 63 38c19.333 -0.666992 38.833 -10.167 58.5 -28.5s38.5 -46.833 56.5 -85.5l46 -104h137v-252zM754.997 175c0 6.66699 -2.66699 15.167 -8 25.5s-12 20.833 -20 31.5s-17 20.167 -27 28.5
s-20.667 14.5 -32 18.5l-25 -27l-9 -22l-5 -30l22 -25l22 -3h82v3zM710.997 640c0 -27.333 -13.668 -49.8291 -41.001 -67.4961s-66.333 -36.167 -117 -55.5l-304 -104c0 48.667 53.667 91.667 161 129c-74.667 38 -112 78 -112 120c0 26 29.333 75 88 147
c69.333 66.667 127.666 100 174.999 100c22 0 41.167 -7 57.5 -21s24.5 -34.667 24.5 -62c0 -14.667 -3.5 -29.834 -10.5 -45.501s-16.167 -34.167 -27.5 -55.5c-38.667 32.667 -77 49 -115 49c-33.333 0 -59.833 -5.33301 -79.5 -16s-29.5 -22.667 -29.5 -36
c0 -9.33301 8.16699 -20.5 24.5 -33.5s35.833 -25.5 58.5 -37.5s46.834 -22.167 72.501 -30.5s48.5 -12.5 68.5 -12.5c9.33301 0 16.833 0.166992 22.5 0.5s11.5 1.66602 17.5 3.99902s13.833 5.66602 23.5 9.99902s23.834 10.166 42.501 17.499z" />
    <glyph glyph-name="yehhamzafina" unicode="&#x626;" horiz-adv-x="1348" arabic-form="final"
d="M500 406c0 -14.667 -4.49707 -27.8359 -13.4971 -39.5029s-21.833 -23.167 -38.5 -34.5c-12 -10.667 -26.667 -19.167 -44 -25.5l-60 -22.5l-305 -105c0 50.667 53.667 94.667 161 132c-16.667 8 -31.5 17 -44.5 27s-23.833 19 -32.5 27c-22 20 -33 41.667 -33 65
c0 16 7.33301 35.833 22 59.5s36 52.167 64 85.5c65.333 67.333 123.666 101 174.999 101c22 0 40.833 -7.16699 56.5 -21.5s23.5 -34.5 23.5 -60.5c0 -15.333 -3 -30.666 -9 -45.999s-15 -33.666 -27 -54.999c-38.667 32.667 -76.667 49 -114 49
c-12.667 0 -25.334 -1.5 -38.001 -4.5s-24.334 -6.83301 -35.001 -11.5s-19.334 -10 -26.001 -16s-10 -12.333 -10 -19c0 -15.333 25.333 -38.666 76 -69.999c52 -29.333 97.333 -44 136 -44c10.667 0 19.834 0.166992 27.501 0.5s15.5 1.5 23.5 3.5
s16.833 4.83301 26.5 8.5s22.5 9.16699 38.5 16.5zM748.003 -645.002l-262 -259l-136 130l129 131l264 -263l135 135zM1215 -0.00195312c-11.333 0 -27.665 -1.33301 -48.998 -4s-48.333 -6.33398 -81 -11.001c-32 -4.66699 -56.833 -8.5 -74.5 -11.5
s-29.834 -4.83301 -36.501 -5.5l33 -11l105 -27c10.667 0 21.167 -0.5 31.5 -1.5s22.166 -2.83301 35.499 -5.5l28 -6l33 -11c10.667 -4.66699 20.167 -9 28.5 -13s15.166 -10 20.499 -18l9 -28l4 -29c0 -72.667 -67.333 -156.667 -202 -252l-50 -25l-39 -21l-102 -44
c-22 -6 -49 -12.833 -81 -20.5s-72 -16.5 -120 -26.5l-64 -6c-21.333 -2 -42 -3 -62 -3c-126 0 -237 29.667 -333 89c-73.333 54 -115.666 126.667 -126.999 218c0 8.66699 -1 13.667 -3 15v19c0 62 18.667 130 56 204l18 42l28 41l24 37l32 40
c35.333 43.333 63.333 65 84 65l6 -23l-39 -94l-37 -83l-11 -36l-14 -53l-7 -28l-3 -28c0 -51.333 26.333 -102 79 -152c66 -43.333 173.667 -65 323 -65c35.333 0 71.5 2.33301 108.5 7s73.5 11 109.5 19l58 16l54 15l49 14c16 0.666992 29.667 5.33398 41 14.001l57 46
l-137 24c-23.333 4 -44 8.66699 -62 14s-34.667 13.333 -50 24c-21.333 16 -39.333 38.667 -54 68l-2 33c0 88.667 58.333 168.667 175 240c107.333 60 197 90 269 90h98v-252h-157z" />
    <glyph glyph-name="yehhamzainit" unicode="&#x626;" horiz-adv-x="535" arabic-form="initial"
d="M480 886c0 -14.667 -4.33008 -27.835 -12.9971 -39.502s-21.667 -23.167 -39 -34.5c-12 -10 -26.667 -18.333 -44 -25l-59 -23l-305 -105c0 50.667 53.667 94.667 161 132c-17.333 8.66699 -32.5 17.834 -45.5 27.501s-23.5 18.834 -31.5 27.501
c-22.667 19.333 -34 40.666 -34 63.999c0 16 7.5 35.833 22.5 59.5s36.5 52.5 64.5 86.5c65.333 66.667 123.666 100 174.999 100c21.333 0 40 -7.16699 56 -21.5s24 -34.5 24 -60.5c0 -15.333 -3.16699 -30.666 -9.5 -45.999s-15.5 -33.666 -27.5 -54.999
c-38 32.667 -75.667 49 -113 49c-13.333 0 -26.333 -1.33301 -39 -4s-24.334 -6.33398 -35.001 -11.001s-19.167 -10.167 -25.5 -16.5s-9.5 -12.5 -9.5 -18.5c0 -16 25 -39.333 75 -70c52.667 -30 98 -45 136 -45c11.333 0 20.666 0.166992 27.999 0.5s15 1.5 23 3.5
s16.833 4.83301 26.5 8.5s22.5 9.16699 38.5 16.5zM486.003 324.999l0.000976562 -17.999l-4 -26l-5 -39v-21l-7 -22c-2.66699 -14 -4.83398 -24.833 -6.50098 -32.5s-4 -14.167 -7 -19.5s-6.5 -10.833 -10.5 -16.5s-10 -13.167 -18 -22.5
c-7.33301 -10.667 -14.5 -19.834 -21.5 -27.501l-21.5 -23.5l-76 -44c-32.667 -8.66699 -61.334 -13 -86.001 -13h-254v252h396l12 8l11 19l1 12l-22 97l-14 35c-7.33301 19.333 -15.666 31 -24.999 35l67 194l29 -46l16 -33l11 -28l15 -44l16 -68l4 -41l3 -27z" />
    <glyph glyph-name="yehhamzamedi" unicode="&#x626;" horiz-adv-x="729" arabic-form="medial"
d="M503 742c0 -14.667 -4.49707 -27.8359 -13.4971 -39.5029s-21.833 -23.167 -38.5 -34.5c-12 -10.667 -26.667 -19.167 -44 -25.5l-60 -22.5l-305 -105c0 50.667 53.667 94.667 161 132c-16.667 8 -31.5 17 -44.5 27s-23.833 19 -32.5 27c-22.667 20 -34 41.667 -34 65
c0 16 7.5 35.833 22.5 59.5s36.5 52.167 64.5 85.5c65.333 67.333 123.666 101 174.999 101c21.333 0 40 -7.16699 56 -21.5s24 -34.5 24 -60.5c0 -15.333 -3 -30.666 -9 -45.999s-15 -33.666 -27 -54.999c-38.667 32.667 -76.667 49 -114 49
c-12.667 0 -25.334 -1.5 -38.001 -4.5s-24.334 -6.83301 -35.001 -11.5s-19.334 -10 -26.001 -16s-10 -12.333 -10 -19c0 -15.333 25.333 -38.666 76 -69.999c52 -29.333 97 -44 135 -44c11.333 0 20.833 0.166992 28.5 0.5s15.334 1.5 23.001 3.5s16.5 4.83301 26.5 8.5
s23 9.16699 39 16.5zM647.003 -0.00195312c-6 0 -17.5 0.500977 -34.5 1.50098s-35.333 2.33301 -55 4s-38.334 4 -56.001 7s-29.5 6.16699 -35.5 9.5l-66 48l-17 17.5c-6 6.33301 -12 13.166 -18 20.499l-19 26l-23 -33l-18 -24l-21 -15l-32 -28l-20 -14l-37 -13l-33 -7
h-162v252h188l44 4l45 9c20 7.33301 44.333 47.333 73 120c16.667 36.667 33.334 55 50.001 55c8.66699 0 16.667 -2.33301 24 -7v-103l14 -32c4 -10 19.333 -21.667 46 -35l37 -11h234v-252h-108z" />
    <glyph glyph-name="aleffina" unicode="&#x627;" horiz-adv-x="479" arabic-form="final"
d="M396 0c-12 0 -23.668 1.33105 -35.001 3.99805l-49 20c-10 5.33301 -22.667 14.333 -38 27s-32.333 29.334 -51 50.001c-13.333 21.333 -26.333 48.333 -39 81s-26 70.334 -40 113.001l-25 147l-7 86l-14 98v621l127 138v-713l5 -63l7 -64l8 -48
c4 -21.333 8.33301 -40 13 -56s9.33398 -28.667 14.001 -38l12 -39l14 -34c6.66699 -12 23.667 -29 51 -51l39 -20l29 -7h108v-252h-129z" />
    <glyph glyph-name="behfina" unicode="&#x628;" horiz-adv-x="1546" arabic-form="final"
d="M1576 0l-42.0039 0.000976562c-17.333 0 -38 4.16699 -62 12.5s-50.333 23.166 -79 44.499c-9.33301 8 -17.666 18.167 -24.999 30.5s-15 26.166 -23 41.499l-12 40l-3 14l-52 -40l-88 -48l-55 -24l-57 -19l-140 -35c-61.333 -10.667 -115.166 -18.5 -161.499 -23.5
s-85.5 -7.5 -117.5 -7.5c-54.667 0 -106.334 3.5 -155.001 10.5s-93 18.167 -133 33.5s-75.5 35.833 -106.5 61.5s-56.167 57.167 -75.5 94.5l-14 49l-20 49l-9 37l-3 35l3 46l7 19l5 33c4.66699 12.667 9.33398 24.167 14.001 34.5s9.33398 18.833 14.001 25.5l14 22l16 14
l25 35c35.333 32.667 65 49 89 49l-4 -24l-8 -22l-20 -32l-17 -55c0 -54.667 3 -90.667 9 -108c6.66699 -15.333 31.334 -41.333 74.001 -78c23.333 -13.333 49.166 -26.666 77.499 -39.999s66.5 -28.333 114.5 -45c44.667 -15.333 99.334 -23 164.001 -23h68l38 6l25 3
l32 11l164 33c26 8.66699 52.667 18.667 80 30l46 19l51 35l43 23l46 38l32 30l75 70l-6 -46l6 -35l11 -57c10 -43.333 25.333 -71 46 -83l11 -11l28 -15l18 -6h42v-252zM922.996 -332.999l-146 -151l-148 151l148 147z" />
    <glyph glyph-name="behinit" unicode="&#x628;" horiz-adv-x="535" arabic-form="initial"
d="M249 -497l-145 151l145 147l150 -147zM486 325l0.000976562 -17.999l-4 -26l-5 -39v-21l-7 -22c-2.66699 -14 -4.83398 -24.833 -6.50098 -32.5s-4 -14.167 -7 -19.5s-6.5 -10.833 -10.5 -16.5s-10 -13.167 -18 -22.5c-7.33301 -10.667 -14.5 -19.834 -21.5 -27.501
l-21.5 -23.5l-76 -44c-32.667 -8.66699 -61.334 -13 -86.001 -13h-254v252h396l12 8l11 19l1 12l-22 97l-14 35c-7.33301 19.333 -15.666 31 -24.999 35l67 194l29 -46l16 -33l11 -28l15 -44l16 -68l4 -41l3 -27z" />
    <glyph glyph-name="behmedi" unicode="&#x628;" horiz-adv-x="729" arabic-form="medial"
d="M647 0c-6 0 -17.5 0.500977 -34.5 1.50098s-35.333 2.33301 -55 4s-38.334 4 -56.001 7s-29.5 6.16699 -35.5 9.5l-66 48l-17 17.5c-6 6.33301 -12 13.166 -18 20.499l-19 26l-23 -33l-18 -24l-21 -15l-32 -28l-20 -14l-37 -13l-33 -7h-162v252h188l44 4l45 9
c20 7.33301 44.333 47.333 73 120c16.667 36.667 33.334 55 50.001 55c8.66699 0 16.667 -2.33301 24 -7v-103l14 -32c4 -10 19.333 -21.667 46 -35l37 -11h234v-252h-108zM377 -486.999l-147 152l147 146l148 -146z" />
    <glyph glyph-name="tehgolfina" unicode="&#x629;" horiz-adv-x="776" arabic-form="final"
d="M781 0c-32.667 0 -65.334 9.50293 -98.001 28.5029s-62 43.333 -88 73s-47.167 62 -63.5 97s-24.5 68.167 -24.5 99.5c-92.667 -95.333 -176.667 -143 -252 -143c-23.333 0 -46.666 4.5 -69.999 13.5s-44.166 20.5 -62.499 34.5s-33.333 30.167 -45 48.5
s-17.5 37.166 -17.5 56.499c0 11.333 4.16699 26.5 12.5 45.5s18.833 39.333 31.5 61s27 42.167 43 61.5s31 35.666 45 48.999c42 35.333 82.167 64.5 120.5 87.5s75.166 42.5 110.499 58.5c22 10 41.667 21.333 59 34s31.333 29.667 42 51c6 9.33301 17 76.666 33 201.999
c2 15.333 6.66699 23 14 23c6.66699 0 16.667 -11 30 -33c4.66699 -9.33301 9 -34.333 13 -75s6 -96 6 -166c0 -30 -0.166992 -59.667 -0.5 -89s-0.5 -59.333 -0.5 -90c0 -184 54 -276 162 -276v-252zM503 441.003v146c-2 -6 -11.833 -14.5 -29.5 -25.5
s-39.667 -23.333 -66 -37l-85 -43l-85.5 -40.5c-6.66699 -4 -10 -8.66699 -10 -14c0 -24 37.667 -36 113 -36c60.667 0 115 16.667 163 50zM570 1319l-255 -258l-137 129l137 133l248 -252l131 126z" />
    <glyph glyph-name="tehfina" unicode="&#x62a;" horiz-adv-x="1546" arabic-form="final"
d="M1576 0l-42.0039 0.000976562c-17.333 0 -38 4.16699 -62 12.5s-50.333 23.166 -79 44.499c-9.33301 8 -17.666 18.167 -24.999 30.5s-15 26.166 -23 41.499l-12 40l-3 14l-52 -40l-88 -48l-55 -24l-57 -19l-140 -35c-61.333 -10.667 -115.166 -18.5 -161.499 -23.5
s-85.5 -7.5 -117.5 -7.5c-54.667 0 -106.334 3.5 -155.001 10.5s-93 18.167 -133 33.5s-75.5 35.833 -106.5 61.5s-56.167 57.167 -75.5 94.5l-14 49l-20 49l-9 37l-3 35l3 46l7 19l5 33c4.66699 12.667 9.33398 24.167 14.001 34.5s9.33398 18.833 14.001 25.5l14 22l16 14
l25 35c35.333 32.667 65 49 89 49l-4 -24l-8 -22l-20 -32l-17 -55c0 -54.667 3 -90.667 9 -108c6.66699 -15.333 31.334 -41.333 74.001 -78c23.333 -13.333 49.166 -26.666 77.499 -39.999s66.5 -28.333 114.5 -45c44.667 -15.333 99.334 -23 164.001 -23h68l38 6l25 3
l32 11l164 33c26 8.66699 52.667 18.667 80 30l46 19l51 35l43 23l46 38l32 30l75 70l-6 -46l6 -35l11 -57c10 -43.333 25.333 -71 46 -83l11 -11l28 -15l18 -6h42v-252zM1124 840.001l-123 120l-256 -254l-137 126l137 134l250 -252z" />
    <glyph glyph-name="tehinit" unicode="&#x62a;" horiz-adv-x="535" arabic-form="initial"
d="M486 325l0.000976562 -17.999l-4 -26l-5 -39v-21l-7 -22c-2.66699 -14 -4.83398 -24.833 -6.50098 -32.5s-4 -14.167 -7 -19.5s-6.5 -10.833 -10.5 -16.5s-10 -13.167 -18 -22.5c-7.33301 -10.667 -14.5 -19.834 -21.5 -27.501l-21.5 -23.5l-76 -44
c-32.667 -8.66699 -61.334 -13 -86.001 -13h-254v252h396l12 8l11 19l1 12l-22 97l-14 35c-7.33301 19.333 -15.666 31 -24.999 35l67 194l29 -46l16 -33l11 -28l15 -44l16 -68l4 -41l3 -27zM532.001 956.001l-136 -133l-260 263l-129 -130l136 -131l256 259z" />
    <glyph glyph-name="tehmedi" unicode="&#x62a;" horiz-adv-x="729" arabic-form="medial"
d="M647 0c-6 0 -17.5 0.500977 -34.5 1.50098s-35.333 2.33301 -55 4s-38.334 4 -56.001 7s-29.5 6.16699 -35.5 9.5l-66 48l-17 17.5c-6 6.33301 -12 13.166 -18 20.499l-19 26l-23 -33l-18 -24l-21 -15l-32 -28l-20 -14l-37 -13l-33 -7h-162v252h188l44 4l45 9
c20 7.33301 44.333 47.333 73 120c16.667 36.667 33.334 55 50.001 55c8.66699 0 16.667 -2.33301 24 -7v-103l14 -32c4 -10 19.333 -21.667 46 -35l37 -11h234v-252h-108zM619 823.001l-135 -133l-261 263l-129 -130l133 -131l259 260z" />
    <glyph glyph-name="sayfina" unicode="&#x62b;" horiz-adv-x="1543" arabic-form="final"
d="M927 995l-128 -128l-134 128l134 132zM1095 771l-137 -134l-132 134l132 126zM809 766l-138 -135l-132 135l132 129zM1576 0h-42c-10 0 -23 1.66699 -39 5s-32.833 9.33301 -50.5 18s-35.167 21.5 -52.5 38.5s-33 39.5 -47 67.5l-15 54l-52 -40l-88 -48l-55 -24l-57 -19
l-140 -35c-61.333 -10.667 -115.166 -18.5 -161.499 -23.5s-85.5 -7.5 -117.5 -7.5c-54.667 0 -106.334 3.5 -155.001 10.5s-93 18.167 -133 33.5s-75.5 35.833 -106.5 61.5s-56.167 57.167 -75.5 94.5l-14 49l-20 49l-9 37l-3 35l3 46l7 19l5 33
c4.66699 12.667 9.33398 24.167 14.001 34.5s9.33398 18.833 14.001 25.5l14 22l16 14l25 35c35.333 32.667 65 49 89 49l-4 -24l-8 -22l-20 -32l-17 -55v-46c0 -18 0.833008 -32.333 2.5 -43s5.16699 -20.667 10.5 -30s13.5 -18.833 24.5 -28.5l45.5 -38.5
c14 -8.66699 32 -19 54 -31s47.667 -23.833 77 -35.5s62.666 -21.5 99.999 -29.5s79 -12 125 -12h68l63 9l32 11l164 33c26 8.66699 52.667 18.667 80 30l46 19l51 35l43 23l46 38l107 100l-6 -46l17 -92c9.33301 -42 24.666 -69.667 45.999 -83l11 -11l28 -15l18 -6h42
v-252z" />
    <glyph glyph-name="sayinit" unicode="&#x62b;" horiz-adv-x="564" arabic-form="initial"
d="M486 325l0.000976562 -17.999l-4 -26l-5 -60l-7 -22c-6 -30.667 -15.667 -55.834 -29 -75.501s-32 -41.834 -56 -66.501l-76 -44c-32.667 -8.66699 -61.334 -13 -86.001 -13h-254v252h396l12 8l11 19l1 12l-22 97l-14 35c-8.66699 18.667 -17 30.334 -25 35.001l67 194
l29 -46l16 -33l26 -72l16 -68l7 -68zM406.001 1044l-255 -259l-137 132l129 132l257 -265l139 136zM265.001 1025l-132 130l132 134l134 -134z" />
    <glyph glyph-name="saymedi" unicode="&#x62b;" horiz-adv-x="720" arabic-form="medial"
d="M647 0c-6 0 -17.4971 0.500977 -34.4971 1.50098s-35.333 2.33301 -55 4s-38.334 4 -56.001 7s-29.5 6.16699 -35.5 9.5l-66 48l-17 17.5c-6 6.33301 -12 13.166 -18 20.499l-19 26l-41 -57l-21 -15l-52 -42l-37 -13l-33 -7h-162v252h188l44 4l45 9
c10.667 3.33301 21.5 15 32.5 35s24.5 48.333 40.5 85c7.33301 18.667 15.666 32.5 24.999 41.5s17.666 13.5 24.999 13.5c8.66699 0 16.667 -2.33301 24 -7v-103l14 -32c4.66699 -11.333 20 -23 46 -35l37 -11h234v-252h-108zM510.003 932.001l-261 -259l-133 131l128 131
l261 -263l136 134zM367.003 913.001l-133 130l133 133l136 -133z" />
    <glyph glyph-name="jeemfina" unicode="&#x62c;" horiz-adv-x="1218" arabic-form="final"
d="M552 -358l-149 151l149 147l148 -147zM890 -844l-43.0078 -9.99805l-99 -14l-122 -7c-72 0 -137.167 5.33301 -195.5 16s-109.666 28.667 -153.999 54s-81.833 58.666 -112.5 99.999s-54.667 92.333 -72 153l-23 132l-7 59l-3 66c0 29.333 1.83301 60.333 5.5 93
s9.83398 68.667 18.501 108l21 101l40 90c18.667 42 41.334 83.5 68.001 124.5s55.334 81.167 86.001 120.5l44 43l36 29l-43 13l-33 4l-36 -4l-39 -13l-37 -18l-22 -18l-24 -25l-61 -86l9 129c6 30.667 16.167 61.167 30.5 91.5s33.833 57.666 58.5 81.999
s54.834 44.166 90.501 59.499s77.167 23 124.5 23l66 -1l62 -11l75 -10l76 -4c25.333 0.666992 53.333 1.66699 84 3s63.667 5 99 11l98 15l-94 -252l-131 -15l3 -27v-54l9 -14c10.667 -17.333 31.334 -29.666 62.001 -36.999l76 -4h358v-252h-333
c-16 0 -31.667 1.16699 -47 3.5s-31.166 7.16602 -47.499 14.499s-33.166 17.666 -50.499 30.999s-36.333 31 -57 53l-24 32l-16 54l-7 50l-5 55l5 72c-27.333 -1.33301 -64 -14.666 -110 -39.999l-61 -34l-24 -19l-31 -20l-47 -43l-54 -56
c-77.333 -88.667 -124.666 -199.334 -141.999 -332.001l-5 -77c0 -57.333 8.66699 -107.166 26 -149.499s43.333 -80.166 78 -113.499c11.333 -11.333 29.5 -24.333 54.5 -39s55.5 -28.5 91.5 -41.5s76.667 -23.833 122 -32.5s93.666 -13 144.999 -13l20 2l18 16h501v-51z
" />
    <glyph glyph-name="jeeminit" unicode="&#x62c;" horiz-adv-x="955" arabic-form="initial"
d="M932 473l-70.002 -235l-85 -6h-57l-63 -5l-47 -11c-14.667 -2 -35.5 -9.33301 -62.5 -22l-96.5 -44l-199 -98c-35.333 -15.333 -64.666 -27.333 -87.999 -36s-41.666 -14 -54.999 -16h-109v252h134l66 6h49l52 21l83 28l67 40l-90 52l-35 14l-45 25l-26 10l-20 3
c-35.333 0 -62 -6 -80 -18l-89 -45l-6 25v35l9 36l16 44l30 40c42 74 100.333 111 175 111c20.667 0 60.667 -12 120 -36l154 -98l93 -40l98 -18l79 -11zM719.998 -203l-149 -153l-147 153l147 143z" />
    <glyph glyph-name="jeemmedi" unicode="&#x62c;" horiz-adv-x="1211" arabic-form="medial"
d="M658 -315l-146 151l146 164l150 -164zM1050 0l-50 7.00098l-62 22c-16.667 10.667 -31.334 20.667 -44.001 30s-26 23.333 -40 42l-35 119l-15 82l-97 -28l-101 -36l-85 -43l-261 -154c-80.667 -27.333 -131.334 -41 -152.001 -41h-108v252h90l114 13
c31.333 4.66699 59 10 83 16s45 12.333 63 19l20 4l42 18l63 39l37 28l-16 10l-61 22l-78 26l-63 7c-5.33301 0 -16.166 -2.66699 -32.499 -8s-37.833 -13 -64.5 -23l-53 -31l-7 4l-15 18c0 20.667 4 43.667 12 69s18.5 49.666 31.5 72.999s27.833 44 44.5 62
s33.334 30.333 50.001 37l49 18l47 6c18.667 0 39.667 -3 63 -9s49.333 -15.667 78 -29l195 -78l88 -18h130l139 21l-42 -212l-131 -33l6 -19c4.66699 -10 9.66699 -17 15 -21l16 -11l24 -11l35 -7h257v-252h-179z" />
    <glyph glyph-name="hahfina" unicode="&#x62d;" horiz-adv-x="1091" arabic-form="final"
d="M890 -844l-43.0078 -9.99805l-99 -14l-122 -7c-72 0 -137.167 5.33301 -195.5 16s-109.666 28.667 -153.999 54s-81.833 58.666 -112.5 99.999s-54.667 92.333 -72 153l-23 132l-7 59l-3 66c0 29.333 1.83301 60.333 5.5 93s9.83398 68.667 18.501 108l21 101l40 90
c18.667 42 41.334 83.5 68.001 124.5s55.334 81.167 86.001 120.5l44 43l36 29l-43 13l-33 4l-36 -4l-39 -13l-37 -18l-22 -18l-24 -25l-61 -86l9 129c6 30.667 16.167 61.167 30.5 91.5s33.833 57.666 58.5 81.999s54.834 44.166 90.501 59.499s77.167 23 124.5 23l66 -1
l62 -11l75 -10l76 -4c25.333 0.666992 53.333 1.66699 84 3s63.667 5 99 11l98 15l-94 -252l-131 -15l3 -27v-54l9 -14c10.667 -17.333 31.334 -29.666 62.001 -36.999l76 -4h232v-252h-207c-16 0 -31.667 1.16699 -47 3.5s-31.166 7.16602 -47.499 14.499
s-33.166 17.666 -50.499 30.999s-36.333 31 -57 53l-24 32l-16 54l-7 50l-5 55l5 72c-27.333 -1.33301 -64 -14.666 -110 -39.999l-61 -34l-24 -19l-31 -20l-47 -43l-54 -56c-77.333 -88.667 -124.666 -199.334 -141.999 -332.001l-5 -77
c0 -57.333 8.66699 -107.166 26 -149.499s43.333 -80.166 78 -113.499c11.333 -11.333 29.5 -24.333 54.5 -39s55.5 -28.5 91.5 -41.5s76.667 -23.833 122 -32.5s93.666 -13 144.999 -13l20 2l18 16h501v-51z" />
    <glyph glyph-name="hahinit" unicode="&#x62d;" horiz-adv-x="955" arabic-form="initial"
d="M932 476l-70.002 -238l-85 -6h-57l-63 -5l-47 -11c-14.667 -2 -35.5 -9.33301 -62.5 -22l-96.5 -44l-199 -98c-35.333 -15.333 -64.666 -27.333 -87.999 -36s-41.666 -14 -54.999 -16h-109v252h134l66 6h49l52 21l83 28l67 40l-90 52l-35 14l-45 25l-26 10l-20 3
c-35.333 0 -62 -6 -80 -18l-89 -45l-6 25v35l9 36l16 44l30 40c42 74 100.333 111 175 111c18.667 0 58.667 -12 120 -36l154 -98l93 -40l98 -18l79 -11h98z" />
    <glyph glyph-name="hahmedi" unicode="&#x62d;" horiz-adv-x="1211" arabic-form="medial"
d="M1050 0l-50 7.00098l-62 22c-16.667 10.667 -31.334 20.667 -44.001 30s-26 23.333 -40 42l-35 119l-15 82l-97 -28l-101 -36l-85 -43l-261 -154c-80.667 -27.333 -131.334 -41 -152.001 -41h-108v252h90l114 13c31.333 4.66699 59 10 83 16s45 12.333 63 19l20 4l42 18
l63 39l37 28l-16 10l-61 22l-78 26l-63 7c-5.33301 0 -16.166 -2.66699 -32.499 -8s-37.833 -13 -64.5 -23l-53 -31l-7 4l-15 18c0 20.667 4 43.667 12 69s18.5 49.666 31.5 72.999s27.833 44 44.5 62s33.334 30.333 50.001 37l49 18l47 6c18.667 0 39.667 -3 63 -9
s49.333 -15.667 78 -29l195 -78l88 -18h130l139 21l-42 -212l-131 -33l6 -19c4.66699 -10 9.66699 -17 15 -21l16 -11l24 -11l35 -7h257v-252h-179z" />
    <glyph glyph-name="khahfina" unicode="&#x62e;" horiz-adv-x="1086" arabic-form="final"
d="M449 892l-147 151l147 147l150 -147zM890 -844l-43.0049 -9.99707l-99 -14l-122 -7c-72 0 -137.167 5.33301 -195.5 16s-109.666 28.667 -153.999 54s-81.833 58.666 -112.5 99.999s-54.667 92.333 -72 153l-23 132l-7 59l-3 66c0 29.333 1.83301 60.333 5.5 93
s9.83398 68.667 18.501 108l21 101l40 90c18.667 42 41.334 83.5 68.001 124.5s55.334 81.167 86.001 120.5l44 43l36 29l-43 13l-33 4l-36 -4l-39 -13l-37 -18l-22 -18l-24 -25l-61 -86l9 129c6 30.667 16.167 61.167 30.5 91.5s33.833 57.666 58.5 81.999
s54.834 44.166 90.501 59.499s77.167 23 124.5 23l66 -1l62 -11l75 -10l76 -4c25.333 0.666992 53.333 1.66699 84 3s63.667 5 99 11l98 15l-94 -252l-131 -15l3 -27v-54l9 -14c10.667 -17.333 31.334 -29.666 62.001 -36.999l76 -4h232v-252h-207
c-16 0 -31.667 1.16699 -47 3.5s-31 7.16602 -47 14.499s-32.833 17.666 -50.5 30.999s-36.834 31 -57.501 53l-24 32l-16 54l-7 50l-5 55l5 72c-25.333 -0.666992 -62 -14 -110 -40l-61 -34l-24 -19l-31 -20l-47 -43l-54 -56
c-77.333 -88.667 -124.666 -199.334 -141.999 -332.001l-5 -77c0 -57.333 8.66699 -107.166 26 -149.499s43.333 -80.166 78 -113.499c11.333 -11.333 29.5 -24.333 54.5 -39s55.5 -28.5 91.5 -41.5s76.667 -23.833 122 -32.5s93.666 -13 144.999 -13l20 2l18 16h501v-51z
" />
    <glyph glyph-name="khahinit" unicode="&#x62e;" horiz-adv-x="955" arabic-form="initial"
d="M932 472l-70.001 -235l-85 -6h-57l-63 -6l-47 -11c-14.667 -2 -35.5 -9.16699 -62.5 -21.5l-96.5 -44.5l-199 -98l-88 -35.5c-23.333 -9 -41.666 -14.167 -54.999 -15.5h-109v252h134l66 5h49l52 21l83 28l67 41l-90 52l-35 14l-45 25l-26 10l-20 2
c-35.333 0 -62 -6 -80 -18l-89 -45l-6 26v35l9 36l16 43l30 41c42 74 100.333 111 175 111c18.667 0 58.667 -12.333 120 -37l154 -98l93 -39l98 -18l79 -11zM481.999 1014l-149 -149l-147 149l147 149z" />
    <glyph glyph-name="khahmedi" unicode="&#x62e;" horiz-adv-x="1211" arabic-form="medial"
d="M298 871l-147 151l147 147l149 -147zM1050 0l-50 7.00098l-62 22c-16.667 10.667 -31.334 20.667 -44.001 30s-26 23.333 -40 42l-35 119l-15 82l-97 -28l-101 -36l-85 -43l-261 -154c-82.667 -27.333 -133.334 -41 -152.001 -41h-108v252h90l114 13
c31.333 4.66699 59 10 83 16s45 12.333 63 19l20 4l42 18l63 39l37 28l-16 10l-61 22l-78 26l-63 7c-5.33301 0 -16.166 -2.66699 -32.499 -8s-37.833 -13 -64.5 -23l-53 -31l-7 4l-15 18c0 20.667 4 43.667 12 69s18.5 49.666 31.5 72.999s27.833 44 44.5 62
s33.334 30.333 50.001 37l49 18l47 6c18.667 0 39.667 -3 63 -9s49.333 -15.667 78 -29l195 -78l88 -18h130l139 21l-42 -212l-131 -33l6 -19c4 -9.33301 9 -16.333 15 -21l16 -11l24 -11l35 -7h257v-252h-179z" />
    <glyph glyph-name="dalfina" unicode="&#x62f;" horiz-adv-x="823" arabic-form="final"
d="M854 0l-94.001 -0.000976562c-16.667 0 -31 5.66699 -43 17l-32 26l-17 20c-6 9.33301 -14 24 -24 44l-42 82l-11 38l-14 -32c-2 -6 -5.16699 -11.333 -9.5 -16s-8.16602 -9.66699 -11.499 -15c-2 -8.66699 -19.333 -30.667 -52 -66c-66 -72.667 -141 -109 -225 -109
c-50 0 -89.833 1.33301 -119.5 4s-52.667 7.33398 -69 14.001s-27.333 15.167 -33 25.5s-8.5 22.5 -8.5 36.5v246l20 6c3.33301 -6 8 -12.667 14 -20s14.667 -16.666 26 -27.999l49 -32l28 -6l35 -3c10.667 0 44.667 5.66699 102 17l70 21
c36 7.33301 63.667 16.666 83 27.999l38 17c5.33301 4 10.833 8.5 16.5 13.5s13.167 10.167 22.5 15.5l-74 439l52 186l22 -3l126 -547l24 -80l17 -41c16.667 -30.667 43 -46 79 -46h55v-252z" />
    <glyph glyph-name="zalfina" unicode="&#x630;" horiz-adv-x="820" arabic-form="final"
d="M657 1231l-143 -147l-153 147l153 148zM851 0h-93.999c-15.333 0 -28.666 5.66699 -39.999 17l-35 26l-14 20c-6.66699 8.66699 -14.667 23.167 -24 43.5s-23.333 47.833 -42 82.5l-14 38l-14 -32c-0.666992 -4 -1.33398 -7.33301 -2.00098 -10s-3 -7.16699 -7 -13.5
s-11 -15 -21 -26l-43 -47.5c-33.333 -36.667 -68 -64 -104 -82s-76.333 -27 -121 -27c-49.333 0 -89 1.33301 -119 4s-53.167 7 -69.5 13s-27.333 14.167 -33 24.5s-8.5 23.166 -8.5 38.499v246l20 6c3.33301 -6 7.83301 -12.667 13.5 -20s14.5 -16.666 26.5 -27.999l49 -32
l63 -9c10.667 0 45 5.66699 103 17l70 21c33.333 6 60.666 15.333 81.999 28l38 17l18 13.5l21 15.5l-74 439l52 186l22 -3l126 -547l24 -80l17 -41c12 -30.667 38.667 -46 80 -46h54v-252z" />
    <glyph glyph-name="rayfina" unicode="&#x631;" horiz-adv-x="878" arabic-form="final"
d="M897 1l-120.002 -0.00195312l-35 -100c-11.333 -31.333 -25.166 -62.833 -41.499 -94.5s-34.333 -61.167 -54 -88.5s-40 -52 -61 -74s-41.167 -38.667 -60.5 -50l-24 -14l-31 -14c-23.333 -14 -42.333 -22 -57 -24l-38 3c-9.33301 0 -15 1 -17 3l-120 35
c-23.333 10 -43.666 19.667 -60.999 29s-33.5 19.833 -48.5 31.5s-30.167 26 -45.5 43s-32.333 37.833 -51 62.5l94 -23c28 -8 53.167 -13.167 75.5 -15.5s42.833 -2.83301 61.5 -1.5c7.33301 0 15.333 0.833008 24 2.5l28 5.5l41 9l22 12c14.667 2 32 11.333 52 28l32 17
l28 24l35 25l28 24c25.333 16.667 48 37.834 68 63.501s39.333 54.834 58 87.501l-102 155l52 184l25 -38l28 -25l54 -21l61 -9h100v-252z" />
    <glyph glyph-name="zayfina" unicode="&#x632;" horiz-adv-x="848" arabic-form="final"
d="M752 703l-147 -150l-149 150l149 145zM872 0l-95.001 0.000976562l-35 -101c-11.333 -30.667 -24.833 -61.334 -40.5 -92.001s-32.834 -59.334 -51.501 -86.001s-38.5 -51.167 -59.5 -73.5s-41.833 -40.5 -62.5 -54.5l-58 -28l-28 -14c-9.33301 -4.66699 -19 -8 -29 -10
l-38 3c-9.33301 0 -15 0.666992 -17 2l-88 24l-32 11c-23.333 10.667 -43.666 20.667 -60.999 30s-33.5 19.833 -48.5 31.5s-30.167 25.834 -45.5 42.501s-32.333 37.667 -51 63l94 -24c56 -11.333 102.333 -17 139 -17c7.33301 0 15 1 23 3s17 4 27 6l41 8l25 13
c12 2 29.333 11.333 52 28l32 17l25 23l66 49c22 17.333 43.333 38 64 62s40.334 54 59.001 90l-99 155l49 183l28 -37l28 -26l51 -21l63 -8h73v-252z" />
    <glyph glyph-name="seenfina" unicode="&#x633;" horiz-adv-x="1812" arabic-form="final"
d="M1694 0c-21.333 0 -48.332 11.667 -80.999 35l-35 24l-20 10l-26 -31c-9.33301 -10.667 -22.5 -20.667 -39.5 -30s-33.5 -14 -49.5 -14c-12 0 -26.167 3.5 -42.5 10.5s-32.666 14.833 -48.999 23.5l-46 24c-14.333 7.33301 -25.833 12 -34.5 14c-4.66699 0 -8 -1 -10 -3
l-36 -25l-50 -27l-33 -11l-35 -6h-46l-15 3c-7.33301 0 -17.333 3.33301 -30 10l-49 20l3 -44c-0.666992 -10 -1.33398 -23 -2.00098 -39s-3.33398 -33.667 -8.00098 -53l-4 -18c0 -4 -0.833008 -7.33301 -2.5 -10s-3.16699 -8 -4.5 -16l-21 -50
c-12.667 -40 -34 -78.667 -64 -116s-66.5 -70.5 -109.5 -99.5s-92 -52.167 -147 -69.5s-113.833 -26 -176.5 -26c-117.333 0 -205.833 30.167 -265.5 90.5s-89.5 146.833 -89.5 259.5c0 44.667 5.83301 95.5 17.5 152.5s34.5 121.167 68.5 192.5l79 72l-37 -156l-18 -129
c0 -70 24 -126.333 72 -169s124 -64 228 -64h57l53 5c8 0 12.667 0.666992 14 2l65 19c42 12 78.333 27.333 109 46s56 42.334 76 71.001l-2 83l-7 46l-14 45c-3.33301 18.667 -7.16602 34.5 -11.499 47.5s-9.83301 24.5 -16.5 34.5l-47 80l103 186l21 -4
c0 -9.33301 5.66699 -22.833 17 -40.5s25.833 -35.334 43.5 -53.001s37.167 -33 58.5 -46s42.333 -19.5 63 -19.5c76.667 0 141 21.667 193 65l90 163l29 -7l6 -25l-3 -40l-8 -58c0 -10.667 -2 -19.334 -6 -26.001l-5 -25l28 -21l49 -14l25 -1
c17.333 -1.33301 45.333 17.334 84 56.001l78 150c7.33301 0 16.166 -5 26.499 -15s15.5 -24.333 15.5 -43l-4 -50l-10 -44c0 -5.33301 7.66699 -15.333 23 -30l30 -13l27 -7h101v-252h-143z" />
    <glyph glyph-name="seeninit" unicode="&#x633;" horiz-adv-x="1133" arabic-form="initial"
d="M1050 402c0 -46.667 -3.66309 -90.835 -10.9961 -132.502s-16.833 -78.834 -28.5 -111.501s-25.334 -59.667 -41.001 -81s-31.167 -35.333 -46.5 -42l-42 -10c-6 0 -18 4.16699 -36 12.5l-58 28l-57 29.5c-17.333 9.33301 -27.333 15 -30 17l-3 -3
c-4.66699 -5.33301 -13 -14.166 -25 -26.499s-27.667 -24.666 -47 -36.999s-41 -23.5 -65 -33.5s-50 -15 -78 -15c-36.667 0 -74 10.667 -112 32l-112 54l-86 -63l-29 -12l-23 -5l-25 -3h-95v252h120l23 3c14 0.666992 23.667 3.33398 29 8.00098l55 35l33 58l12 22.5
c4.66699 9 9.66699 17.5 15 25.5s10.666 14.833 15.999 20.5s10.333 8.5 15 8.5h3c12 0 18 -12.333 18 -37v-32l-3 -20c0 -26.667 5.33301 -47.334 16 -62.001s23.5 -25.5 38.5 -32.5s30.667 -11.167 47 -12.5s30.166 -2 41.499 -2c56 0 114.333 24 175 72l112 163
c14.667 -9.33301 22 -24.666 22 -45.999v-33l-5 -35c0 -6 -3 -18.667 -9 -38l6 -9l38 -19l54 -17c11.333 -4 21.166 -6.66699 29.499 -8s17.833 -2 28.5 -2l30 4l3 9l-8 63c-2 8 -4.66699 16.333 -8 25s-7.33301 17.667 -12 27l74 154c8 -8 15.167 -16.833 21.5 -26.5
s10.5 -20.167 12.5 -31.5l7 -39v-46z" />
    <glyph glyph-name="seenmedi" unicode="&#x633;" horiz-adv-x="1312" arabic-form="medial"
d="M1186 0c-22.667 0 -51.334 11.666 -86.001 34.999l-33 24l-18 10c-2 -2 -8.33301 -8 -19 -18l-39 -38c-12.667 -4.66699 -23.667 -8.5 -33 -11.5s-18.333 -5.5 -27 -7.5c-12 1.33301 -26.833 4.5 -44.5 9.5s-37.5 14.167 -59.5 27.5l-46 28l-17 7
c-4.66699 0 -7.66699 -1 -9 -3c-27.333 -22.667 -56.166 -40.167 -86.499 -52.5s-60.5 -18.5 -90.5 -18.5c-17.333 0 -35.666 2.33301 -54.999 7s-40.666 11.667 -63.999 21l-126 60l-78 -56l-17 -9l-55 -15h-183v252h206l32 7c13.333 2 25.333 5.5 36 10.5
s18.667 12.833 24 23.5l41 82c9.33301 18 17.333 28.667 24 32l22 12l11 -3l24 -95c11.333 -48 62.666 -72 153.999 -72c33.333 0 65.166 5.33301 95.499 16s58.166 27 83.499 49l91 152l23 -5l4 -23v-63l-6 -33l-5.5 -30c-1.66699 -9.33301 -3.5 -18.666 -5.5 -27.999
l8 -10l20 -14l49 -11l25 -1c16.667 0 45.334 18.667 86.001 56l77 147l15 3l20 -21l4 -37l-4 -46c0 -6.66699 -0.5 -12.5 -1.5 -17.5s-2.16699 -8.83301 -3.5 -11.5l-2 -19c0 -5.33301 7.33301 -15.333 22 -30l28 -13l31 -7h101v-252h-143z" />
    <glyph glyph-name="sheenfina" unicode="&#x634;" horiz-adv-x="1791" arabic-form="final"
d="M1674 0c-20 0 -47.332 11.667 -81.999 35l-34 24l-21 10l-11 -17l-14 -14c-12 -12 -25.5 -22.333 -40.5 -31s-30.5 -13 -46.5 -13c-10 0 -23.5 3.5 -40.5 10.5s-34 14.833 -51 23.5l-49 24c-15.667 7.33301 -27.167 12 -34.5 14c-4.66699 0 -7 -1 -7 -3l-39 -25l-50 -27
l-33 -11l-32 -6h-45l-19 3c-7.33301 0 -17.333 3.33301 -30 10l-46 20l3 -44l-2.5 -39c-1 -16 -3.83301 -33.667 -8.5 -53l-4 -18c0 -4.66699 -3 -13.334 -9 -26.001l-19 -50c-16 -40 -39 -78.667 -69 -116s-66 -70.5 -108 -99.5s-89.833 -52.167 -143.5 -69.5
s-112.167 -26 -175.5 -26c-117.333 0 -206.333 30.167 -267 90.5s-91 146.833 -91 259.5c0 44.667 6 95.834 18 153.501s35.667 121.5 71 191.5l77 72l-38 -156l-18 -129c0 -70 24.5 -126.333 73.5 -169s125.5 -64 229.5 -64h56l15 5h36c8 0 12.667 0.666992 14 2l65 19
c42 12 79 27.333 111 46s58 42.334 78 71.001l-6 83l-7 46l-14 45c-7.33301 38 -16 65.333 -26 82l-48 80l102 186l21 -4c0 -16 17 -43.333 51 -82c20 -27.333 41.333 -47 64 -59s46 -18 70 -18c74 0 138.333 21.667 193 65l90 163l26 -7l5 -25v-40l-12 -58
c0 -8.66699 -1.33301 -17.334 -4 -26.001l-7 -25l34 -21l47 -14l23 -1c10 -1.33301 21.5 3 34.5 13s29.833 24.333 50.5 43l80 150c5.33301 0 13.166 -5 23.499 -15s15.5 -24.333 15.5 -43l-5 -50l-9 -44c0 -4.66699 8 -14.667 24 -30l29 -13l28 -7h101v-252h-143zM1145 692
l-124 127l124 120l121 -120zM1466 713l-125 126l125 121l123 -121zM1302 920l-120 120l120 126l127 -126z" />
    <glyph glyph-name="sheeninit" unicode="&#x634;" horiz-adv-x="1130" arabic-form="initial"
d="M742 1031l-123 -126l-123 126l123 124zM906 828l-126 -120l-123 120l123 124zM582 809l-120 -128l-126 128l126 120zM1050 401c0 -46.667 -3.66309 -90.668 -10.9961 -132.001s-16.833 -78.333 -28.5 -111s-25.334 -59.834 -41.001 -81.501s-31.167 -35.5 -46.5 -41.5
l-42 -10c-6 0 -18 4.16699 -36 12.5l-58 28l-57 29.5c-17.333 9.33301 -27.333 15 -30 17l-3 -3c-4.66699 -6 -13 -15 -25 -27s-27.667 -24.333 -47 -37s-41 -23.834 -65 -33.501s-50 -14.5 -78 -14.5c-36.667 0 -74 10.667 -112 32l-112 53l-86 -63l-29 -11l-23 -6l-25 -2
h-95v252h143c14 2.66699 23.667 6.33398 29 11.001l55 35l33 57l12 23.5c4.66699 9 9.66699 17.333 15 25s10.666 14.334 15.999 20.001s10.333 8.5 15 8.5h3c12 0 18 -12 18 -36v-32l-3 -20c0 -27.333 5.33301 -48.166 16 -62.499s23.5 -25 38.5 -32
s30.667 -11.167 47 -12.5s30.166 -2 41.499 -2c56 0 114.333 23.667 175 71l112 164c14.667 -9.33301 22 -24.666 22 -45.999v-34l-5 -35c0 -5.33301 -3 -18 -9 -38l6 -8l38 -20l54 -16c11.333 -4 21.166 -6.66699 29.499 -8s17.833 -2 28.5 -2l30 4l3 8l-8 63
c-2 8.66699 -4.66699 17.167 -8 25.5s-7.33301 17.166 -12 26.499l74 154c8 -7.33301 15.167 -15.833 21.5 -25.5s10.5 -20.167 12.5 -31.5l7 -39v-47z" />
    <glyph glyph-name="sheenmedi" unicode="&#x634;" horiz-adv-x="1308" arabic-form="medial"
d="M1186 0c-22.667 0 -51.334 11.665 -86.001 34.998l-33 24l-18 10c-2 -2 -8.33301 -8 -19 -18l-39 -38c-12.667 -4.66699 -23.667 -8.5 -33 -11.5s-18.333 -5.5 -27 -7.5c-12 1.33301 -26.833 4.5 -44.5 9.5s-37.5 14.167 -59.5 27.5l-46 28l-17 7
c-4.66699 0 -7.66699 -1 -9 -3c-27.333 -22.667 -56.166 -40.167 -86.499 -52.5s-60.5 -18.5 -90.5 -18.5c-17.333 0 -35.666 2.33301 -54.999 7s-40.666 11.667 -63.999 21l-126 60l-78 -56l-17 -9l-55 -15h-183v252h206l32 7c13.333 2 25.333 5.5 36 10.5
s18.667 12.833 24 23.5l41 82c7.33301 16.667 15.333 27.334 24 32.001l22 12l11 -3l24 -95c11.333 -48 62.666 -72 153.999 -72c33.333 0 65.166 5.33301 95.499 16s58.166 27 83.499 49l91 152l23 -5l4 -23v-63l-6 -33l-5.5 -30
c-1.66699 -9.33301 -3.5 -18.666 -5.5 -27.999l8 -10l20 -14l49 -11l25 -1c16.667 0 45.334 18.667 86.001 56l77 147l15 3l20 -21l4 -37l-4 -46c0 -6.66699 -0.5 -12.5 -1.5 -17.5s-2.16699 -8.83301 -3.5 -11.5l-2 -19c0 -5.33301 7.33301 -15.333 22 -30l28 -13l31 -7
h101v-252h-143zM602 672.998l-127 122l127 126l120 -126zM920 691.998l-122 127l122 120l126 -120zM759 895.998l-122 125l122 123l123 -123z" />
    <glyph glyph-name="sadfina" unicode="&#x635;" horiz-adv-x="2103" arabic-form="final"
d="M1879 385c0 4.66699 -2.99609 11.1699 -8.99609 19.5029s-14.667 17.166 -26 26.499s-25.333 18.166 -42 26.499s-35.334 15.5 -56.001 21.5l-41 10l-46 1c-18.667 -2 -40.334 -7.83301 -65.001 -17.5s-52 -24.5 -82 -44.5l-81 -53l-98 -71l-79 -63l26 -3h68
c110 0 171.333 3.33301 184 10c79.333 5.33301 149.666 19.166 210.999 41.499s105.666 52.833 132.999 91.5zM1764 4.00293l-160 -0.000976562l-175 11l-120 -18h-73l-63 -7h-136v-32l-9 -43l-21 -59c-18 -57.333 -42.667 -108.5 -74 -153.5s-68.5 -83.667 -111.5 -116
s-91 -57.166 -144 -74.499s-110.5 -26 -172.5 -26c-112.667 0 -200.5 30.167 -263.5 90.5s-94.5 146.833 -94.5 259.5c0 57.333 7 112.833 21 166.5s37 113.167 69 178.5l78 72l-38 -156l-18 -129c0 -70 24.333 -126.333 73 -169s124.667 -64 228 -64h57l13 5h39
c6 0 9.66699 0.666992 11 2l68 19c42.667 10.667 79.667 25 111 43s56.333 42.667 75 74l-3 9v74l-21 91c-5.33301 37.333 -15 64.666 -29 81.999l-47 79l76 206l14 -31l70 -104c2 -7.33301 13 -16.833 33 -28.5s46.333 -17.5 79 -17.5l41 4l119 118l57.5 51l63.5 55
l154 121c124.667 82 226 123 304 123c30.667 0 58.667 -4.66699 84 -14s46.833 -22.166 64.5 -38.499s31.5 -35 41.5 -56s14.333 -43.167 13 -66.5l-1 -49l-28 -90l-32 -59l-21 -30c-4 -8.66699 -20 -27 -48 -55l-11 -14l84 14h151v-252z" />
    <glyph glyph-name="sadinit" unicode="&#x635;" horiz-adv-x="1534" arabic-form="initial"
d="M1291 364c0 8.66699 -8.16895 17.834 -24.502 27.501s-35.666 19 -57.999 28s-44.833 16.167 -67.5 21.5s-40 8 -52 8c-63.333 0 -137.333 -22.333 -222 -67l-91 -56l-96 -70l-58 -53l58 -1c9.33301 0 18.5 -0.333008 27.5 -1s17.833 -1 26.5 -1
c42 -0.666992 75.833 0.833008 101.5 4.5s44.834 6.5 57.501 8.5l107 11l30 7c25.333 5.33301 50.833 11.833 76.5 19.5s50 16.667 73 27s44 21.666 63 33.999s34.5 26.5 46.5 42.5zM1459 475c0 -34 -7.66797 -69.332 -23.001 -105.999s-37 -73 -65 -109
s-61.667 -70.167 -101 -102.5s-82.666 -60.166 -129.999 -83.499c-146.667 -60.667 -301.334 -91 -464.001 -91h-59l-74 7l-103 18l-40 12c-2.66699 1.33301 -9.83398 4.16602 -21.501 8.49902s-26.834 12.166 -45.501 23.499l-39 22l-21 17l-28 28
c-6.66699 -16 -17.334 -30 -32.001 -42l-53 -42l-38 -22c-21.333 -8.66699 -38.666 -13 -51.999 -13h-70v252h160l30 13c11.333 9.33301 26 28 44 56l38 71c0.666992 -24 3.33398 -39.333 8.00098 -46l14 -28l18 -27l21 -24l73 -46l49 -8l42 -4
c8.66699 7.33301 23.834 21 45.501 41s50.5 45.333 86.5 76c48 42 97.5 81.167 148.5 117.5s104.5 71.833 160.5 106.5c70 40 133 70.333 189 91s106.333 31 151 31c18 0 37 -5.66699 57 -17s38.333 -25.833 55 -43.5s31.334 -37 44.001 -58s21 -41.167 25 -60.5v-18z" />
    <glyph glyph-name="sadmedi" unicode="&#x635;" horiz-adv-x="1530" arabic-form="medial"
d="M1291 364c0 8.66699 -8.16895 17.834 -24.502 27.501s-35.666 19 -57.999 28s-44.833 16.167 -67.5 21.5s-40 8 -52 8c-63.333 0 -137.333 -22.333 -222 -67l-91 -56l-96 -70l-58 -53l58 -1c9.33301 0 18.5 -0.333008 27.5 -1s17.833 -1 26.5 -1
c42 -0.666992 75.833 0.833008 101.5 4.5s44.834 6.5 57.501 8.5l107 11l30 7c25.333 5.33301 50.833 11.833 76.5 19.5s50 16.667 73 27s44 21.666 63 33.999s34.5 26.5 46.5 42.5zM1056 -6l-224.005 -0.00195312l-264 -7c-59.333 0 -124.666 12.333 -195.999 37l-23 11
l-27 17l-53 42l-21 26l-16 -22l-19 -21l-53 -42l-38 -22c-21.333 -8.66699 -38.666 -13 -51.999 -13h-70v252h160l30 13c11.333 9.33301 26 28 44 56l38 71c0.666992 -24 3.33398 -39.333 8.00098 -46l14 -28l18 -27l21 -24l73 -46l49 -8l42 -4
c8.66699 7.33301 23.834 21 45.501 41s50.5 45.333 86.5 76c48 42 97.5 81.167 148.5 117.5s104.5 71.833 160.5 106.5c70 40 133 70.333 189 91s106.333 31 151 31c18 0 37 -5.66699 57 -17s38.333 -25.833 55 -43.5s31.334 -37 44.001 -58s21 -41.167 25 -60.5v-21
c0 -41.333 -13.333 -84.166 -40 -128.499s-73 -93.166 -139 -146.499l61 28l104 24l28 3h92v-252z" />
    <glyph glyph-name="zadfina" unicode="&#x636;" horiz-adv-x="2023" arabic-form="final"
d="M1803 385c0 4.66699 -3 11.168 -9 19.501s-14.667 17.166 -26 26.499s-25.333 18.5 -42 27.5s-35.334 15.833 -56.001 20.5l-42 10l-46 1c-18 -2 -39.333 -7.83301 -64 -17.5s-52 -24.5 -82 -44.5l-81 -53l-98 -71l-78 -63l25 -3h71c110.667 0 172 3.33301 184 10
c73.333 5.33301 140.833 18.5 202.5 39.5s108.834 52.167 141.501 93.5v4zM1688 4.00098h-158.003l-178 11l-117 -18h-74l-65 -7h-133l-8 -75l-21 -59c-16.667 -54 -40.667 -103.667 -72 -149s-68.5 -84.333 -111.5 -117s-91.333 -58.167 -145 -76.5
s-111.834 -27.5 -174.501 -27.5c-120 0 -209.5 28.333 -268.5 85s-88.5 145 -88.5 265c0 34 1.83301 65.167 5.5 93.5s9 55.833 16 82.5s16 53.5 27 80.5l37.5 88.5l78 72l-36 -156l-19 -129c0 -70 24.333 -126.333 73 -169s124.667 -64 228 -64h56l54 5
c7.33301 0 12 0.666992 14 2l64 19c42.667 12 79.667 27.333 111 46s57 42.334 77 71.001l-5 9v74l-7 46l-14 45c-6 36 -14.667 63.333 -26 82l-46 79l72 206l14 -31l47 -66l22 -38c0.666992 -2 3.83398 -5.5 9.50098 -10.5s13.167 -10 22.5 -15s20.833 -9.66699 34.5 -14
s29.167 -6.5 46.5 -6.5l41 4l119 118l59.5 51l65.5 55l154 121c124 82 223.667 123 299 123c34.667 0 64.834 -5.16699 90.501 -15.5s46.834 -23.833 63.501 -40.5s29.334 -36.334 38.001 -59.001s13 -46 13 -70l-3 -39l-20 -81l-57 -98
c-2.66699 -4 -7.5 -10.833 -14.5 -20.5s-18.167 -21.167 -33.5 -34.5l-15 -14l85 14h151v-252zM1477 854.001l-147 150l147 150l151 -150z" />
    <glyph glyph-name="zadinit" unicode="&#x636;" horiz-adv-x="1512" arabic-form="initial"
d="M1291 364c0 8.66699 -8.16895 17.834 -24.502 27.501s-35.666 19 -57.999 28s-44.833 16.167 -67.5 21.5s-40 8 -52 8c-63.333 0 -137.333 -22.333 -222 -67l-91 -56l-96 -70l-58 -53l58 -1c9.33301 0 18.5 -0.333008 27.5 -1s17.833 -1 26.5 -1
c42 -0.666992 75.833 0.833008 101.5 4.5s44.834 6.5 57.501 8.5l107 11l30 7c25.333 5.33301 50.833 11.833 76.5 19.5s50 16.667 73 27s44 21.666 63 33.999s34.5 26.5 46.5 42.5zM1459 475c0 -34 -7.66797 -69.332 -23.001 -105.999s-37 -73 -65 -109
s-61.667 -70.167 -101 -102.5s-82.666 -60.166 -129.999 -83.499c-146.667 -60.667 -301.334 -91 -464.001 -91h-59l-74 7l-103 18l-40 12c-2.66699 1.33301 -9.83398 4.16602 -21.501 8.49902s-26.834 12.166 -45.501 23.499l-39 22l-21 17l-28 28
c-6.66699 -16 -17.334 -30 -32.001 -42l-53 -42l-38 -22c-21.333 -8.66699 -38.666 -13 -51.999 -13h-70v252h160l30 13c11.333 9.33301 26 28 44 56l38 71c0.666992 -24 3.33398 -39.333 8.00098 -46l14 -28l18 -27l21 -24l73 -46l49 -8l42 -4
c8.66699 7.33301 23.834 21 45.501 41s50.5 45.333 86.5 76c48 42 97.5 81.167 148.5 117.5s104.5 71.833 160.5 106.5c70 40 133 70.333 189 91s106.333 31 151 31c18 0 37 -5.66699 57 -17s38.333 -25.833 55 -43.5s31.334 -37 44.001 -58s21 -41.167 25 -60.5v-18z
M896.997 854.001l-144 153l144 144l149 -144z" />
    <glyph glyph-name="zadmedi" unicode="&#x636;" horiz-adv-x="1530" arabic-form="medial"
d="M1291 364c0 8.66699 -8.16895 17.834 -24.502 27.501s-35.666 19 -57.999 28s-44.833 16.167 -67.5 21.5s-40 8 -52 8c-63.333 0 -137.333 -22.333 -222 -67l-91 -56l-96 -70l-58 -53l58 -1c9.33301 0 18.5 -0.333008 27.5 -1s17.833 -1 26.5 -1
c42 -0.666992 75.833 0.833008 101.5 4.5s44.834 6.5 57.501 8.5l107 11l30 7c25.333 5.33301 50.833 11.833 76.5 19.5s50 16.667 73 27s44 21.666 63 33.999s34.5 26.5 46.5 42.5zM1056 -6l-224.003 -0.00195312l-264 -7c-62 0 -127.333 12.333 -196 37l-23 11l-27 17
l-53 42l-21 26l-16 -22l-19 -21l-53 -42l-38 -22c-21.333 -8.66699 -38.666 -13 -51.999 -13h-70v252h160l30 13c11.333 9.33301 26 28 44 56l38 71c0.666992 -24 3.33398 -39.333 8.00098 -46l14 -28l18 -27l21 -24l73 -46l49 -8l42 -4
c8.66699 7.33301 23.834 21 45.501 41s50.5 45.333 86.5 76c48 42 97.5 81.167 148.5 117.5s104.5 71.833 160.5 106.5c70 40 133 70.333 189 91s106.333 31 151 31c18 0 37 -5.66699 57 -17s38.333 -25.833 55 -43.5s31.334 -37 44.001 -58s21 -41.167 25 -60.5v-21
c0 -41.333 -13.333 -84.166 -40 -128.499s-71.334 -96.166 -134.001 -155.499l-11 18l67 19l104 24l28 3h92v-252zM915.995 805.998l-146 153l146 144l148 -144z" />
    <glyph glyph-name="tuayfina" unicode="&#x637;" horiz-adv-x="1436" arabic-form="final"
d="M1184 371c-5.33301 28.667 -24.333 51.0029 -57 67.0029l-42 11l-69 12h-22c-58 0 -122.333 -19.333 -193 -58l-51 -28l-113 -88l-34 -35l-25 -31l46 -1c28 0 61.5 1.83301 100.5 5.5s79 9 120 16s82 15.167 123 24.5s77.333 19.666 109 30.999s57.5 23.166 77.5 35.499
s30 25.166 30 38.499zM529 0.00292969c-47.333 0 -86.0039 0.500977 -116.004 1.50098s-51.333 3.16699 -64 6.5c-73.333 8 -135.666 27.333 -186.999 58l-50 35l-36 33l-28 37l-48 74l400 -31l152 146v767l-40 39l-16 28l-6 31c0 12 6.33301 31.833 19 59.5
s28 55.667 46 84s36.333 53.5 55 75.5s34.667 33 48 33v-25l-4 -21v-83l11 -25l42 -42l59 -22l-76 -222h-26v-599l78 56l206 129c42.667 24 79.5 41.833 110.5 53.5s56.167 17.5 75.5 17.5c20.667 0 42.834 -4.83301 66.501 -14.5s46.667 -22.834 69 -39.501
s42.5 -36 60.5 -58s31 -45.667 39 -71l3 -25c0 -16 -3.33301 -35.167 -10 -57.5s-16.167 -45.5 -28.5 -69.5s-27.666 -47.333 -45.999 -70s-39.166 -43 -62.499 -61l62 13l82 11h111v-252h-951z" />
    <glyph glyph-name="tuayinit" unicode="&#x637;" horiz-adv-x="1085" arabic-form="initial"
d="M847 423c0 3.33301 -6.66797 10.333 -20.001 21l-37 21c-48.667 26 -94 39 -136 39h-21c-44.667 -4.66699 -104 -30 -178 -76l-67 -47l-97 -81l-53 -51h115l98 11c98.667 11.333 182.334 31 251.001 59s117 62 145 102v2zM1007 559
c0 -40.667 -9.33691 -83.1699 -28.0039 -127.503s-44.167 -87.166 -76.5 -128.499s-70.166 -79.833 -113.499 -115.5s-89.666 -64.5 -138.999 -86.5l-173 -70l-107 -23l-54 -8h-316v252h92l173 175v703l-38 36l-11 18l-12 38c0 14 0.666992 21.667 2 23l12 32
c10.667 26 23.167 51.167 37.5 75.5s28.833 45.333 43.5 63s28.167 31.834 40.5 42.501s21.833 16 28.5 16h4v-49l-5 -47l3 -30l14 -25l36 -42l62 -22l-79 -222h-25v-529l57 46c79.333 59.333 147.5 104.166 204.5 134.499s100.5 45.5 130.5 45.5c28 0 43 -1 45 -3
c8 -1.33301 14.833 -2.16602 20.5 -2.49902s11.334 -1.5 17.001 -3.5s9.83398 -4.33301 12.501 -7l16 -5l35 -21c38 -17.333 66.667 -49.666 86 -96.999z" />
    <glyph glyph-name="tuaymedi" unicode="&#x637;" horiz-adv-x="1096" arabic-form="medial"
d="M847 423c0 3.33301 -6.66797 10.333 -20.001 21l-37 21c-48.667 26 -94 39 -136 39h-21c-44.667 -4.66699 -104 -30 -178 -76l-67 -47l-97 -81l-53 -51h115l98 11c98.667 11.333 182.334 31 251.001 59s117 62 145 102v2zM-0.000976562 0l-0.00292969 252h92l173 175v703
l-38 36l-11 18l-12 38c0 14 0.666992 21.667 2 23l12 32c10.667 26 23.167 51.167 37.5 75.5s28.833 45.333 43.5 63s28.167 31.834 40.5 42.501s21.833 16 28.5 16h4v-49l-5 -47l3 -30l14 -25l36 -42l62 -22l-79 -222h-25v-529l57 46
c79.333 59.333 147.5 104.166 204.5 134.499s100.5 45.5 130.5 45.5c28 0 43 -1 45 -3c8 -1.33301 14.833 -2.16602 20.5 -2.49902s11.334 -1.5 17.001 -3.5s9.83398 -4.33301 12.501 -7l16 -5l35 -21c26.667 -18.667 48.834 -41.167 66.501 -67.5s26.5 -52.833 26.5 -79.5
c0 -48 -13.167 -94.833 -39.5 -140.5s-59.833 -93.834 -100.5 -144.501l-22 -28l31 9l50 8l46 3h164v-252h-1138z" />
    <glyph glyph-name="zuayfina" unicode="&#x638;" horiz-adv-x="1436" arabic-form="final"
d="M1077 860l-149 151l149 147l148 -147zM1184 371c-5.33301 28.667 -24.333 51.0029 -57 67.0029l-42 11l-69 12h-22c-58 0 -122.333 -19.333 -193 -58l-51 -28l-113 -88l-34 -35l-25 -31l46 -1c28 0 61.5 1.83301 100.5 5.5s79 9 120 16s82 15.167 123 24.5
s77.333 19.666 109 30.999s57.5 23.166 77.5 35.499s30 25.166 30 38.499zM529 0.00292969c-47.333 0 -86.0039 0.500977 -116.004 1.50098s-51.333 3.16699 -64 6.5c-73.333 8 -135.666 27.333 -186.999 58l-50 35l-36 33l-28 37l-48 74l400 -31l152 146v767l-40 39l-16 28
l-6 31c0 12 6.33301 31.833 19 59.5s28 55.667 46 84s36.333 53.5 55 75.5s34.667 33 48 33v-25l-4 -21v-83l11 -25l42 -42l59 -22l-76 -222h-26v-599l78 56l206 129c42.667 24 79.5 41.833 110.5 53.5s56.167 17.5 75.5 17.5c20.667 0 42.834 -4.83301 66.501 -14.5
s46.667 -22.834 69 -39.501s42.5 -36 60.5 -58s31 -45.667 39 -71l3 -25c0 -16 -3.33301 -35.167 -10 -57.5s-16.167 -45.5 -28.5 -69.5s-27.666 -47.333 -45.999 -70s-39.166 -43 -62.499 -61l62 13l82 11h111v-252h-951z" />
    <glyph glyph-name="zuayinit" unicode="&#x638;" horiz-adv-x="1085" arabic-form="initial"
d="M720 910l-146 151l146 147l149 -147zM847 423c0 3.33301 -6.66699 10.333 -20 21l-37 21c-48.667 26 -94 39 -136 39h-21c-44.667 -4.66699 -104 -30 -178 -76l-67 -47l-97 -81l-53 -51h115l98 11c98 11.333 181.5 31 250.5 59s117.5 62 145.5 102v2zM1007 559
c0 -40.667 -9.33691 -83.1699 -28.0039 -127.503s-44.167 -87.166 -76.5 -128.499s-70.166 -79.833 -113.499 -115.5s-89.666 -64.5 -138.999 -86.5l-173 -70l-107 -23l-54 -8h-316v252h92l173 175v703l-38 36l-11 18l-12 38c0 14 0.666992 21.667 2 23l12 32
c10.667 26 23.167 51.167 37.5 75.5s28.833 45.333 43.5 63s28.167 31.834 40.5 42.501s21.833 16 28.5 16h4v-49l-5 -47l3 -30l14 -25l36 -42l62 -22l-79 -222h-25v-529l57 46c79.333 59.333 147.5 104.166 204.5 134.499s100.5 45.5 130.5 45.5c28 0 43 -1 45 -3
c8 -1.33301 14.833 -2.16602 20.5 -2.49902s11.334 -1.5 17.001 -3.5s9.83398 -4.33301 12.501 -7l16 -5l35 -21c38 -17.333 66.667 -49.666 86 -96.999z" />
    <glyph glyph-name="zuaymedi" unicode="&#x638;" horiz-adv-x="1096" arabic-form="medial"
d="M787 853l-147 151l147 147l150 -147zM847 423c0 3.33301 -6.66797 10.333 -20.001 21l-37 21c-48.667 26 -94 39 -136 39h-21c-44 -4 -103.333 -29.333 -178 -76l-67 -47l-97 -81l-53 -51h115l98 11c98.667 11.333 182.334 31 251.001 59s117 62 145 102v2z
M-0.000976562 0l-0.00292969 252h92l173 175v703l-38 36l-11 18l-12 38c0 14 0.666992 21.667 2 23l12 32c10.667 26 23.167 51.167 37.5 75.5s28.833 45.333 43.5 63s28.167 31.834 40.5 42.501s21.833 16 28.5 16h4v-49l-5 -47l3 -30l14 -25l36 -42l62 -22l-79 -222h-25
v-529l57 46c79.333 59.333 147.5 104.166 204.5 134.499s100.5 45.5 130.5 45.5c28 0 43 -1 45 -3c8 -1.33301 14.833 -2.16602 20.5 -2.49902s11.334 -1.5 17.001 -3.5s9.83398 -4.33301 12.501 -7l16 -5l35 -21c26.667 -18.667 48.834 -41.167 66.501 -67.5
s26.5 -52.833 26.5 -79.5c0 -48 -13.167 -94.833 -39.5 -140.5s-59.833 -93.834 -100.5 -144.501l-22 -28l31 9l50 8l46 3h164v-252h-1138z" />
    <glyph glyph-name="ainfina" unicode="&#x639;" horiz-adv-x="934" arabic-form="final"
d="M1119 -620l-55.4951 -46.998c-21 -18 -47.5 -39.333 -79.5 -64c-14 -10 -36.333 -22.667 -67 -38s-66.334 -30.5 -107.001 -45.5s-84.334 -27.667 -131.001 -38s-93 -15.5 -139 -15.5c-75.333 0 -142.833 12.667 -202.5 38s-110.334 62.166 -152.001 110.499
s-73.167 107.833 -94.5 178.5s-32 151 -32 241c0 94.667 24.667 199.667 74 315c9.33301 22 23.166 48.5 41.499 79.5s38 62 59 93s42 59.333 63 85s38.5 43.167 52.5 52.5l-27 17l-31 11l-103 1c0 40 6.16699 78 18.5 114s30.5 67.5 54.5 94.5s53.167 48.667 87.5 65
s74.166 24.5 119.499 24.5c48 0 88.333 -3.66699 121 -11s59.167 -18 79.5 -32s34.833 -31 43.5 -51s13 -42.667 13 -68c0 -42.667 -20 -85.667 -60 -129l-55 -50l59 -35l58 -17c10 -2.66699 21.333 -4.5 34 -5.5s26 -1.5 40 -1.5h171v-252h-157
c-21.333 0 -42.5 3.33301 -63.5 10s-46.5 18.667 -76.5 36l-107 81l-39 44l-43 78l-16 -11l-71 -64c-30 -30 -60.167 -65.833 -90.5 -107.5s-58.166 -89.5 -83.499 -143.5l-30 -76c-6 -26.667 -10.667 -51.5 -14 -74.5s-5 -43.833 -5 -62.5v-25l6 -43
c9.33301 -73.333 39.666 -131.333 90.999 -174s131 -75.334 239 -98.001l117 -18h75l65 -4c28.667 0 61 1.16699 97 3.5s77.667 5.83301 125 10.5z" />
    <glyph glyph-name="aininit" unicode="&#x639;" horiz-adv-x="1021" arabic-form="initial"
d="M952 384l-73.999 -223.002l-142 -41l-134 -30l-378 -79l-112 -11h-112v252h284l-26 66c-8 37.333 -12 65.333 -12 84v25l3 18c0 37.333 8.16699 76.333 24.5 117s38 78 65 112s57.833 62 92.5 84s70.667 33 108 33c19.333 0 38.333 -1.16699 57 -3.5
s37.667 -7.66602 57 -15.999s39.166 -21.166 59.499 -38.499s42.833 -41 67.5 -71l22 -36l30 -73l-27 15l-39 17l-58 17c-15.333 2 -35 3.5 -59 4.5s-51 1.5 -81 1.5c-26.667 0 -59 -7.33301 -97 -22s-76.333 -43 -115 -85v-1c0 -4.66699 5 -15.667 15 -33s26 -40 48 -68
c52 -69.333 109.333 -104 172 -104h14c11.333 0 20 2 26 6z" />
    <glyph glyph-name="ainmedi" unicode="&#x639;" horiz-adv-x="904" arabic-form="medial"
d="M840 0l-35.0029 3.99805l-46 11l-69 33l-46 26l-18 7c-6 2 -11.333 7.33301 -16 16l-39 26l-54 51l-40 -38c-26 -21.333 -55.5 -40.5 -88.5 -57.5s-77.167 -35.833 -132.5 -56.5l-74 -15l-50 -7h-132v252h136c20.667 0 46.334 3 77.001 9s60.167 12.833 88.5 20.5
s52.833 15.334 73.5 23.001s31 13.5 31 17.5c0 8.66699 -30 27.334 -90 56.001l-100 41v25c0.666992 7.33301 2.33398 16.833 5.00098 28.5s8.33398 23.5 17.001 35.5l28 39l43 47c64 57.333 126.667 86 188 86c39.333 0 76 -4.16699 110 -12.5s63.333 -20.333 88 -36
s44.334 -35.5 59.001 -59.5s22 -51.667 22 -83v-24c-6 -39.333 -22.333 -74 -49 -104l-70 -59c0 -2.66699 4.16699 -6.83398 12.5 -12.501s20.666 -11.167 36.999 -16.5s35.833 -10.166 58.5 -14.499s48.667 -6.5 78 -6.5h88v-252h-91z" />
    <glyph glyph-name="ghainfina" unicode="&#x63a;" horiz-adv-x="934" arabic-form="final"
d="M468 853l-146 151l146 147l149 -147zM1119 -620c-14 -13.333 -32.3301 -28.9961 -54.9971 -46.9961l-80 -64c-11.333 -8 -29.333 -18.167 -54 -30.5s-54.667 -26.5 -90 -42.5c-92.667 -42.667 -192.667 -64 -300 -64c-75.333 0 -142.833 12.667 -202.5 38
s-110.334 62.166 -152.001 110.499s-73.167 107.833 -94.5 178.5s-32 151 -32 241c0 94.667 24.667 199.667 74 315c9.33301 22 23.166 48.5 41.499 79.5s38 62.167 59 93.5s42 59.666 63 84.999s38.5 42.666 52.5 51.999l-27 17l-31 11l-103 1c0 40 6.16699 78 18.5 114
s30.5 67.5 54.5 94.5s53.167 48.667 87.5 65s74.166 24.5 119.499 24.5c48 0 88.333 -3.66699 121 -11s59.167 -18 79.5 -32s34.833 -31 43.5 -51s13 -42.667 13 -68c0 -42.667 -20 -85.667 -60 -129l-55 -50l59 -35l58 -17c10 -2.66699 21.333 -4.5 34 -5.5
s26 -1.5 40 -1.5h171v-252h-157c-21.333 0 -42.5 3.33301 -63.5 10s-46.5 18.667 -76.5 36l-107 81l-39 44l-43 78l-16 -11l-71 -64c-30 -30 -60.167 -65.833 -90.5 -107.5s-58.166 -89.5 -83.499 -143.5l-30 -76c-6 -26.667 -10.667 -51.5 -14 -74.5s-5 -43.833 -5 -62.5
v-25l6 -43c9.33301 -73.333 39.666 -131.333 90.999 -174s131 -75.334 239 -98.001l117 -18h75l65 -4c28.667 0 61 1.16699 97 3.5s77.667 5.83301 125 10.5z" />
    <glyph glyph-name="ghaininit" unicode="&#x63a;" horiz-adv-x="1021" arabic-form="initial"
d="M952 384l-73.998 -223.002l-142 -41l-134 -30l-378 -79l-112 -11h-112v252h284l-26 66c-8 34.667 -12 62.667 -12 84v25l3 18c0 37.333 8.16699 76.333 24.5 117s38 78 65 112s57.833 62 92.5 84s70.667 33 108 33c19.333 0 38.166 -1.16699 56.499 -3.5
s37.333 -7.66602 57 -15.999s39.667 -21.166 60 -38.499s42.833 -41 67.5 -71l22 -36l30 -73l-27 15l-39 17l-58 17c-15.333 2 -35 3.5 -59 4.5s-51 1.5 -81 1.5c-26.667 0 -59 -7.33301 -97 -22s-76.333 -43 -115 -85v-1c0 -4.66699 5 -15.667 15 -33s26 -40 48 -68
c51.333 -69.333 108.666 -104 171.999 -104h14c11.333 0 20 2 26 6zM624.002 1107l-145 -152l-149 152l149 146z" />
    <glyph glyph-name="ghainmedi" unicode="&#x63a;" horiz-adv-x="904" arabic-form="medial"
d="M840 0l-35.0029 3.99805l-46 11l-69 33l-46 26l-18 7c-6 2 -11.333 7.33301 -16 16l-39 26l-54 51l-40 -38c-26 -21.333 -55.5 -40.5 -88.5 -57.5s-77.167 -35.833 -132.5 -56.5l-74 -15l-50 -7h-132v252h136c20.667 0 46.334 3 77.001 9s60.167 12.833 88.5 20.5
s52.833 15.334 73.5 23.001s31 13.5 31 17.5c0 8.66699 -30 27.334 -90 56.001l-100 41v25c0.666992 7.33301 2.33398 16.833 5.00098 28.5s8.33398 23.5 17.001 35.5l28 39l43 47c64 57.333 126.667 86 188 86c39.333 0 76 -4.16699 110 -12.5s63.333 -20.333 88 -36
s44.334 -35.5 59.001 -59.5s22 -51.667 22 -83v-24c-6 -39.333 -22.333 -74 -49 -104l-70 -59c0 -2.66699 4.16699 -6.83398 12.5 -12.501s20.666 -11.167 36.999 -16.5s35.833 -10.166 58.5 -14.499s48.667 -6.5 78 -6.5h88v-252h-91zM467.997 857.998l-146 151l146 146
l149 -146z" />
    <glyph glyph-name="fayfina" unicode="&#x641;" horiz-adv-x="1642" arabic-form="final"
d="M1459 421c0 17.333 -2.33301 29.666 -7 36.999l-7 24c-2 6 -6 11.833 -12 17.5s-12.5 10.334 -19.5 14.001s-14.333 6.5 -22 8.5s-14.167 3 -19.5 3l-36 -10c-32 -17.333 -55.333 -36.333 -70 -57l-14 -25l-5 -23c0 -22 14.667 -44.333 44 -67l46 -25l57 35l47 39
c9.33301 9.33301 15.333 19 18 29zM1565 0c-8 0 -18.833 0.665039 -32.5 1.99805s-28 3.83301 -43 7.5s-30 8.66699 -45 15s-27.833 13.5 -38.5 21.5l-59 34c-9.33301 4.66699 -17.833 10.5 -25.5 17.5l-23.5 21.5l-94 -50l-70 -31l-196 -58l-112 -19
c-39.333 -7.33301 -75.333 -12.5 -108 -15.5s-62.334 -4.5 -89.001 -4.5c-52.667 0 -103.5 4.5 -152.5 13.5s-94.167 23 -135.5 42s-78.666 43 -111.999 72s-60.333 63.167 -81 102.5l-19 74l-7 62c0 70 21.333 147.333 64 232l87 95c0.666992 -2 2 -9 4 -21
c0 -5.33301 -2.33301 -15.5 -7 -30.5l-14.5 -49l-14.5 -52.5c-4.66699 -17.333 -7 -31.666 -7 -42.999v-24c0 -2.66699 0.333008 -4.33398 1 -5.00098c10.667 -42 32.5 -78.5 65.5 -109.5s69.167 -54.833 108.5 -71.5l59 -19l68 -17l81 -10l87 -1
c56 -1.33301 105.5 0.333984 148.5 5.00098s80.833 10 113.5 16l84 15l92 25l54 18l-17 49c-2 8.66699 -3.5 18.167 -4.5 28.5s-1.5 20.5 -1.5 30.5l6 65c9.33301 44.667 24.5 88 45.5 130s44.5 79 70.5 111s53 57.667 81 77s53.667 29 77 29
c15.333 0 28.833 -4.16699 40.5 -12.5s21.667 -19.166 30 -32.499s15.5 -27.833 21.5 -43.5s11 -31.167 15 -46.5l11 -44l-2 -108c0 -4 -0.333008 -8 -1 -12s-1.66699 -9 -3 -15l-26 -81l-23 -50l-17 -21l-30 -47l86 -15h126v-252h-116zM1268 943.998l-147 152l147 147
l147 -147z" />
    <glyph glyph-name="fayinit" unicode="&#x641;" horiz-adv-x="683" arabic-form="initial"
d="M449 515c0 4.66699 -1.83301 12.168 -5.5 22.501s-9 21.166 -16 32.499s-15.333 22 -25 32s-20.5 18 -32.5 24c-14 -2.66699 -28.667 -13 -44 -31l-11 -11l-13 -18l-4 -26l2 -11l26 -24l23 -5l25 -3l42 3l11 4c5.33301 0.666992 10 2.16699 14 4.5s6.66699 4.5 8 6.5z
M624 371.001c0 -125.333 -51.998 -223.333 -155.998 -294c-45.333 -27.333 -89.666 -47 -132.999 -59s-86.333 -18 -129 -18h-206v252h323l105 11l34 7l38 17l43 24l-38 92l-32 -22l-38 -21c-14.667 -6 -28.334 -10.5 -41.001 -13.5s-25 -4.5 -37 -4.5h-20l-46 12l-18 11
c-8.66699 4.66699 -16.667 12.667 -24 24l-24 38l-7 35c-1.33301 9.33301 -3 17.5 -5 24.5s-3 13.833 -3 20.5c0 33.333 5.83301 69 17.5 107s26.667 73 45 105s38.666 58.833 60.999 80.5s44.166 32.5 65.499 32.5c44 0 97.667 -57.667 161 -173
c42.667 -100.667 64 -196.667 64 -288zM266.002 970.001l-151 146l151 150l146 -150z" />
    <glyph glyph-name="faymedi" unicode="&#x641;" horiz-adv-x="820" arabic-form="medial"
d="M568 515c0 16 -5.83008 32.1689 -17.4971 48.502s-30.834 28.166 -57.501 35.499l-14 2c-11.333 0 -25.833 -5.5 -43.5 -16.5s-35.334 -24.167 -53.001 -39.5s-32.834 -30.833 -45.501 -46.5s-19 -29.167 -19 -40.5c0 -4.66699 4.83301 -12.834 14.5 -24.501
s23.5 -25.167 41.5 -40.5l25 -21l27 -14l23 12l35 22c22 14 38.833 29.667 50.5 47s21.5 34 29.5 50zM711.003 0.00195312c-12.667 0 -26.667 1.33203 -42 3.99902l-43 10l-88 39l-126 72l-103 -51l-121 -54l-47 -12l-61 -8h-88v252h161l77 7l47 11l-29 72l-7 57
c0 10 0.666992 21.833 2 35.5s3 27.834 5 42.501l15 56l10 55l29 74l47 79l33 44c27.333 36.667 53.833 66 79.5 88s49.5 33 71.5 33l17 -3c18 -5.33301 34.5 -15.833 49.5 -31.5s31.167 -35.5 48.5 -59.5c21.333 -60 32 -117 32 -171v-33l-5 -55l-23 -88l-33 -101l-49 -91
l46 -14l45 -7h193v-252h-143zM554.003 1116l-144 151l144 146l152 -146z" />
    <glyph glyph-name="qaffina" unicode="&#x642;" horiz-adv-x="1138" arabic-form="final"
d="M1163 0l-112.999 0.00390625c0 -35.333 -3.33301 -56.333 -10 -63c-2 -8.66699 -3.33301 -15.667 -4 -21s-2.5 -12 -5.5 -20s-7.5 -17.833 -13.5 -29.5s-15 -27.5 -27 -47.5l-46 -65c-46.667 -55.333 -125.334 -113 -236.001 -173l-60 -25l-63 -21l-117 -17
c-58 0 -111.333 9.33301 -160 28s-90.167 46 -124.5 82s-61.166 79.5 -80.499 130.5s-29 108.5 -29 172.5c0 45.333 4.16699 89.166 12.5 131.499s19.333 79.833 33 112.5s28.5 59 44.5 79s31.333 30 46 30c5.33301 -4.66699 8 -13.334 8 -26.001l-8 -42
c-12 -50.667 -21.333 -92.5 -28 -125.5s-10 -60.5 -10 -82.5c0 -84.667 27.167 -146.334 81.5 -185.001s135.166 -58 242.499 -58c93.333 0 203.333 24.667 330 74l60 38l41 22c26 20.667 39 41.667 39 63v58l-43 -12h-58l-36 -2l-44 5l-19 9l-46 26l-17 17
c-7.33301 7.33301 -17.333 19 -30 35l-14 77c0 35.333 6.16699 71 18.5 107s28 68.667 47 98s39.667 53.166 62 71.499s43.833 27.5 64.5 27.5c46 0 84.333 -23 115 -69l27 -40l25 -77l3 -41h142v-252zM903.001 216.004v1c0 2.66699 -2.16699 9.16699 -6.5 19.5
s-10 20.833 -17 31.5s-15.333 20.667 -25 30s-20.167 15 -31.5 17c-2.66699 0 -7.66699 -2.5 -15 -7.5s-15 -11.5 -23 -19.5s-15 -16.5 -21 -25.5s-9 -17.167 -9 -24.5l2 -14l23 -21l49 -6l36 3l35 13zM920.001 755.004l-261 263l-128 -129l134 -132l235 258l158 -126z" />
    <glyph glyph-name="qafinit" unicode="&#x642;" horiz-adv-x="661" arabic-form="initial"
d="M690 1086l-134 -133l-265 264l-129 -131l136 -130l262 259zM449 515c0 4.66699 -1.83301 12.168 -5.5 22.501s-9 21.166 -16 32.499s-15.333 22 -25 32s-20.5 18 -32.5 24c-14 -2.66699 -28.667 -13 -44 -31l-11 -11l-13 -18l-4 -26l2 -11l26 -24l23 -5l25 -3l42 3l11 4
c5.33301 0.666992 10 2.16699 14 4.5s6.66699 4.5 8 6.5zM624 371.001c0 -125.333 -51.998 -223.333 -155.998 -294c-45.333 -27.333 -89.666 -47 -132.999 -59s-86.333 -18 -129 -18h-206v252h323l105 11l34 7l38 17l43 24l-38 92l-32 -22l-38 -21
c-14.667 -6 -28.334 -10.5 -41.001 -13.5s-25 -4.5 -37 -4.5h-20l-46 12l-18 11c-8.66699 4.66699 -16.667 12.667 -24 24l-24 38l-7 35c-1.33301 9.33301 -3 17.5 -5 24.5s-3 13.833 -3 20.5c0 33.333 5.83301 69 17.5 107s26.667 73 45 105s38.666 58.833 60.999 80.5
s44.166 32.5 65.499 32.5c44 0 97.667 -57.667 161 -173c42.667 -100.667 64 -196.667 64 -288z" />
    <glyph glyph-name="qafmedi" unicode="&#x642;" horiz-adv-x="827" arabic-form="medial"
d="M770 1226l-134 -133l-265 264l-129 -131l136 -130l262 259zM577 515c0 16.667 -6.16699 32.999 -18.5 48.999s-31.5 27.667 -57.5 35l-12 2c-12.667 0 -28 -5.5 -46 -16.5s-35.667 -24.167 -53 -39.5s-32 -31.166 -44 -47.499s-18 -29.5 -18 -39.5
c0 -9.33301 18.667 -31 56 -65l23 -21l27 -14l24 12l35 22c21.333 14 38 29.667 50 47s22.333 34 31 50zM720 -0.000976562c-13.333 0 -27.002 1.33301 -41.002 4l-43 10l-90 39l-126 72l-69 -35l-64 -23l-137 -59l-62 -8h-88v252h161l43 4l52 14h31l-31 72l-7 57
c0 10 0.666992 21.833 2 35.5s3 27.834 5 42.501l16 56l11 55l18 53l10 21l46 79l34 44c26.667 36.667 53.334 66 80.001 88s50.334 33 71.001 33l17 -3c16.667 -5.33301 32.667 -14.833 48 -28.5s29 -31.5 41 -53.5s21.833 -47.833 29.5 -77.5s11.5 -63.834 11.5 -102.501
v-33l-4 -55l-24 -88l-34 -101l-47 -91l44 -14l45 -7h195v-252h-144z" />
    <glyph glyph-name="kaffina" unicode="&#x643;" horiz-adv-x="1980" arabic-form="final"
d="M1739 353c0 -30 -2 -48.332 -6 -54.999l77 -33c23.333 -8.66699 52.333 -13 87 -13h115v-252h-42c-7.33301 0 -13.833 0.166992 -19.5 0.5s-11.5 1.33301 -17.5 3s-13 3.16699 -21 4.5l-30 5l-110 53l-40 32l-45 56c-26 -42 -70.667 -82 -134 -120l-38 -19l-34 -8l-56 -7
h-1246l-117 252h1391c15.333 0 32.5 1 51.5 3s37.167 6 54.5 12s31.833 14.333 43.5 25s17.5 25 17.5 43c0 18.667 -8.83301 36.167 -26.5 52.5s-46.167 26.833 -85.5 31.5l-70 14h-1049l-22 16l-11 23l-6 28l-1 29c0 8.66699 0.333008 19.667 1 33s2.16699 27 4.5 41
s5.5 27.333 9.5 40s8.66699 22.667 14 30l38 65l57 78c20 27.333 43 55.833 69 85.5s56.333 62.5 91 98.5l137 99l73 34l112 43l-42 -223c-39.333 0 -81.333 -5.33301 -126 -16l-17 -6c-8.66699 -0.666992 -17.667 -4.33398 -27 -11.001l-64 -34
c-14 -7.33301 -32.667 -20.833 -56 -40.5s-46 -40.667 -68 -63s-41.167 -44 -57.5 -65s-24.5 -36.5 -24.5 -46.5v-3l16 -13h901l63 -15h34l75 -27c16 -7.33301 31 -15.5 45 -24.5s27.5 -20.167 40.5 -33.5s26.167 -29.333 39.5 -48s27 -41.667 41 -69z" />
    <glyph glyph-name="kafinit" unicode="&#x643;" horiz-adv-x="1624" arabic-form="initial"
d="M1562 350c-0.666992 -18.667 -1.66895 -35.9971 -3.00195 -51.9971s-4.33301 -31.333 -9 -46l-20 -60c0 -15.333 -13.667 -37.833 -41 -67.5s-65 -59.5 -113 -89.5l-25 -11l-49 -16l-39 -8h-1263v252h1280c18.667 0 37.667 1.33301 57 4s37 7.16699 53 13.5
s29.167 15 39.5 26s15.5 24.833 15.5 41.5c0 30 -17.333 52.333 -52 67s-78.667 22.334 -132 23.001l-396 4l-647 2c-9.33301 2.66699 -18.666 8.66699 -27.999 18l-11 28l-4 49v38l7 46c0 14.667 2 24 6 28l16 36c4.66699 9.33301 15 25.166 31 47.499s36 53.166 60 92.499
l24 27l16 24l42 47c3.33301 6 10 14 20 24l35 35c13.333 13.333 28.166 27 44.499 41s32.5 27 48.5 39l74 50c13.333 7.33301 34.833 17.333 64.5 30s68.5 27 116.5 43l-44 -220c-23.333 0 -45 -1.83301 -65 -5.5s-38.667 -8.16699 -56 -13.5c-6 -2 -18 -6.33301 -36 -13
s-42.667 -17.334 -74 -32.001c-12 -6 -29.667 -19.5 -53 -40.5s-46.666 -43.5 -69.999 -67.5s-43.666 -47.333 -60.999 -70s-26 -38 -26 -46l21 -13h873l85 -11c34.667 -4.66699 64.167 -11 88.5 -19s45.5 -17.5 63.5 -28.5s34 -23.833 48 -38.5s27.667 -30.334 41 -47.001
l35 -76l10 -39z" />
    <glyph glyph-name="kafmedi" unicode="&#x643;" horiz-adv-x="1810" arabic-form="medial"
d="M1562 350c0 -9.33301 -0.171875 -18.498 -0.504883 -27.498s-0.833008 -17.5 -1.5 -25.5l36 -18l43 -16l38 -7l45 -4h115v-252h-69l-36 7c-12 0.666992 -25 4.33398 -39 11.001l-21 9l-26 16c-16.667 8 -32.5 16.667 -47.5 26s-28.5 19 -40.5 29l-35 36l-14 19
c-30 -44 -73.333 -83.667 -130 -119l-39 -16l-74 -18h-1266v252h1280c15.333 0 32.666 1 51.999 3s37.333 6 54 12s30.667 14.333 42 25s17 25 17 43c0 22 -9.33301 39.167 -28 51.5s-47.667 23.166 -87 32.499l-69 12l-1043 2c-9.33301 2.66699 -18.666 8.66699 -27.999 18
l-11 28l-4 49c0 30 1.83301 56.667 5.5 80s10.834 43.666 21.501 60.999l36 65l57 82c18.667 27.333 41.834 55.833 69.501 85.5l94.5 98.5c10.667 7.33301 27.334 19.666 50.001 36.999s51.667 38 87 62l76 35l108 39l-44 -221h-67l-45 -8l-7 -7l-23 -6
c-4.66699 -2 -9.16699 -3.66699 -13.5 -5s-8.5 -3.33301 -12.5 -6l-61 -31c-21.333 -11.333 -44.166 -28 -68.499 -50s-51.5 -49.333 -81.5 -82l-45 -58l-17 -31c4 -2 7.33301 -4 10 -6s5 -3.66699 7 -5l892 -2l32 -4l44 -10h14c9.33301 0 17.833 -1.33301 25.5 -4
s13.167 -5 16.5 -7l19 -4c10.667 0 23.334 -3.83301 38.001 -11.5s29.834 -17 45.501 -28s30.167 -23.5 43.5 -37.5s24.333 -27.667 33 -41l17 -31l16 -39c2 -7.33301 4.16699 -14.333 6.5 -21s4.16602 -13.667 5.49902 -21z" />
    <glyph glyph-name="lamfina" unicode="&#x644;" horiz-adv-x="1235" arabic-form="final"
d="M1193 0l-34.998 1.00098c-6 2 -12 3.66699 -18 5s-13 3.66602 -21 6.99902l-31 11l-38 22l-62 45l-9 -130c-9.33301 -74 -27.333 -139.5 -54 -196.5s-60.334 -105 -101.001 -144s-87.667 -68.5 -141 -88.5s-111 -30 -173 -30c-120 0 -208.667 29.833 -266 89.5
s-86 148.167 -86 265.5c-0.666992 22.667 1.33301 49.667 6 81s12 68.666 22 111.999l11 48l24 57c6 18.667 13.667 32.667 23 42l61 55l4 -24l6 -15c0 -14 -1.83301 -32 -5.5 -54s-8.5 -48 -14.5 -78l-15 -113c0 -15.333 0.5 -30.166 1.5 -44.499
s5.16699 -28.666 12.5 -42.999s19 -28.833 35 -43.5s39.333 -29.334 70 -44.001l64 -18c13.333 -2 26 -3.66699 38 -5s23.333 -2 34 -2c14 0 29.667 0.833008 47 2.5s36.666 4.5 57.999 8.5l64 14l42 17c32.667 12.667 59.5 25.5 80.5 38.5s35.167 28.167 42.5 45.5
l-82 1290l134 215l56 -703c0 -53.333 1.5 -100.5 4.5 -141.5s8.16699 -77.167 15.5 -108.5s18 -58.5 32 -81.5s32.333 -42.167 55 -57.5l30 -19l55 -23l60 -13h58v-252h-94z" />
    <glyph glyph-name="laminit" unicode="&#x644;" horiz-adv-x="475" arabic-form="initial"
d="M392 986l-14.001 -20.9971l22 -460c0 -96 -4 -163.667 -12 -203c-6 -42 -16.667 -80.167 -32 -114.5s-32.833 -63.833 -52.5 -88.5s-39.667 -44.334 -60 -59.001s-38.166 -23.667 -53.499 -27l-36 -9l-42 -4h-112v252h140l57 8c28 3.33301 42.667 12.333 44 27v763
l-46 57l-24 54c0 5.33301 1.33301 11.666 4 18.999l35 72l34 54l91 104c8 -4 15.333 -15.667 22 -35l-1 -20l-6 -15l-11 -53l3 -17c1.33301 -4.66699 3 -9.83398 5 -15.501s5.33301 -12.167 10 -19.5l38 -38l52 -43z" />
    <glyph glyph-name="lammedi" unicode="&#x644;" horiz-adv-x="547" arabic-form="medial"
d="M507 0c-12 0 -22.6689 2.66699 -32.002 8l-44 26l-32 25l-34 35c-4.66699 3.33301 -10.167 10 -16.5 20s-16.166 23.667 -29.499 41l-24 51l-22 -55l-41 -70l-64 -54l-46 -20c-10.667 -2 -19.167 -3.66699 -25.5 -5s-11.5 -2 -15.5 -2h-81v252h74l74 15l31 20
c6 4 9.66699 7.33301 11 10s2 6.66699 2 12c0 13.333 -0.666992 40.833 -2 82.5s-4.33301 97.5 -9 167.5l-13 704l139 154l54 -881l11 -117c2 -24.667 5.83301 -44 11.5 -58s10.834 -24.333 15.501 -31l36 -43.5c14 -16.333 32 -25.833 54 -28.5l42 -6h63v-252h-87z" />
    <glyph glyph-name="meemfina" unicode="&#x645;" horiz-adv-x="1278" arabic-form="final"
d="M1308 0l-44.0049 0.000976562l-17 3l-35 11c-10.667 4 -24 10.667 -40 20s-30 21.666 -42 36.999c-2 -1.33301 -4 -3 -6 -5s-3.66699 -5 -5 -9l-35 -14l-63 -18l-72 -11l-115 -3c-5.33301 0 -10.333 0.5 -15 1.5s-9.33398 1.5 -14.001 1.5l-45 15l-32 14
c-0.666992 -37.333 -2.66699 -70.333 -6 -99s-8.66602 -51 -15.999 -67l-27 -55c-20.667 -42 -55.667 -79.5 -105 -112.5s-119.333 -58.5 -210 -76.5l-137 -14c-35.333 0 -70.833 3 -106.5 9s-68.5 17 -98.5 33l71 20.5c24.667 7 49.834 15 75.501 24s50.834 19 75.501 30
s48.334 24.5 71.001 40.5l87 57c42 28 80.5 60.5 115.5 97.5s67.833 79.167 98.5 126.5l38 86l54 178c6 28.667 15.333 54.5 28 77.5s25.334 44.167 38.001 63.5l46 39l58 38c20.667 0 44.334 -12.667 71.001 -38c6.66699 -4.66699 39.334 -44.667 98.001 -120
c13.333 -20.667 25.166 -40.167 35.499 -58.5l30.5 -52.5l85 -18h110v-252zM976.995 183.001l-94 150l-74 -126z" />
    <glyph glyph-name="meeminit" unicode="&#x645;" horiz-adv-x="797" arabic-form="initial"
d="M774 342c0 -46.667 -3.99902 -85.1641 -11.999 -115.497s-19.167 -55.333 -33.5 -75s-31.5 -35.334 -51.5 -47.001s-42.333 -21.834 -67 -30.501l-19 -3c-21.333 0 -53.833 8.5 -97.5 25.5s-93.5 46.833 -149.5 89.5l-26 -63l-34 -57l-32 -28l-14 -9l-28 -9
c-39.333 -13.333 -69.333 -20 -90 -20h-120v252h106c29.333 0 52.666 1.16699 69.999 3.5s33.833 9.33301 49.5 21s33.167 29.667 52.5 54l78 102.5l68 100l41 52c42 48 82 72 120 72c18.667 0 59 -42 121 -126c20 -42 36.333 -80.333 49 -115s19 -59.334 19 -74.001z
M637.001 309.003l-2.99902 24.001l-10 28c0 6 -2.33301 13.333 -7 22s-9.66699 16.667 -15 24c-20.667 40.667 -46.334 61 -77.001 61c-7.33301 0 -27.333 -16.333 -60 -49l-32 -49c5.33301 -8.66699 14 -16.334 26 -23.001l60 -40c29.333 -15.333 57 -23 83 -23l22 3l7 6z
" />
    <glyph glyph-name="meemmedi" unicode="&#x645;" horiz-adv-x="888" arabic-form="medial"
d="M535 178c0 14.667 -2.00293 25.3359 -6.00293 32.0029l-19 66c-10.667 31.333 -20 55.5 -28 72.5s-14.333 26.833 -19 29.5h-4c-5.33301 0 -12 -2.16699 -20 -6.5s-16.5 -10.166 -25.5 -17.499s-17.667 -16.833 -26 -28.5s-15.166 -24.5 -20.499 -38.5
c0 -2.66699 5.83301 -9.83398 17.5 -21.501s25.834 -24.334 42.501 -38.001s34.334 -25.834 53.001 -36.501s35 -16.334 49 -17.001h6v4zM768.997 0.00195312l-72 19.998l-53 23l-4 -14l-18 -35c-18.667 -26.667 -37 -40 -55 -40c-25.333 0 -54.333 5.5 -87 16.5
s-68.667 28.833 -108 53.5l-44 28l-48 36l-104 -88h-176v252h90c35.333 0 62 2.5 80 7.5s35.667 14.5 53 28.5l29 37l76 80c61.333 64 105 96 131 96c37.333 0 73.333 -17.333 108 -52l73 -99c9.33301 -13.333 20.333 -26.166 33 -38.499s30.667 -24.166 54 -35.499l39 -11
l96 -13h48v-252h-141z" />
    <glyph glyph-name="noonfina" unicode="&#x646;" horiz-adv-x="1207" arabic-form="final"
d="M1050 0l-0.000976562 -17c-0.666992 -10 -1 -23 -1 -39s-2.33301 -33.667 -7 -53l-5 -18c0 -3.33301 -0.666992 -6.83301 -2 -10.5s-3 -8.83398 -5 -15.501l-21 -50c-14.667 -41.333 -37.167 -80.833 -67.5 -118.5s-67 -70.667 -110 -99s-91.333 -51 -145 -68
s-111.167 -25.5 -172.5 -25.5c-118 0 -207.333 30.167 -268 90.5s-91 146.833 -91 259.5c0 46 6.33301 97.5 19 154.5s36 120.5 70 190.5l78 72l-38 -156l-18 -129c0 -70 24.5 -126.333 73.5 -169s125.167 -64 228.5 -64h56l16 5h36c7.33301 0 12 0.666992 14 2l65 19
c42.667 12 79.834 27.333 111.501 46s57.5 42.334 77.5 71.001l-3 63c0 4.66699 -0.5 9.66699 -1.5 15s-1.83301 10.666 -2.5 15.999l-3 20l-18 56c-8 32.667 -19.667 61 -35 85s-36 50.667 -62 80l101 187l21 -4l14 -43c2 -4.66699 6.16699 -12.167 12.5 -22.5
s16.5 -21.166 30.5 -32.499l48 -39l25 -7h165v-252h-186zM588.999 407l-147 149l147 147l153 -147z" />
    <glyph glyph-name="nooninit" unicode="&#x646;" horiz-adv-x="560" arabic-form="initial"
d="M440 330l-8.99902 -48.998c-2 -12.667 -5 -26.667 -9 -42s-11.333 -31.666 -22 -48.999c-7.33301 -20 -19.333 -41.333 -36 -64s-35.334 -43.334 -56.001 -62.001s-42 -34 -64 -46s-41.333 -18 -58 -18h-186v252h307l12 7l11 32c0 1.33301 0.333008 2.16602 1 2.49902
s1 0.833008 1 1.5c0 6 -2.16699 15.333 -6.5 28s-9.5 25.667 -15.5 39s-12 25.333 -18 36s-11 17.667 -15 21l84 211c27.333 -42 47.333 -82.833 60 -122.5s19 -84.834 19 -135.501v-42zM186.001 830.002l-150 149l150 147l147 -147z" />
    <glyph glyph-name="noonmedi" unicode="&#x646;" horiz-adv-x="560" arabic-form="medial"
d="M489 0c-11.333 0 -23.501 1.83398 -36.501 5.50098s-25.167 9.16699 -36.5 16.5l-66 48l-17.5 17.5c-6.33301 6.33301 -12.166 13.166 -17.499 20.499l-20 26l-40 -57l-73 -57l-38 -13l-32 -7h-112v252h137l45 4l45 9c10 3.33301 20.667 15 32 35s25 48.333 41 85
c14.667 36.667 31.334 55 50.001 55c8.66699 0 16.667 -2.33301 24 -7v-103l14 -32c3.33301 -10 18.666 -21.667 45.999 -35l36 -7l44 -4h82v-252h-107zM215.999 655.001l-146 149l146 149l149 -149z" />
    <glyph glyph-name="hehfina" unicode="&#x647;" horiz-adv-x="473" arabic-form="final"
d="M525 0l-128.999 -0.000976562l-63 -6l-109 -40c-21.333 -15.333 -40.666 -30.666 -57.999 -45.999l-43 -37l-54 -71v36l11 73c9.33301 58.667 19.166 106.667 29.499 144s23.166 65.333 38.499 84c18 20 40.5 38.333 67.5 55s59.167 31 96.5 43l79 11l68 6h66v-252z" />
    <glyph glyph-name="hehinit" unicode="&#x647;" horiz-adv-x="832" arabic-form="initial"
d="M777 441l-0.00195312 -125.999l-6 -42c0 -20.667 -4.66699 -42.334 -14 -65.001s-24.666 -49 -45.999 -79l-43 -14l-69 -6h-80l-100 11h-35l-58 14l-39 -30c-32 -32 -61 -51.333 -87 -58l-60 -29l-36 -11l-35 -6h-69v252h104l22 6
c5.33301 1.33301 10.333 3.66602 15 6.99902s10.334 9.66602 17.001 18.999l-15 34l-6 35v38l3 22c0 14.667 4 34.667 12 60s20.333 53 37 83l49 66l-28 29l-7 38l81 186l34 20l339 -276l39 -46.5c14 -17 27 -33.667 39 -50s22 -31.666 30 -45.999s12 -26.166 12 -35.499z
M601.998 416.001l-63 63.002c-10 7.33301 -18.5 13.166 -25.5 17.499s-12.167 7.16602 -15.5 8.49902l9 -35l7 -54l-3 -17v1c-2 0 -4.33301 -10 -7 -30l-20 -42l30 -10l19 -3l17 -6l118 -14h35c0 14 -33.667 54.333 -101 121zM420.998 421.003
c0 6 -2.00195 14.498 -6.00195 25.498s-10 22.333 -18 34s-17.333 23.334 -28 35.001s-22.667 21.5 -36 29.5c-2.66699 0 -9.66699 -4.5 -21 -13.5s-23.166 -20 -35.499 -33s-23.666 -27.167 -33.999 -42.5s-16.5 -29.666 -18.5 -42.999l3 -8l33 -27l35 -8h69
c13.333 0 24.333 4.83301 33 14.5s16 19.167 22 28.5z" />
    <glyph glyph-name="hehmedi" unicode="&#x647;" horiz-adv-x="890" arabic-form="medial"
d="M602 -168c-16.667 51.333 -65.668 98.001 -147.001 140.001l-105 22v-29l7 -24l13 -22l26.5 -44.5c8.33301 -13.667 19.833 -25.167 34.5 -34.5l20 -12l26 -11l59 -12c24.667 0 41.334 3.16699 50.001 9.5s14 12.166 16 17.499zM588.999 472.001l-11.001 39.001
c-5.33301 20.667 -13.666 32 -24.999 34l-10 -5c-16.667 -6 -52.667 -55 -108 -147l-39 -100l66 18l20 10c32.667 15.333 58.5 29.166 77.5 41.499s29.5 24.833 31.5 37.5l3 23zM833.998 0.00195312l-141.998 18.002h-38l10 -35c5.33301 -30 8 -62 8 -96
c0 -36 -1.83301 -66 -5.5 -90s-9.16699 -47 -16.5 -69c-6 -16.667 -14.333 -33.834 -25 -51.501s-22.834 -33.5 -36.501 -47.5s-28.334 -25.5 -44.001 -34.5s-31.5 -13.5 -47.5 -13.5c-12 0 -26.167 3.5 -42.5 10.5s-33.666 18.667 -51.999 35s-37.333 38.166 -57 65.499
s-39.167 61.333 -58.5 102l-31 112l-18 94h-238v252h143l152 20l47 128l53.5 116.5l27.5 58c6.66699 13.667 12.667 25 18 34s14.333 23.167 27 42.5l16 29l21 27c14 27.333 30.333 48.833 49 64.5s37.334 27.167 56.001 34.5h5c17.333 0 35.333 -28 54 -84l27 -82
c0.666992 -13.333 2 -25.5 4 -36.5s3 -23.167 3 -36.5v-35l-3 -24l-13 -33c-5.33301 -22 -14 -46.667 -26 -74s-27.333 -56.333 -46 -87l-33 -44l-30 -33h92c25.333 0 46.666 0.333008 63.999 1s30.666 2 39.999 4l72 10h96v-252h-82z" />
    <glyph glyph-name="wawfina" unicode="&#x648;" horiz-adv-x="990" arabic-form="final"
d="M1015 0l-158.003 -0.000976562c-4.66699 -18.667 -11.167 -39.5 -19.5 -62.5s-20.166 -47.833 -35.499 -74.5l-28 -52c-3.33301 -10 -10 -21.667 -20 -35s-21 -27 -33 -41s-24.5 -27 -37.5 -39s-24.833 -21.667 -35.5 -29l-49 -37l-63 -35
c-11.333 -6 -30.333 -11.333 -57 -16l-28 -9l-27 -3c-105.333 0 -185.666 19.333 -240.999 58c-9.33301 6.66699 -21 12.334 -35 17.001l-33 32c-6 5.33301 -15.167 14.5 -27.5 27.5s-27.166 32.167 -44.499 57.5l154 -19h181c9.33301 0 21.166 1.5 35.499 4.5
s29.333 7.16699 45 12.5s30.834 11.166 45.501 17.499s27.334 12.833 38.001 19.5c26.667 16.667 49.667 31.667 69 45s36.666 27 51.999 41s29.5 29.167 42.5 45.5s27.5 36.5 43.5 60.5h-41l-71 14c-18 4 -34.333 8.5 -49 13.5s-27.667 12.333 -39 22
s-20 22.334 -26 38.001s-9 35.167 -9 58.5c0 37.333 7.16699 75 21.5 113s31.833 73.167 52.5 105.5s42.667 59.5 66 81.5s44.333 34.667 63 38c19.333 -0.666992 38.833 -10.167 58.5 -28.5s38.5 -46.833 56.5 -85.5l46 -104h137v-252zM754.997 174.999
c0 6.66699 -2.66699 15.167 -8 25.5s-12 20.833 -20 31.5s-17 20.167 -27 28.5s-20.667 14.5 -32 18.5l-25 -27l-9 -22l-5 -30l22 -25l22 -3h82v3z" />
    <glyph glyph-name="alefmaksurafina" unicode="&#x649;" horiz-adv-x="1348" arabic-form="final"
d="M693 329c0 -18.667 -0.166992 -33.832 -0.5 -45.499s-1.5 -20.834 -3.5 -27.501l-6 -28l-10 -26c-2.66699 -14 -8 -25.5 -16 -34.5s-19.667 -20.167 -35 -33.5l-5 58v64l-8 60v458l-3 27l81 112v-234l6 -91v-259zM1215 0.00195312
c-7.33301 0 -23.332 -1.66992 -47.999 -5.00293l-78.5 -11l-75.5 -11c-22.667 -3.33301 -35.667 -5 -39 -5l33 -11l105 -27c10.667 0 21.167 -0.5 31.5 -1.5s22.166 -2.83301 35.499 -5.5l28 -6l33 -11c10.667 -4.66699 20.167 -9 28.5 -13s15.166 -10 20.499 -18l9 -28
l4 -29c0 -72.667 -67.333 -156.667 -202 -252l-89 -46l-102 -44c-13.333 -3.33301 -31.166 -8.33301 -53.499 -15s-48 -13 -77 -19s-60.333 -11.167 -94 -15.5s-67.834 -6.5 -102.501 -6.5c-54.667 0 -108.167 5.83301 -160.5 17.5s-99.5 30 -141.5 55
s-77.167 56.833 -105.5 95.5s-45.833 85 -52.5 139c0 8.66699 -1 13.667 -3 15v19c0 62 18.667 130 56 204l18 42l52 78l32 40c35.333 43.333 63.333 65 84 65l6 -23l-76 -177l-32 -117l-3 -28c0 -31.333 7.33301 -60.166 22 -86.499s37.834 -49.166 69.501 -68.499
s73.167 -34.5 124.5 -45.5s113.333 -16.5 186 -16.5c36.667 0 72.834 1.83301 108.501 5.5s72.167 10.5 109.5 20.5l161 45c16 0.666992 29.667 5.33398 41 14.001l57 46l-137 24c-20.667 4 -39.167 8.33301 -55.5 13s-31 10.667 -44 18s-25 17 -36 29
s-21.167 27.333 -30.5 46l-2 41c0 28 7.66699 55.5 23 82.5s35.666 52.5 60.999 76.5s53.833 46 85.5 66s64.167 37.167 97.5 51.5s65.333 25.5 96 33.5s57.667 12 81 12h98v-252h-157z" />
    <glyph glyph-name="yehfina" unicode="&#x64a;" horiz-adv-x="1348" arabic-form="final"
d="M748 -645l-262 -259l-136 130l129 131l264 -263l135 135zM1215 0c-7.33301 0 -23.332 -1.66895 -47.999 -5.00195l-78.5 -11l-75.5 -11c-22.667 -3.33301 -35.667 -5 -39 -5l33 -11l105 -27c10.667 0 21.167 -0.5 31.5 -1.5s22.166 -2.83301 35.499 -5.5l28 -6l33 -11
c10.667 -4.66699 20.167 -9 28.5 -13s15.166 -10 20.499 -18l9 -28l4 -29c0 -72.667 -67.333 -156.667 -202 -252l-89 -46l-102 -44c-13.333 -3.33301 -31.166 -8.33301 -53.499 -15s-48 -13 -77 -19s-60.333 -11.167 -94 -15.5s-67.834 -6.5 -102.501 -6.5
c-54.667 0 -108.167 5.83301 -160.5 17.5s-99.5 30 -141.5 55s-77.167 56.833 -105.5 95.5s-45.833 85 -52.5 139c0 8.66699 -1 13.667 -3 15v19c0 62 18.667 130 56 204l18 42l52 78l32 40c35.333 43.333 63.333 65 84 65l6 -23l-76 -177l-32 -117l-3 -28
c0 -31.333 7.33301 -60.166 22 -86.499s37.834 -49.166 69.501 -68.499s73.167 -34.5 124.5 -45.5s113.333 -16.5 186 -16.5c36.667 0 72.834 1.83301 108.501 5.5s72.167 10.5 109.5 20.5l161 45c17.333 2 31 6.66699 41 14l57 46l-137 24
c-20.667 4 -39.167 8.33301 -55.5 13s-31 10.667 -44 18s-25 17 -36 29s-21.167 27.333 -30.5 46l-2 41c0 28 7.66699 55.5 23 82.5s35.666 52.5 60.999 76.5s53.833 46 85.5 66s64.167 37.167 97.5 51.5s65.333 25.5 96 33.5s57.667 12 81 12h98v-252h-157z" />
    <glyph glyph-name="yehinit" unicode="&#x64a;" horiz-adv-x="532" arabic-form="initial"
d="M370 -129l-262 -260l-133 131l126 131l264 -264l135 133zM428 330l-0.00292969 -15.9961l-5 -33c-2 -10.667 -6.33301 -23.834 -13 -39.501l-21 -51.5c-7.33301 -20 -19.333 -41.333 -36 -64s-35.167 -43.334 -55.5 -62.001s-41.333 -34 -63 -46s-41.5 -18 -59.5 -18
h-183v252h303l12 7l12 34c0 2.66699 -1.66699 10 -5 22s-7.66602 25.333 -12.999 40s-11.166 28.167 -17.499 40.5s-12.166 20.166 -17.499 23.499l83 211c26.667 -42 47 -82.833 61 -122.5s21 -84.834 21 -135.501z" />
    <glyph glyph-name="yehmedi" unicode="&#x64a;" horiz-adv-x="727" arabic-form="medial"
d="M507 -153l-262 -259l-133 132l129 130l262 -263l137 134zM582 0c-24.667 0 -48.666 6.00293 -71.999 18.0029l-42 23l-41 29c-8.66699 5.33301 -17.334 13.666 -26.001 24.999l-29 39l-39 -53l-24 -22l-54 -39l-34 -13l-33 -7h-188v252h260
c4.66699 0 10.5 0.666992 17.5 2s15.667 5.83301 26 13.5s22 19.667 35 36s28.167 40.166 45.5 71.499c9.33301 18 17.666 31.333 24.999 40s15.666 13 24.999 13c2.66699 0 6.33398 -0.333008 11.001 -1s9.33398 -3.33398 14.001 -8.00098v-19l-8 -58v-27l8 -15
c2 -2 21.333 -14.333 58 -37l40 -7l51 -4h140v-252h-166z" />
    <glyph glyph-name=".notdef" horiz-adv-x="1147"
d="M143 0v1561h861v-1561h-861zM287 143h573v1275h-573v-1275z" />
    <glyph glyph-name="space" unicode=" " horiz-adv-x="559"
 />
    <glyph glyph-name="exclam" unicode="!" horiz-adv-x="792"
d="M456 644c0 -4.66699 0.333984 -8.83105 1.00098 -12.498s1 -7.5 1 -11.5c0 -11.333 -1.5 -23.666 -4.5 -36.999s-6.5 -25.833 -10.5 -37.5s-8.83301 -21.334 -14.5 -29.001s-11.167 -11.5 -16.5 -11.5c-10.667 0 -20.834 15.667 -30.501 47s-19 72.5 -28 123.5
s-17.167 109.167 -24.5 174.5l-21.5 199.5c-7 67.667 -13.333 134.167 -19 199.5l-15 174l-10.5 123c-2.66699 31.333 -5 47 -7 47s-3 -23.667 -3 -71c0 25.333 2 48.5 6 69.5s9 39.167 15 54.5s12.5 27.166 19.5 35.499s13.833 12.5 20.5 12.5
c1.33301 0 2.83301 -1.66699 4.5 -5s3.66699 -11 6 -23s5 -29.5 8 -52.5s7.33301 -53.833 13 -92.5l20.5 -145l29 -208c16 -113.333 28.667 -213.333 38 -300s17 -161.334 23 -224.001zM553.001 169.003c0 -12.667 -1.33594 -27.8301 -4.00293 -45.4971
s-6.66699 -34.667 -12 -51s-11.166 -30.666 -17.499 -42.999s-12.833 -19.5 -19.5 -21.5c-13.333 0 -30.666 3.5 -51.999 10.5s-42 15.667 -62 26s-37.333 21.166 -52 32.499s-22 21.666 -22 30.999c0 11.333 1.83301 26.666 5.5 45.999s8.33398 38.166 14.001 56.499
s12 34.333 19 48s13.5 20.5 19.5 20.5c4.66699 0 16.667 -4.5 36 -13.5s40 -19.5 62 -31.5s41.667 -24.167 59 -36.5s26 -21.833 26 -28.5z" />
    <glyph glyph-name="quotedbl" unicode="&#x22;" horiz-adv-x="615"
d="M423 589l-39 215.999l-17 88v37c0 30.667 6.5 53.167 19.5 67.5s31.167 21.5 54.5 21.5c20.667 0 38 -7.16699 52 -21.5s21 -33.166 21 -56.499c0 -42 -4.33301 -87.333 -13 -136l-42 -216h-36zM154 588.999l-39 218.998c-11.333 61.333 -17 102 -17 122
c0 30.667 6.33301 53.167 19 67.5s30 21.5 52 21.5s40.167 -7.16699 54.5 -21.5s21.5 -33.833 21.5 -58.5c0 -9.33301 -1.33301 -24.666 -4 -45.999s-8 -49.666 -16 -84.999l-39 -219h-32z" />
    <glyph glyph-name="numbersign" unicode="#"
d="M85 -21l68 335h-126v60h138l51 252h-189v59h201l67 334h62l-67 -334h248l71 334h60l-68 -334h124v-59h-136l-51 -252h187v-60h-199l-70 -335h-58l65 335h-247l-70 -335h-61zM227 374h249l52 252h-249z" />
    <glyph glyph-name="dollar" unicode="$"
d="M80 245l31 0.00390625c0 -32 5.83301 -61 17.5 -87s27.167 -48.333 46.5 -67c36.667 -35.333 91.334 -56.666 164.001 -63.999v429c-110 67.333 -183.333 127.666 -220 180.999c-26 37.333 -39 82.666 -39 135.999c0 60.667 22.333 113.334 67 158.001
s108.667 72.334 192 83.001v67h47v-67c20.667 0 38 -1.5 52 -4.5l51 -11.5c14 -2.66699 60.667 -19.334 140 -50.001v-220h-28c0 37.333 -5.5 70.166 -16.5 98.499s-26.167 52.5 -45.5 72.5c-33.333 35.333 -84.333 56.666 -153 63.999v-374
c124.667 -84.667 204.5 -147.834 239.5 -189.501s52.5 -92.834 52.5 -153.501c0 -66.667 -25.667 -125.667 -77 -177s-123 -81.333 -215 -90v-94h-47v94c-20.667 0 -41.5 1.33301 -62.5 4s-42.833 7 -65.5 13c-38.667 7.33301 -82.334 21.333 -131.001 42v207zM339 620.004
l0.000976562 342.998c-48 -5.33301 -84 -20.666 -108 -45.999s-36 -57.666 -36 -96.999c0 -34 10.667 -67 32 -99s58.666 -65.667 111.999 -101zM386.001 27.002c37.333 5.33301 66 14.666 86 27.999c26 16.667 47.167 38.667 63.5 66s24.5 57 24.5 89s-9.5 62.333 -28.5 91
s-67.5 70.334 -145.5 125.001v-399z" />
    <glyph glyph-name="percent" unicode="%" horiz-adv-x="1253"
d="M1022 1019l-725 -1060h-65l726 1060h64zM267 1019c66.667 0 118.169 -27.332 154.502 -81.999s54.5 -117.334 54.5 -188.001c0 -86 -20.5 -152.333 -61.5 -199s-90.5 -70 -148.5 -70c-38 0 -73.333 10.5 -106 31.5s-58.834 52.833 -78.501 95.5s-29.5 90 -29.5 142
c0 51.333 9.83301 98.5 29.5 141.5s46.667 75.167 81 96.5s69.166 32 104.499 32zM266.002 979.001c-25.333 0 -47.833 -14.833 -67.5 -44.5s-29.5 -91.5 -29.5 -185.5c0 -68 5.66699 -119.667 17 -155c8.66699 -27.333 21.334 -48.333 38.001 -63
c11.333 -8.66699 24.333 -13 39 -13c23.333 0 43.333 12.667 60 38c24.667 37.333 37 100.333 37 189c0 92 -11.667 157.333 -35 196c-16.667 25.333 -36.334 38 -59.001 38zM988.002 494.001c34.667 0 69.3301 -11 103.997 -33s61.5 -54 80.5 -96s28.5 -88 28.5 -138
c0 -86.667 -20.667 -153 -62 -199s-90.666 -69 -147.999 -69c-34.667 0 -69 11 -103 33s-60.833 53.5 -80.5 94.5s-29.5 87.833 -29.5 140.5c0 51.333 9.83301 98 29.5 140s46.5 74 80.5 96c16.667 10.667 33.334 18.5 50.001 23.5s33.334 7.5 50.001 7.5zM989.998 455.001
c-23.333 0 -43.333 -12.999 -60 -38.999c-22.667 -34 -34 -99 -34 -195c0 -87.333 11.333 -148.333 34 -183c16.667 -25.333 36.667 -38 60 -38c21.333 0 41.333 13.667 60 41c23.333 35.333 35 96.333 35 183c0 91.333 -11.667 155.666 -35 192.999
c-16 25.333 -36 38 -60 38z" />
    <glyph glyph-name="ampersand" unicode="&#x26;" horiz-adv-x="1170"
d="M769 641l307.994 0.000976562v-26c-20.667 0 -39 -2.83301 -55 -8.5s-29.667 -12.834 -41 -21.501c-19.333 -14 -50.5 -60.167 -93.5 -138.5s-91.833 -151.166 -146.5 -218.499c21.333 -25.333 41.833 -47 61.5 -65s38.167 -32.333 55.5 -43
c34.667 -20 69.334 -30 104.001 -30s63.334 9 86.001 27s39.334 45.333 50.001 82l28 -20c-18.667 -68.667 -48.167 -119.667 -88.5 -153s-87.166 -50 -140.499 -50c-40 0 -80.667 11.167 -122 33.5s-86.333 59.166 -135 110.499c-62 -54 -117.167 -91.5 -165.5 -112.5
s-100.166 -31.5 -155.499 -31.5c-81.333 0 -145.5 21.667 -192.5 65s-70.5 95 -70.5 155c0 58 21 116.667 63 176s121.667 121 239 185c-22 49.333 -37.167 90.833 -45.5 124.5s-12.5 65.167 -12.5 94.5c0 84 30.667 147.667 92 191c48.667 34.667 103.334 52 164.001 52
c58.667 0 106.167 -17 142.5 -51s54.5 -76.667 54.5 -128c0 -52 -17.5 -97.5 -52.5 -136.5s-97.833 -82.167 -188.5 -129.5l94.5 -156.5c31.667 -50.333 65.167 -99.5 100.5 -147.5c86.667 104 130 191 130 261c0 21.333 -7.33301 41.333 -22 60
c-10.667 12.667 -26 20.667 -46 24v26zM486.994 623.001c60 28 105.333 60.666 136 97.999s46 78.333 46 123c0 34.667 -11 63.667 -33 87s-49.333 35 -82 35c-42 0 -73.833 -15.167 -95.5 -45.5s-32.5 -59.166 -32.5 -86.499c0 -24 4.16699 -51.167 12.5 -81.5
s24.5 -73.5 48.5 -129.5zM601.994 162l-59.001 82c-21.333 28.667 -36.333 50 -45 64c-10.667 16 -20.667 32.333 -30 49c-25.333 40 -53.333 90.333 -84 151c-59.333 -34.667 -103.666 -72.167 -132.999 -112.5s-44 -84.5 -44 -132.5c0 -51.333 16.833 -97 50.5 -137
s79.5 -60 137.5 -60c31.333 0 61 6.33301 89 19c14 6 30.333 15.333 49 28z" />
    <glyph glyph-name="quotesingle" unicode="'" horiz-adv-x="270"
d="M116 589l-39.001 218.998c-11.333 61.333 -17 102 -17 122c0 30.667 6.33301 53.167 19 67.5s30.334 21.5 53.001 21.5c20 0 37.5 -7.16699 52.5 -21.5s22.5 -33.166 22.5 -56.499c0 -10.667 -1.33301 -26.167 -4 -46.5s-7.66699 -49.166 -15 -86.499l-40 -219h-32z" />
    <glyph glyph-name="parenleft" unicode="(" horiz-adv-x="501"
d="M468 -295v-26.9971c-74 36.667 -135.667 80 -185 130c-71.333 71.333 -126 155.166 -164 251.499s-57 196.833 -57 301.5c0 150.667 37.5 288.667 112.5 414s172.833 215 293.5 269v-30c-60 -32.667 -109.333 -77.834 -148 -135.501s-67.834 -130.834 -87.501 -219.501
s-29.5 -182 -29.5 -280c0 -103.333 8.33301 -198.333 25 -285c12 -67.333 27.333 -121.666 46 -162.999c17.333 -40 41.333 -79.667 72 -119c16.667 -18.667 34.834 -36.834 54.501 -54.501s42.167 -35.167 67.5 -52.5z" />
    <glyph glyph-name="parenright" unicode=")" horiz-adv-x="501"
d="M34 1014l0.00195312 30.002c73.333 -36 135.333 -78.667 186 -128c68.667 -71.333 122.5 -155.333 161.5 -252s58.5 -197 58.5 -301c0 -151.333 -37.333 -289.833 -112 -415.5s-172.667 -215.5 -294 -269.5v27c59.333 34 108.666 79.5 147.999 136.5
s68.333 130.167 87 219.5s28 182.333 28 279c0 104.667 -8 200 -24 286c-11.333 67.333 -26.333 121.166 -45 161.499s-43.334 79.666 -74.001 117.999s-70.667 74.5 -120 108.5z" />
    <glyph glyph-name="asterisk" unicode="*"
d="M363 767c0 16.667 -1.49512 32.8291 -4.49512 48.4961s-8.5 34.167 -16.5 55.5s-14.333 40.666 -19 57.999s-7 30 -7 38c0 24.667 6.16699 43.667 18.5 57s27.166 20 44.499 20c15.333 0 28.833 -6.5 40.5 -19.5s17.5 -31.5 17.5 -55.5
c0 -22.667 -6.33301 -53.167 -19 -91.5s-21 -75.166 -25 -110.499c27.333 16.667 51.666 37.334 72.999 62.001c32.667 38 57 62.333 73 73c18 9.33301 34.667 14 50 14c16 0 29.667 -5.66699 41 -17c11.333 -10.667 17 -23.667 17 -39c0 -18 -8.16699 -34 -24.5 -48
s-56.833 -28.333 -121.5 -43c-36 -8 -67.333 -17.333 -94 -28c23.333 -13.333 54.666 -23.666 93.999 -30.999c58 -10.667 96.333 -24.167 115 -40.5s28 -34.166 28 -53.499c0 -14.667 -5.66699 -27.334 -17 -38.001c-4.66699 -4.66699 -10 -8.66699 -16 -12
s-13.333 -5 -22 -5c-14 0 -30 5.16699 -48 15.5s-42.333 33.833 -73 70.5c-18.667 22 -43.667 44.333 -75 67c0 -27.333 5.66699 -57.666 17 -90.999c18 -56.667 27 -96 27 -118c0 -19.333 -6 -36 -18 -50c-12.667 -14 -25.334 -21 -38.001 -21
c-18 0 -34.333 7.33301 -49 22c-10.667 10.667 -16 27 -16 49c0 25.333 5.66699 53.333 17 84l21 69c1.33301 2.66699 2.83301 10.167 4.5 22.5l4.5 33.5c-28 -18.667 -53.333 -39.667 -76 -63c-34.667 -40 -61.334 -65.667 -80.001 -77c-14 -8.66699 -27.333 -13 -40 -13
c-17.333 0 -31.833 5.83301 -43.5 17.5s-17.5 24.167 -17.5 37.5s5 26.5 15 39.5s25.333 24.167 46 33.5c10.667 4.66699 41 12 91 22l43.5 11.5c13.667 3.66699 28.5 9.83398 44.5 18.501c-26 12.667 -57.667 22.334 -95 29.001c-60 14 -97 25.667 -111 35
c-22.667 16 -34 35.667 -34 59c0 12.667 5.66699 24.667 17 36s24 17 38 17c16 0 33 -4.83301 51 -14.5s40.667 -30.834 68 -63.501c27.333 -30 55 -54 83 -72z" />
    <glyph glyph-name="plus" unicode="+" horiz-adv-x="850"
d="M393 104v366h-366v61h366v365h59v-365h368v-61h-368v-366h-59z" />
    <glyph glyph-name="comma" unicode="," horiz-adv-x="375"
d="M81 -251l-0.000976562 32.998c50.667 15.333 89.667 40.833 117 76.5s41 73.167 41 112.5c0 8 -1.83301 15 -5.5 21s-7.16699 9 -10.5 9c-6 0 -17.667 -5 -35 -15c-9.33301 -4.66699 -18.666 -7 -27.999 -7c-24.667 0 -44 7.16699 -58 21.5s-21 34.166 -21 59.499
c0 22.667 9.16699 42.834 27.5 60.501s40.5 26.5 66.5 26.5c32.667 0 61.667 -14.333 87 -43c12 -14 21.333 -30.167 28 -48.5s10 -39.166 10 -62.499c0 -50.667 -17.5 -97.667 -52.5 -141s-90.5 -77.666 -166.5 -102.999z" />
    <glyph glyph-name="hyphen" unicode="-" horiz-adv-x="501"
d="M60 393h381v-110h-381v110z" />
    <glyph glyph-name="period" unicode="." horiz-adv-x="375"
d="M188 143c22 0 41.166 -8.16699 57.499 -24.5s24.5 -35.833 24.5 -58.5c0 -21.333 -8.16699 -40.166 -24.5 -56.499s-35.5 -24.5 -57.5 -24.5c-12.667 0 -23.167 1.66699 -31.5 5s-17.166 9.66602 -26.499 18.999c-16 16.667 -24 35.667 -24 57
c0 23.333 8.16699 43 24.5 59s35.5 24 57.5 24z" />
    <glyph glyph-name="slash" unicode="/" horiz-adv-x="417"
d="M421 1044l-361 -1065h-59l362 1065h58z" />
    </font>
</defs>
</svg>
